<?xml version="1.0" encoding="UTF-8" standalone="no"?>
<!-- Created with Inkscape (http://www.inkscape.org/) -->
<svg xmlns:dc="http://purl.org/dc/elements/1.1/" xmlns:cc="http://creativecommons.org/ns#" xmlns:rdf="http://www.w3.org/1999/02/22-rdf-syntax-ns#" xmlns:svg="http://www.w3.org/2000/svg" xmlns="http://www.w3.org/2000/svg" xmlns:sodipodi="http://sodipodi.sourceforge.net/DTD/sodipodi-0.dtd" xmlns:inkscape="http://www.inkscape.org/namespaces/inkscape" width="349.07715mm" height="60.56316mm" viewBox="0 0 1236.8875 214.59387" id="svg5198" version="1.1" inkscape:version="0.91 r13725" sodipodi:docname="fix_compiler design.svg">
  <defs id="defs5200">
    <marker inkscape:isstock="true" style="overflow:visible" id="marker6868" refX="0" refY="0" orient="auto" inkscape:stockid="Arrow1Lend">
      <path inkscape:connector-curvature="0" transform="matrix(-0.8,0,0,-0.8,-10,0)" style="fill:#000000;fill-opacity:1;fill-rule:evenodd;stroke:#000000;stroke-width:1pt;stroke-opacity:1" d="M 0,0 5,-5 -12.5,0 5,5 0,0 Z" id="path6870"/>
    </marker>
    <marker inkscape:isstock="true" style="overflow:visible" id="marker6798" refX="0" refY="0" orient="auto" inkscape:stockid="Arrow1Lend">
      <path inkscape:connector-curvature="0" transform="matrix(-0.8,0,0,-0.8,-10,0)" style="fill:#000000;fill-opacity:1;fill-rule:evenodd;stroke:#000000;stroke-width:1pt;stroke-opacity:1" d="M 0,0 5,-5 -12.5,0 5,5 0,0 Z" id="path6800"/>
    </marker>
    <marker inkscape:isstock="true" style="overflow:visible" id="marker6734" refX="0" refY="0" orient="auto" inkscape:stockid="Arrow1Lend">
      <path inkscape:connector-curvature="0" transform="matrix(-0.8,0,0,-0.8,-10,0)" style="fill:#000000;fill-opacity:1;fill-rule:evenodd;stroke:#000000;stroke-width:1pt;stroke-opacity:1" d="M 0,0 5,-5 -12.5,0 5,5 0,0 Z" id="path6736"/>
    </marker>
    <marker inkscape:isstock="true" style="overflow:visible" id="marker6676" refX="0" refY="0" orient="auto" inkscape:stockid="Arrow1Lend">
      <path inkscape:connector-curvature="0" transform="matrix(-0.8,0,0,-0.8,-10,0)" style="fill:#000000;fill-opacity:1;fill-rule:evenodd;stroke:#000000;stroke-width:1pt;stroke-opacity:1" d="M 0,0 5,-5 -12.5,0 5,5 0,0 Z" id="path6678"/>
    </marker>
    <marker inkscape:isstock="true" style="overflow:visible" id="marker6624" refX="0" refY="0" orient="auto" inkscape:stockid="Arrow1Lend">
      <path inkscape:connector-curvature="0" transform="matrix(-0.8,0,0,-0.8,-10,0)" style="fill:#000000;fill-opacity:1;fill-rule:evenodd;stroke:#000000;stroke-width:1pt;stroke-opacity:1" d="M 0,0 5,-5 -12.5,0 5,5 0,0 Z" id="path6626"/>
    </marker>
    <marker inkscape:isstock="true" style="overflow:visible" id="marker6578" refX="0" refY="0" orient="auto" inkscape:stockid="Arrow1Lend">
      <path inkscape:connector-curvature="0" transform="matrix(-0.8,0,0,-0.8,-10,0)" style="fill:#000000;fill-opacity:1;fill-rule:evenodd;stroke:#000000;stroke-width:1pt;stroke-opacity:1" d="M 0,0 5,-5 -12.5,0 5,5 0,0 Z" id="path6580"/>
    </marker>
    <marker inkscape:isstock="true" style="overflow:visible" id="marker6538" refX="0" refY="0" orient="auto" inkscape:stockid="Arrow1Lend">
      <path inkscape:connector-curvature="0" transform="matrix(-0.8,0,0,-0.8,-10,0)" style="fill:#000000;fill-opacity:1;fill-rule:evenodd;stroke:#000000;stroke-width:1pt;stroke-opacity:1" d="M 0,0 5,-5 -12.5,0 5,5 0,0 Z" id="path6540"/>
    </marker>
    <marker inkscape:isstock="true" style="overflow:visible" id="marker6504" refX="0" refY="0" orient="auto" inkscape:stockid="Arrow1Lend">
      <path inkscape:connector-curvature="0" transform="matrix(-0.8,0,0,-0.8,-10,0)" style="fill:#000000;fill-opacity:1;fill-rule:evenodd;stroke:#000000;stroke-width:1pt;stroke-opacity:1" d="M 0,0 5,-5 -12.5,0 5,5 0,0 Z" id="path6506"/>
    </marker>
    <marker inkscape:isstock="true" style="overflow:visible" id="marker6476" refX="0" refY="0" orient="auto" inkscape:stockid="Arrow1Lend">
      <path inkscape:connector-curvature="0" transform="matrix(-0.8,0,0,-0.8,-10,0)" style="fill:#000000;fill-opacity:1;fill-rule:evenodd;stroke:#000000;stroke-width:1pt;stroke-opacity:1" d="M 0,0 5,-5 -12.5,0 5,5 0,0 Z" id="path6478"/>
    </marker>
    <marker inkscape:stockid="Arrow1Lend" orient="auto" refY="0" refX="0" id="marker4935" style="overflow:visible" inkscape:isstock="true" inkscape:collect="always">
      <path id="path4937" d="M 0,0 5,-5 -12.5,0 5,5 0,0 Z" style="fill:#000000;fill-opacity:1;fill-rule:evenodd;stroke:#000000;stroke-width:1pt;stroke-opacity:1" transform="matrix(-0.8,0,0,-0.8,-10,0)" inkscape:connector-curvature="0"/>
    </marker>
    <marker inkscape:stockid="Arrow1Lend" orient="auto" refY="0" refX="0" id="marker5403" style="overflow:visible" inkscape:isstock="true">
      <path id="path5405" d="M 0,0 5,-5 -12.5,0 5,5 0,0 Z" style="fill:#000000;fill-opacity:1;fill-rule:evenodd;stroke:#000000;stroke-width:1pt;stroke-opacity:1" transform="matrix(-0.8,0,0,-0.8,-10,0)" inkscape:connector-curvature="0"/>
    </marker>
  </defs>
  <sodipodi:namedview id="base" pagecolor="#ffffff" bordercolor="#666666" borderopacity="1.0" inkscape:pageopacity="0.0" inkscape:pageshadow="2" inkscape:zoom="0.98994949" inkscape:cx="614.48711" inkscape:cy="37.634952" inkscape:document-units="px" inkscape:current-layer="layer1" showgrid="false" inkscape:window-width="1920" inkscape:window-height="1020" inkscape:window-x="0" inkscape:window-y="0" inkscape:window-maximized="1" fit-margin-top="10" fit-margin-left="10" fit-margin-right="10" fit-margin-bottom="10"/>
  <metadata id="metadata5203">
    <rdf:RDF>
      <cc:Work rdf:about="">
        <dc:format>image/svg+xml</dc:format>
        <dc:type rdf:resource="http://purl.org/dc/dcmitype/StillImage"/>
        <dc:title/>
      </cc:Work>
    </rdf:RDF>
  </metadata>
  <g inkscape:label="Livello 1" inkscape:groupmode="layer" id="layer1" transform="translate(267.01518,-182.20813)">
    <g transform="translate(-81.368201,-46.486353)" style="font-style:normal;font-variant:normal;font-weight:normal;font-stretch:normal;font-size:20px;line-height:114.99999762%;font-family:'TeX Gyre Schola';-inkscape-font-specification:'TeX Gyre Schola';letter-spacing:1px;word-spacing:0px;fill:#000000;fill-opacity:1;stroke:none;stroke-width:1px;stroke-linecap:butt;stroke-linejoin:miter;stroke-opacity:1" id="flowRoot4136">
      <path inkscape:connector-curvature="0" d="m 105.3518,333.52755 0,-5.12 -12.180003,0 0,0.94 0.36,0 c 1.62,0 1.8,0.1 1.8,0.94 l 0,10.68 c 0,0.84 -0.18,0.94 -1.8,0.94 l -0.36,0 0,0.94 6.860003,0 0,-0.94 -0.660003,0 c -1.62,0 -1.8,-0.1 -1.8,-0.94 l 0,-5.12 0.4,0 c 2.480003,0 2.820003,0.98 2.880003,2.88 l 0.94,0 0,-6.56 -0.94,0 c -0.1,1.96 -0.900003,2.74 -2.800003,2.74 l -0.48,0 0,-4.56 c 0,-0.86 0.18,-1 1.26,-1 l 0.92,0 c 3.300003,0 4.160003,0.76 4.720003,4.18 l 0.88,0 z" style="font-style:normal;font-variant:normal;font-weight:normal;font-stretch:normal;font-size:20px;font-family:'TeX Gyre Schola';-inkscape-font-specification:'TeX Gyre Schola';text-align:center;text-anchor:middle" id="path4472"/>
      <path inkscape:connector-curvature="0" d="m 115.84648,334.82755 c 0,-0.96 -0.68,-1.6 -1.74,-1.6 -1.26,0 -2.36,1.02 -3,2.78 l 0,-2.48 -3.54,0.22 0,0.86 0.82,0 c 0.74,0 0.86,0.14 0.86,1 l 0,5.58 c 0,0.8 -0.02,0.94 -1.32,0.94 l -0.28,0 0,0.72 5.34,0 0,-0.72 -0.38,0 c -1.28,0 -1.5,-0.14 -1.5,-0.94 l 0,-1 c 0,-1.5 0.28,-3.02 0.78,-4.16 0.48,-1.12 1.16,-1.74 2,-1.84 -0.28,0.32 -0.36,0.52 -0.36,0.9 0,0.64 0.46,1.1 1.1,1.1 0.72,0 1.22,-0.54 1.22,-1.36 z" style="font-style:normal;font-variant:normal;font-weight:normal;font-stretch:normal;font-size:20px;font-family:'TeX Gyre Schola';-inkscape-font-specification:'TeX Gyre Schola';text-align:center;text-anchor:middle" id="path4474"/>
      <path inkscape:connector-curvature="0" d="m 126.33367,338.18755 c 0,-2.74 -1.92,-4.96 -4.28,-4.96 -2.44,0 -4.36,2.18 -4.36,4.98 0,2.74 1.92,4.94 4.32,4.94 2.4,0 4.32,-2.2 4.32,-4.96 z m -2.1,0 c 0,2.66 -0.78,4.1 -2.22,4.1 -1.44,0 -2.22,-1.44 -2.22,-4.08 0,-2.72 0.76,-4.12 2.26,-4.12 1.4,0 2.18,1.46 2.18,4.1 z" style="font-style:normal;font-variant:normal;font-weight:normal;font-stretch:normal;font-size:20px;font-family:'TeX Gyre Schola';-inkscape-font-specification:'TeX Gyre Schola';text-align:center;text-anchor:middle" id="path4476"/>
      <path inkscape:connector-curvature="0" d="m 139.87367,342.84755 0,-0.72 -0.28,0 c -1.28,0 -1.3,-0.14 -1.3,-0.94 l 0,-3.94 c 0,-1.44 -0.06,-1.8 -0.42,-2.48 -0.5,-0.96 -1.52,-1.54 -2.7,-1.54 -1.28,0 -2.28,0.6 -3.16,1.92 l 0,-1.62 -3.46,0.22 0,0.86 0.72,0 c 0.74,0 0.86,0.14 0.86,1 l 0,5.58 c 0,0.8 -0.02,0.94 -1.3,0.94 l -0.28,0 0,0.72 5.06,0 0,-0.72 -0.28,0 c -1.3,0 -1.32,-0.14 -1.32,-0.94 l 0,-2.88 c 0,-0.98 0.14,-1.88 0.36,-2.34 0.42,-0.9 1.32,-1.52 2.18,-1.52 0.52,0 1.12,0.3 1.42,0.7 0.3,0.42 0.44,1.04 0.44,2 l 0,4.04 c 0,0.8 -0.02,0.94 -1.32,0.94 l -0.28,0 0,0.72 5.06,0 z" style="font-style:normal;font-variant:normal;font-weight:normal;font-stretch:normal;font-size:20px;font-family:'TeX Gyre Schola';-inkscape-font-specification:'TeX Gyre Schola';text-align:center;text-anchor:middle" id="path4478"/>
      <path inkscape:connector-curvature="0" d="m 148.72023,339.66755 c 0,-0.12 0,-0.26 -0.02,-0.46 l -0.84,0 c -0.06,1.8 -0.58,2.72 -1.56,2.72 -0.92,0 -1.18,-0.5 -1.18,-2.08 l 0,-5.46 2.94,0 0,-0.86 -2.94,0 0,-3.96 -0.82,0 c -0.2,2.6 -1.08,3.92 -2.7,4.04 l 0,0.78 1.64,0 0,5.1 c 0,1.42 0.04,1.9 0.24,2.36 0.34,0.84 1.1,1.3 2.28,1.3 1.98,0 2.96,-1.58 2.96,-3.48 z" style="font-style:normal;font-variant:normal;font-weight:normal;font-stretch:normal;font-size:20px;font-family:'TeX Gyre Schola';-inkscape-font-specification:'TeX Gyre Schola';text-align:center;text-anchor:middle" id="path4480"/>
      <path inkscape:connector-curvature="0" d="m 165.86055,340.30755 -0.7,-0.38 c -0.82,1.54 -1.66,2.14 -3,2.14 -1.66,0 -2.78,-1.2 -2.78,-3.72 l 6.48,0 c 0,-3 -1.66,-5.12 -4.12,-5.12 -2.56,0 -4.48,2.22 -4.48,5.22 0,2.8 1.82,4.7 4.52,4.7 1.9,0 3.26,-0.94 4.08,-2.84 z m -2.14,-3.56 c 0,0.58 -0.18,0.74 -0.82,0.74 l -3.5,0 c 0,-2.14 1.08,-3.4 2.3,-3.4 1.22,0 2.02,1.06 2.02,2.66 z" style="font-style:normal;font-variant:normal;font-weight:normal;font-stretch:normal;font-size:20px;font-family:'TeX Gyre Schola';-inkscape-font-specification:'TeX Gyre Schola';text-align:center;text-anchor:middle" id="path4482"/>
      <path inkscape:connector-curvature="0" d="m 179.42055,342.84755 0,-0.72 -0.28,0 c -1.28,0 -1.3,-0.14 -1.3,-0.94 l 0,-3.94 c 0,-1.44 -0.06,-1.8 -0.42,-2.48 -0.5,-0.96 -1.52,-1.54 -2.7,-1.54 -1.28,0 -2.28,0.6 -3.16,1.92 l 0,-1.62 -3.46,0.22 0,0.86 0.72,0 c 0.74,0 0.86,0.14 0.86,1 l 0,5.58 c 0,0.8 -0.02,0.94 -1.3,0.94 l -0.28,0 0,0.72 5.06,0 0,-0.72 -0.28,0 c -1.3,0 -1.32,-0.14 -1.32,-0.94 l 0,-2.88 c 0,-0.98 0.14,-1.88 0.36,-2.34 0.42,-0.9 1.32,-1.52 2.18,-1.52 0.52,0 1.12,0.3 1.42,0.7 0.3,0.42 0.44,1.04 0.44,2 l 0,4.04 c 0,0.8 -0.02,0.94 -1.32,0.94 l -0.28,0 0,0.72 5.06,0 z" style="font-style:normal;font-variant:normal;font-weight:normal;font-stretch:normal;font-size:20px;font-family:'TeX Gyre Schola';-inkscape-font-specification:'TeX Gyre Schola';text-align:center;text-anchor:middle" id="path4484"/>
      <path inkscape:connector-curvature="0" d="m 191.86711,342.84755 0,-0.86 -0.36,0 c -1.08,0 -1.24,-0.2 -1.24,-1.46 l 0,-12.42 -3.92,0.22 0,0.86 1.18,0 c 0.72,0 0.86,0.14 0.86,1 l 0,4.52 c -0.74,-1.02 -1.6,-1.48 -2.76,-1.48 -2.26,0 -3.98,2.18 -3.98,5.06 0,2.84 1.66,4.86 3.98,4.86 1.26,0 2.12,-0.54 2.76,-1.74 l 0,1.58 3.48,-0.14 z m -3.5,-4.62 c 0,2.32 -0.92,3.84 -2.36,3.84 -1.4,0 -2.26,-1.32 -2.26,-3.54 0,-1.18 0.12,-2.08 0.38,-2.76 0.34,-0.88 1.08,-1.46 1.9,-1.46 0.82,0 1.6,0.6 1.96,1.52 0.24,0.6 0.38,1.44 0.38,2.4 z" style="font-style:normal;font-variant:normal;font-weight:normal;font-stretch:normal;font-size:20px;font-family:'TeX Gyre Schola';-inkscape-font-specification:'TeX Gyre Schola';text-align:center;text-anchor:middle" id="path4486"/>
    </g>
    <rect style="opacity:1;fill:none;fill-opacity:1;stroke:#000000;stroke-width:3;stroke-linecap:butt;stroke-linejoin:miter;stroke-miterlimit:4;stroke-dasharray:none;stroke-dashoffset:0;stroke-opacity:1" id="rect4144" width="165.66502" height="82.832512" x="-21.681257" y="247.72495"/>
    <g transform="translate(187.69969,-46.486353)" style="font-style:normal;font-variant:normal;font-weight:normal;font-stretch:normal;font-size:20px;line-height:114.99999762%;font-family:'TeX Gyre Schola';-inkscape-font-specification:'TeX Gyre Schola';letter-spacing:1px;word-spacing:0px;fill:#000000;fill-opacity:1;stroke:none;stroke-width:1px;stroke-linecap:butt;stroke-linejoin:miter;stroke-opacity:1" id="flowRoot4155">
      <path inkscape:connector-curvature="0" d="m 104.3557,342.84755 0,-0.94 -0.36,0 c -1.62,0 -1.8,-0.08 -1.8,-0.94 l 0,-10.68 c 0,-0.84 0.18,-0.94 1.8,-0.94 l 0.36,0 0,-0.94 -5.019997,0 -3.66,10.66 -3.84,-10.66 -5.16,0 0,0.94 0.38,0 c 1.62,0 1.8,0.1 1.8,0.94 l 0,8.24 c 0,2.72 -0.4,3.3 -2.32,3.38 l 0,0.94 5.7,0 0,-0.94 c -1.9,-0.08 -2.3,-0.66 -2.3,-3.38 l 0,-8.84 4.76,13.16 0.8,0 4.46,-13.16 0,11.28 c 0,0.86 -0.18,0.94 -1.8,0.94 l -0.36,0 0,0.94 6.559997,0 z" style="font-style:normal;font-variant:normal;font-weight:normal;font-stretch:normal;font-size:20px;font-family:'TeX Gyre Schola';-inkscape-font-specification:'TeX Gyre Schola';text-align:center;text-anchor:middle" id="path4453"/>
      <path inkscape:connector-curvature="0" d="m 111.74289,342.84755 0,-0.72 -0.24,0 c -1.3,0 -1.42,-0.14 -1.42,-0.94 l 0,-7.66 -3.76,0.22 0,0.86 1.02,0 c 0.74,0 0.86,0.16 0.86,1 l 0,5.58 c 0,0.8 -0.12,0.94 -1.4,0.94 l -0.24,0 0,0.72 5.18,0 z m -1.6,-12.2 c 0,-0.54 -0.46,-1 -1,-1 -0.54,0 -1,0.46 -1,1 0,0.54 0.46,1 0.98,1 0.56,0 1.02,-0.44 1.02,-1 z" style="font-style:normal;font-variant:normal;font-weight:normal;font-stretch:normal;font-size:20px;font-family:'TeX Gyre Schola';-inkscape-font-specification:'TeX Gyre Schola';text-align:center;text-anchor:middle" id="path4455"/>
      <path inkscape:connector-curvature="0" d="m 124.33195,342.84755 0,-0.86 -0.36,0 c -1.08,0 -1.24,-0.2 -1.24,-1.46 l 0,-12.42 -3.92,0.22 0,0.86 1.18,0 c 0.72,0 0.86,0.14 0.86,1 l 0,4.52 c -0.74,-1.02 -1.6,-1.48 -2.76,-1.48 -2.26,0 -3.98,2.18 -3.98,5.06 0,2.84 1.66,4.86 3.98,4.86 1.26,0 2.12,-0.54 2.76,-1.74 l 0,1.58 3.48,-0.14 z m -3.5,-4.62 c 0,2.32 -0.92,3.84 -2.36,3.84 -1.4,0 -2.26,-1.32 -2.26,-3.54 0,-1.18 0.12,-2.08 0.38,-2.76 0.34,-0.88 1.08,-1.46 1.9,-1.46 0.82,0 1.6,0.6 1.96,1.52 0.24,0.6 0.38,1.44 0.38,2.4 z" style="font-style:normal;font-variant:normal;font-weight:normal;font-stretch:normal;font-size:20px;font-family:'TeX Gyre Schola';-inkscape-font-specification:'TeX Gyre Schola';text-align:center;text-anchor:middle" id="path4457"/>
      <path inkscape:connector-curvature="0" d="m 136.81633,342.84755 0,-0.86 -0.36,0 c -1.08,0 -1.24,-0.2 -1.24,-1.46 l 0,-12.42 -3.92,0.22 0,0.86 1.18,0 c 0.72,0 0.86,0.14 0.86,1 l 0,4.52 c -0.74,-1.02 -1.6,-1.48 -2.76,-1.48 -2.26,0 -3.98,2.18 -3.98,5.06 0,2.84 1.66,4.86 3.98,4.86 1.26,0 2.12,-0.54 2.76,-1.74 l 0,1.58 3.48,-0.14 z m -3.5,-4.62 c 0,2.32 -0.92,3.84 -2.36,3.84 -1.4,0 -2.26,-1.32 -2.26,-3.54 0,-1.18 0.12,-2.08 0.38,-2.76 0.34,-0.88 1.08,-1.46 1.9,-1.46 0.82,0 1.6,0.6 1.96,1.52 0.24,0.6 0.38,1.44 0.38,2.4 z" style="font-style:normal;font-variant:normal;font-weight:normal;font-stretch:normal;font-size:20px;font-family:'TeX Gyre Schola';-inkscape-font-specification:'TeX Gyre Schola';text-align:center;text-anchor:middle" id="path4459"/>
      <path inkscape:connector-curvature="0" d="m 143.9607,342.84755 0,-0.72 -0.34,0 c -1.3,0 -1.32,-0.14 -1.32,-0.94 l 0,-13.08 -3.7,0.22 0,0.86 0.98,0 c 0.72,0 0.84,0.14 0.84,1 l 0,11 c 0,0.8 -0.02,0.94 -1.3,0.94 l -0.34,0 0,0.72 5.18,0 z" style="font-style:normal;font-variant:normal;font-weight:normal;font-stretch:normal;font-size:20px;font-family:'TeX Gyre Schola';-inkscape-font-specification:'TeX Gyre Schola';text-align:center;text-anchor:middle" id="path4461"/>
      <path inkscape:connector-curvature="0" d="m 154.80977,340.30755 -0.7,-0.38 c -0.82,1.54 -1.66,2.14 -3,2.14 -1.66,0 -2.78,-1.2 -2.78,-3.72 l 6.48,0 c 0,-3 -1.66,-5.12 -4.12,-5.12 -2.56,0 -4.48,2.22 -4.48,5.22 0,2.8 1.82,4.7 4.52,4.7 1.9,0 3.26,-0.94 4.08,-2.84 z m -2.14,-3.56 c 0,0.58 -0.18,0.74 -0.82,0.74 l -3.5,0 c 0,-2.14 1.08,-3.4 2.3,-3.4 1.22,0 2.02,1.06 2.02,2.66 z" style="font-style:normal;font-variant:normal;font-weight:normal;font-stretch:normal;font-size:20px;font-family:'TeX Gyre Schola';-inkscape-font-specification:'TeX Gyre Schola';text-align:center;text-anchor:middle" id="path4463"/>
      <path inkscape:connector-curvature="0" d="m 172.35664,340.30755 -0.7,-0.38 c -0.82,1.54 -1.66,2.14 -3,2.14 -1.66,0 -2.78,-1.2 -2.78,-3.72 l 6.48,0 c 0,-3 -1.66,-5.12 -4.12,-5.12 -2.56,0 -4.48,2.22 -4.48,5.22 0,2.8 1.82,4.7 4.52,4.7 1.9,0 3.26,-0.94 4.08,-2.84 z m -2.14,-3.56 c 0,0.58 -0.18,0.74 -0.82,0.74 l -3.5,0 c 0,-2.14 1.08,-3.4 2.3,-3.4 1.22,0 2.02,1.06 2.02,2.66 z" style="font-style:normal;font-variant:normal;font-weight:normal;font-stretch:normal;font-size:20px;font-family:'TeX Gyre Schola';-inkscape-font-specification:'TeX Gyre Schola';text-align:center;text-anchor:middle" id="path4465"/>
      <path inkscape:connector-curvature="0" d="m 185.91664,342.84755 0,-0.72 -0.28,0 c -1.28,0 -1.3,-0.14 -1.3,-0.94 l 0,-3.94 c 0,-1.44 -0.06,-1.8 -0.42,-2.48 -0.5,-0.96 -1.52,-1.54 -2.7,-1.54 -1.28,0 -2.28,0.6 -3.16,1.92 l 0,-1.62 -3.46,0.22 0,0.86 0.72,0 c 0.74,0 0.86,0.14 0.86,1 l 0,5.58 c 0,0.8 -0.02,0.94 -1.3,0.94 l -0.28,0 0,0.72 5.06,0 0,-0.72 -0.28,0 c -1.3,0 -1.32,-0.14 -1.32,-0.94 l 0,-2.88 c 0,-0.98 0.14,-1.88 0.36,-2.34 0.42,-0.9 1.32,-1.52 2.18,-1.52 0.52,0 1.12,0.3 1.42,0.7 0.3,0.42 0.44,1.04 0.44,2 l 0,4.04 c 0,0.8 -0.02,0.94 -1.32,0.94 l -0.28,0 0,0.72 5.06,0 z" style="font-style:normal;font-variant:normal;font-weight:normal;font-stretch:normal;font-size:20px;font-family:'TeX Gyre Schola';-inkscape-font-specification:'TeX Gyre Schola';text-align:center;text-anchor:middle" id="path4467"/>
      <path inkscape:connector-curvature="0" d="m 198.3632,342.84755 0,-0.86 -0.36,0 c -1.08,0 -1.24,-0.2 -1.24,-1.46 l 0,-12.42 -3.92,0.22 0,0.86 1.18,0 c 0.72,0 0.86,0.14 0.86,1 l 0,4.52 c -0.74,-1.02 -1.6,-1.48 -2.76,-1.48 -2.26,0 -3.98,2.18 -3.98,5.06 0,2.84 1.66,4.86 3.98,4.86 1.26,0 2.12,-0.54 2.76,-1.74 l 0,1.58 3.48,-0.14 z m -3.5,-4.62 c 0,2.32 -0.92,3.84 -2.36,3.84 -1.4,0 -2.26,-1.32 -2.26,-3.54 0,-1.18 0.12,-2.08 0.38,-2.76 0.34,-0.88 1.08,-1.46 1.9,-1.46 0.82,0 1.6,0.6 1.96,1.52 0.24,0.6 0.38,1.44 0.38,2.4 z" style="font-style:normal;font-variant:normal;font-weight:normal;font-stretch:normal;font-size:20px;font-family:'TeX Gyre Schola';-inkscape-font-specification:'TeX Gyre Schola';text-align:center;text-anchor:middle" id="path4469"/>
    </g>
    <rect y="247.72495" x="247.38664" height="82.832512" width="165.66502" id="rect4163" style="opacity:1;fill:none;fill-opacity:1;stroke:#000000;stroke-width:3;stroke-linecap:butt;stroke-linejoin:miter;stroke-miterlimit:4;stroke-dasharray:none;stroke-dashoffset:0;stroke-opacity:1"/>
    <g transform="translate(456.76762,-46.486353)" style="font-style:normal;font-variant:normal;font-weight:normal;font-stretch:normal;font-size:20px;line-height:114.99999762%;font-family:'TeX Gyre Schola';-inkscape-font-specification:'TeX Gyre Schola';letter-spacing:1px;word-spacing:0px;fill:#000000;fill-opacity:1;stroke:none;stroke-width:1px;stroke-linecap:butt;stroke-linejoin:miter;stroke-opacity:1" id="flowRoot4167">
      <path inkscape:connector-curvature="0" d="m 109.69492,338.92755 c 0,-1.98 -1.28,-3.14 -4,-3.62 2.2,-0.46 3.24,-1.74 3.24,-3.38 0,-2.32 -1.84,-3.52 -4.86,-3.52 l -7.179998,0 0,0.94 0.36,0 c 1.62,0 1.8,0.1 1.8,0.94 l 0,10.68 c 0,0.84 -0.18,0.94 -1.8,0.94 l -0.36,0 0,0.94 7.259998,0 c 3.46,0 5.54,-1.48 5.54,-3.92 z m -3.08,-6.74 c 0,1.96 -0.98,2.72 -3.54,2.72 l -1.78,0 0,-4.56 c 0,-0.78 0.28,-1 1.32,-1 l 0.8,0 c 2.36,0 3.2,0.96 3.2,2.84 z m 0.62,6.68 c 0,2.36 -1.18,3.04 -3.94,3.04 l -0.84,0 c -1.02,0 -1.16,-0.16 -1.16,-1.26 l 0,-4.8 1.76,0 c 3.1,0 4.18,0.82 4.18,3.02 z" style="font-style:normal;font-variant:normal;font-weight:normal;font-stretch:normal;font-size:20px;font-family:'TeX Gyre Schola';-inkscape-font-specification:'TeX Gyre Schola';text-align:center;text-anchor:middle" id="path4438"/>
      <path inkscape:connector-curvature="0" d="m 122.60805,341.82755 c 0,-0.14 -0.1,-0.24 -0.2,-0.24 -0.28,0 -0.74,0.22 -0.86,0.22 -0.56,0 -0.76,-0.38 -0.76,-1.38 l 0,-4.02 c 0,-2.56 -1.42,-3.18 -3.72,-3.18 -2.24,0 -3.9,1.06 -3.9,2.5 0,0.76 0.46,1.24 1.16,1.24 0.62,0 1.08,-0.42 1.08,-1.02 0,-0.36 -0.44,-0.98 -0.44,-1.08 0,-0.42 0.82,-0.78 1.78,-0.78 1.34,0 2.16,0.44 2.16,2.2 l 0,0.78 c -4.66,0.8 -6.28,1.78 -6.28,3.74 0,1.42 1.14,2.34 2.9,2.34 1.38,0 2.62,-0.56 3.48,-1.58 0.32,1.02 0.82,1.42 1.76,1.42 0.9,0 1.84,-0.58 1.84,-1.16 z m -3.7,-2.98 c 0,1.2 -0.06,1.48 -0.4,2 -0.5,0.74 -1.42,1.24 -2.28,1.24 -0.9,0 -1.58,-0.66 -1.58,-1.56 0,-1.42 0.8,-2.02 4.26,-2.6 l 0,0.92 z" style="font-style:normal;font-variant:normal;font-weight:normal;font-stretch:normal;font-size:20px;font-family:'TeX Gyre Schola';-inkscape-font-specification:'TeX Gyre Schola';text-align:center;text-anchor:middle" id="path4440"/>
      <path inkscape:connector-curvature="0" d="m 132.40086,340.20755 -0.78,-0.3 c -0.64,1.44 -1.32,2.02 -2.36,2.02 -1.6,0 -2.6,-1.46 -2.6,-3.8 0,-2.42 0.98,-4.04 2.46,-4.04 0.6,0 1.12,0.28 1.12,0.6 0,0.06 -0.04,0.12 -0.12,0.24 -0.32,0.38 -0.4,0.58 -0.4,0.92 0,0.66 0.5,1.12 1.2,1.12 0.7,0 1.22,-0.56 1.22,-1.36 0,-1.34 -1.34,-2.38 -3.12,-2.38 -2.6,0 -4.46,2.14 -4.46,5.12 0,2.84 1.7,4.8 4.18,4.8 1.78,0 2.8,-0.82 3.66,-2.94 z" style="font-style:normal;font-variant:normal;font-weight:normal;font-stretch:normal;font-size:20px;font-family:'TeX Gyre Schola';-inkscape-font-specification:'TeX Gyre Schola';text-align:center;text-anchor:middle" id="path4442"/>
      <path inkscape:connector-curvature="0" d="m 145.17555,342.84755 0,-0.72 c -1.12,-0.1 -1.52,-0.34 -2.34,-1.38 l -2.84,-3.88 0.9,-0.88 c 1.16,-1.14 2.02,-1.58 3.38,-1.74 l 0,-0.72 -5.26,0 0,0.72 0.62,0 c 0.64,0 0.94,0.12 0.94,0.38 0,0.22 -0.14,0.46 -0.46,0.78 l -2.7,2.6 0,-9.9 -3.7,0.22 0,0.86 0.96,0 c 0.74,0 0.86,0.14 0.86,1 l 0,11 c 0,0.8 -0.02,0.94 -1.3,0.94 l -0.28,0 0,0.72 5.06,0 0,-0.72 -0.28,0 c -1.3,0 -1.32,-0.14 -1.32,-0.94 l 0,-1.94 1.22,-1.16 2.38,3.34 c 0.08,0.14 0.14,0.26 0.14,0.36 0,0.26 -0.22,0.34 -0.88,0.34 l -0.38,0 0,0.72 5.28,0 z" style="font-style:normal;font-variant:normal;font-weight:normal;font-stretch:normal;font-size:20px;font-family:'TeX Gyre Schola';-inkscape-font-specification:'TeX Gyre Schola';text-align:center;text-anchor:middle" id="path4444"/>
      <path inkscape:connector-curvature="0" d="m 162.15742,340.30755 -0.7,-0.38 c -0.82,1.54 -1.66,2.14 -3,2.14 -1.66,0 -2.78,-1.2 -2.78,-3.72 l 6.48,0 c 0,-3 -1.66,-5.12 -4.12,-5.12 -2.56,0 -4.48,2.22 -4.48,5.22 0,2.8 1.82,4.7 4.52,4.7 1.9,0 3.26,-0.94 4.08,-2.84 z m -2.14,-3.56 c 0,0.58 -0.18,0.74 -0.82,0.74 l -3.5,0 c 0,-2.14 1.08,-3.4 2.3,-3.4 1.22,0 2.02,1.06 2.02,2.66 z" style="font-style:normal;font-variant:normal;font-weight:normal;font-stretch:normal;font-size:20px;font-family:'TeX Gyre Schola';-inkscape-font-specification:'TeX Gyre Schola';text-align:center;text-anchor:middle" id="path4446"/>
      <path inkscape:connector-curvature="0" d="m 175.71742,342.84755 0,-0.72 -0.28,0 c -1.28,0 -1.3,-0.14 -1.3,-0.94 l 0,-3.94 c 0,-1.44 -0.06,-1.8 -0.42,-2.48 -0.5,-0.96 -1.52,-1.54 -2.7,-1.54 -1.28,0 -2.28,0.6 -3.16,1.92 l 0,-1.62 -3.46,0.22 0,0.86 0.72,0 c 0.74,0 0.86,0.14 0.86,1 l 0,5.58 c 0,0.8 -0.02,0.94 -1.3,0.94 l -0.28,0 0,0.72 5.06,0 0,-0.72 -0.28,0 c -1.3,0 -1.32,-0.14 -1.32,-0.94 l 0,-2.88 c 0,-0.98 0.14,-1.88 0.36,-2.34 0.42,-0.9 1.32,-1.52 2.18,-1.52 0.52,0 1.12,0.3 1.42,0.7 0.3,0.42 0.44,1.04 0.44,2 l 0,4.04 c 0,0.8 -0.02,0.94 -1.32,0.94 l -0.28,0 0,0.72 5.06,0 z" style="font-style:normal;font-variant:normal;font-weight:normal;font-stretch:normal;font-size:20px;font-family:'TeX Gyre Schola';-inkscape-font-specification:'TeX Gyre Schola';text-align:center;text-anchor:middle" id="path4448"/>
      <path inkscape:connector-curvature="0" d="m 188.16398,342.84755 0,-0.86 -0.36,0 c -1.08,0 -1.24,-0.2 -1.24,-1.46 l 0,-12.42 -3.92,0.22 0,0.86 1.18,0 c 0.72,0 0.86,0.14 0.86,1 l 0,4.52 c -0.74,-1.02 -1.6,-1.48 -2.76,-1.48 -2.26,0 -3.98,2.18 -3.98,5.06 0,2.84 1.66,4.86 3.98,4.86 1.26,0 2.12,-0.54 2.76,-1.74 l 0,1.58 3.48,-0.14 z m -3.5,-4.62 c 0,2.32 -0.92,3.84 -2.36,3.84 -1.4,0 -2.26,-1.32 -2.26,-3.54 0,-1.18 0.12,-2.08 0.38,-2.76 0.34,-0.88 1.08,-1.46 1.9,-1.46 0.82,0 1.6,0.6 1.96,1.52 0.24,0.6 0.38,1.44 0.38,2.4 z" style="font-style:normal;font-variant:normal;font-weight:normal;font-stretch:normal;font-size:20px;font-family:'TeX Gyre Schola';-inkscape-font-specification:'TeX Gyre Schola';text-align:center;text-anchor:middle" id="path4450"/>
    </g>
    <rect style="opacity:1;fill:none;fill-opacity:1;stroke:#000000;stroke-width:3;stroke-linecap:butt;stroke-linejoin:miter;stroke-miterlimit:4;stroke-dasharray:none;stroke-dashoffset:0;stroke-opacity:1" id="rect4175" width="165.66502" height="82.832512" x="516.45459" y="247.72495"/>
    <path style="fill:none;fill-rule:evenodd;stroke:#000000;stroke-width:2;stroke-linecap:butt;stroke-linejoin:miter;stroke-miterlimit:4;stroke-dasharray:none;stroke-opacity:1;marker-end:url(#marker6624)" d="m 143.98377,289.1412 103.40286,0" id="path4177" inkscape:connector-type="polyline" inkscape:connector-curvature="0"/>
    <path style="fill:none;fill-rule:evenodd;stroke:#000000;stroke-width:2;stroke-linecap:butt;stroke-linejoin:miter;stroke-miterlimit:4;stroke-dasharray:none;stroke-opacity:1;marker-end:url(#marker6578)" d="m 413.05165,289.1412 103.40291,0" id="path4179" inkscape:connector-type="polyline" inkscape:connector-curvature="0"/>
    <g transform="translate(897.06559,-30.683623)" style="font-style:normal;font-variant:normal;font-weight:normal;font-stretch:normal;font-size:20px;line-height:114.99999762%;font-family:'TeX Gyre Schola';-inkscape-font-specification:'TeX Gyre Schola';text-align:start;letter-spacing:1px;word-spacing:0px;text-anchor:start;fill:#000000;fill-opacity:1;stroke:none;stroke-width:1px;stroke-linecap:butt;stroke-linejoin:miter;stroke-opacity:1" id="flowRoot4587">
      <path inkscape:connector-curvature="0" d="m -36.897578,263.04482 0,-0.94 -0.38,0 c -1,0 -1.12,-0.16 -1.58,-1.28 l -5.1,-12.5 -0.84,0 -4.6,11.66 c -0.72,1.82 -1,2.12 -2,2.12 l -0.28,0 0,0.94 5.3,0 0,-0.94 -0.4,0 c -1.08,0 -1.62,-0.38 -1.62,-1.14 0,-0.24 0.06,-0.52 0.18,-0.84 l 0.66,-1.76 5.3,0 1.08,2.68 c 0.12,0.3 0.16,0.44 0.16,0.54 0,0.32 -0.5,0.52 -1.24,0.52 l -0.84,0 0,0.94 6.2,0 z m -5.78,-5.76 -4.48,0 2.22,-5.68 2.26,5.68 z" style="font-style:normal;font-variant:normal;font-weight:normal;font-stretch:normal;font-size:20px;font-family:'TeX Gyre Schola';-inkscape-font-specification:'TeX Gyre Schola';text-align:start;text-anchor:start" id="path4431"/>
      <path inkscape:connector-curvature="0" d="m -21.804453,259.84482 -0.84,0 c -0.08,1.38 -0.32,1.98 -0.86,1.98 -0.5,0 -0.66,-0.34 -1,-1.72 l -0.32,-1.26 c -0.46,-1.84 -1.2,-2.68 -2.78,-3.08 2.88,-0.4 4.26,-1.56 4.26,-3.58 0,-2.28 -1.92,-3.58 -5.28,-3.58 l -6.92,0 0,0.94 0.36,0 c 1.62,0 1.8,0.1 1.8,0.94 l 0,10.68 c 0,0.84 -0.18,0.94 -1.8,0.94 l -0.36,0 0,0.94 6.56,0 0,-0.94 -0.36,0 c -1.62,0 -1.8,-0.1 -1.8,-0.94 l 0,-5.12 1.16,0 c 1.78,0 2.8,0.72 3.04,3.1 l 0.1,1.02 c 0.22,2.26 1,3.18 2.56,3.18 1.64,0 2.42,-1.1 2.48,-3.5 z m -4,-7.64 c 0,2.12 -1.14,2.9 -3.14,2.9 l -2.2,0 0,-4.9 c 0,-0.6 0.1,-0.66 1.38,-0.66 l 1.08,0 c 1.98,0 2.88,0.84 2.88,2.66 z" style="font-style:normal;font-variant:normal;font-weight:normal;font-stretch:normal;font-size:20px;font-family:'TeX Gyre Schola';-inkscape-font-specification:'TeX Gyre Schola';text-align:start;text-anchor:start" id="path4433"/>
      <path inkscape:connector-curvature="0" d="m -2.3513281,263.04482 0,-0.94 -0.36,0 c -1.62,0 -1.8,-0.08 -1.8,-0.94 l 0,-10.68 c 0,-0.84 0.18,-0.94 1.8,-0.94 l 0.36,0 0,-0.94 -5.02,0 -3.6599999,10.66 -3.84,-10.66 -5.16,0 0,0.94 0.38,0 c 1.62,0 1.8,0.1 1.8,0.94 l 0,8.24 c 0,2.72 -0.4,3.3 -2.32,3.38 l 0,0.94 5.7,0 0,-0.94 c -1.9,-0.08 -2.3,-0.66 -2.3,-3.38 l 0,-8.84 4.76,13.16 0.8,0 4.4599999,-13.16 0,11.28 c 0,0.86 -0.18,0.94 -1.8,0.94 l -0.36,0 0,0.94 6.56,0 z" style="font-style:normal;font-variant:normal;font-weight:normal;font-stretch:normal;font-size:20px;font-family:'TeX Gyre Schola';-inkscape-font-specification:'TeX Gyre Schola';text-align:start;text-anchor:start" id="path4435"/>
    </g>
    <g transform="translate(897.06559,12.033057)" style="font-style:normal;font-variant:normal;font-weight:normal;font-stretch:normal;font-size:20px;line-height:114.99999762%;font-family:'TeX Gyre Schola';-inkscape-font-specification:'TeX Gyre Schola';text-align:start;letter-spacing:1px;word-spacing:0px;text-anchor:start;fill:#000000;fill-opacity:1;stroke:none;stroke-width:1px;stroke-linecap:butt;stroke-linejoin:miter;stroke-opacity:1" id="flowRoot4595">
      <path inkscape:connector-curvature="0" d="m -39.717578,258.94482 c 0,-1.24 -0.42,-2.3 -1.2,-3.06 -0.54,-0.52 -1.32,-0.86 -2.92,-1.26 l -2.14,-0.54 c -1.78,-0.46 -2.62,-1.24 -2.62,-2.46 0,-1.4 1.14,-2.36 2.84,-2.36 1.4,0 2.54,0.6 3.34,1.74 0.58,0.82 0.94,1.66 1.2,2.68 l 0.86,0 -0.24,-5.2 -0.74,0 -0.8,1.2 c -0.94,-0.9 -2.22,-1.38 -3.64,-1.38 -2.62,0 -4.38,1.68 -4.38,4.18 0,2.18 1.08,3.26 4.02,4.02 l 1.9,0.48 c 1.48,0.38 1.62,0.42 2.04,0.74 0.6,0.46 0.92,1.12 0.92,1.9 0,0.8 -0.3,1.46 -0.9,2 -0.66,0.58 -1.32,0.8 -2.42,0.8 -1.48,0 -2.54,-0.46 -3.48,-1.5 -0.84,-0.94 -1.26,-1.88 -1.56,-3.42 l -0.86,0 0.08,5.7 0.78,0 0.9,-1.36 c 1.34,1.1 2.46,1.5 4.2,1.5 2.94,0 4.82,-1.72 4.82,-4.4 z" style="font-style:normal;font-variant:normal;font-weight:normal;font-stretch:normal;font-size:20px;font-family:'TeX Gyre Schola';-inkscape-font-specification:'TeX Gyre Schola';text-align:start;text-anchor:start" id="path4420"/>
      <path inkscape:connector-curvature="0" d="m -27.200391,258.34482 c 0,-2.76 -1.72,-4.92 -3.92,-4.92 -1.24,0 -2.06,0.52 -2.76,1.72 l 0,-1.42 -3.46,0.22 0,0.86 0.72,0 c 0.74,0 0.86,0.14 0.86,1 l 0,9.62 c 0,0.8 -0.02,0.94 -1.3,0.94 l -0.28,0 0,0.72 5.2,0 0,-0.72 -0.28,0 c -1.3,0 -1.46,-0.14 -1.46,-0.94 l 0,-3.7 c 0.66,1.16 1.42,1.62 2.64,1.62 2.32,0 4.04,-2.14 4.04,-5 z m -2.1,-0.12 c 0,2.58 -0.82,4.04 -2.24,4.04 -1.42,0 -2.36,-1.48 -2.36,-3.78 0,-2.48 0.9,-3.98 2.42,-3.98 1.38,0 2.18,1.38 2.18,3.72 z" style="font-style:normal;font-variant:normal;font-weight:normal;font-stretch:normal;font-size:20px;font-family:'TeX Gyre Schola';-inkscape-font-specification:'TeX Gyre Schola';text-align:start;text-anchor:start" id="path4422"/>
      <path inkscape:connector-curvature="0" d="m -14.556016,262.02482 c 0,-0.14 -0.1,-0.24 -0.2,-0.24 -0.28,0 -0.74,0.22 -0.86,0.22 -0.56,0 -0.76,-0.38 -0.76,-1.38 l 0,-4.02 c 0,-2.56 -1.42,-3.18 -3.72,-3.18 -2.24,0 -3.9,1.06 -3.9,2.5 0,0.76 0.46,1.24 1.16,1.24 0.62,0 1.08,-0.42 1.08,-1.02 0,-0.36 -0.44,-0.98 -0.44,-1.08 0,-0.42 0.82,-0.78 1.78,-0.78 1.34,0 2.16,0.44 2.16,2.2 l 0,0.78 c -4.66,0.8 -6.28,1.78 -6.28,3.74 0,1.42 1.14,2.34 2.9,2.34 1.38,0 2.62,-0.56 3.48,-1.58 0.32,1.02 0.82,1.42 1.76,1.42 0.9,0 1.84,-0.58 1.84,-1.16 z m -3.7,-2.98 c 0,1.2 -0.06,1.48 -0.4,2 -0.5,0.74 -1.42,1.24 -2.28,1.24 -0.9,0 -1.58,-0.66 -1.58,-1.56 0,-1.42 0.8,-2.02 4.26,-2.6 l 0,0.92 z" style="font-style:normal;font-variant:normal;font-weight:normal;font-stretch:normal;font-size:20px;font-family:'TeX Gyre Schola';-inkscape-font-specification:'TeX Gyre Schola';text-align:start;text-anchor:start" id="path4424"/>
      <path inkscape:connector-curvature="0" d="m -4.5832031,255.02482 c 0,-0.96 -0.68,-1.6 -1.74,-1.6 -1.26,0 -2.36,1.02 -3,2.78 l 0,-2.48 -3.5399999,0.22 0,0.86 0.82,0 c 0.74,0 0.86,0.14 0.86,1 l 0,5.58 c 0,0.8 -0.02,0.94 -1.32,0.94 l -0.28,0 0,0.72 5.3399999,0 0,-0.72 -0.38,0 c -1.28,0 -1.5,-0.14 -1.5,-0.94 l 0,-1 c 0,-1.5 0.28,-3.02 0.78,-4.16 0.48,-1.12 1.16,-1.74 2,-1.84 -0.28,0.32 -0.36,0.52 -0.36,0.9 0,0.64 0.46,1.1 1.1,1.1 0.72,0 1.22,-0.54 1.22,-1.36 z" style="font-style:normal;font-variant:normal;font-weight:normal;font-stretch:normal;font-size:20px;font-family:'TeX Gyre Schola';-inkscape-font-specification:'TeX Gyre Schola';text-align:start;text-anchor:start" id="path4426"/>
      <path inkscape:connector-curvature="0" d="m 5.1039844,260.40482 -0.78,-0.3 c -0.64,1.44 -1.32,2.02 -2.36,2.02 -1.60000002,0 -2.60000002,-1.46 -2.60000002,-3.8 0,-2.42 0.97999999,-4.04 2.46000002,-4.04 0.6,0 1.12,0.28 1.12,0.6 0,0.06 -0.04,0.12 -0.12,0.24 -0.32,0.38 -0.4,0.58 -0.4,0.92 0,0.66 0.5,1.12 1.2,1.12 0.7,0 1.22,-0.56 1.22,-1.36 0,-1.34 -1.34,-2.38 -3.12,-2.38 -2.60000002,0 -4.46,2.14 -4.46,5.12 0,2.84 1.7,4.8 4.18,4.8 1.78,0 2.8,-0.82 3.66,-2.94 z" style="font-style:normal;font-variant:normal;font-weight:normal;font-stretch:normal;font-size:20px;font-family:'TeX Gyre Schola';-inkscape-font-specification:'TeX Gyre Schola';text-align:start;text-anchor:start" id="path4428"/>
    </g>
    <g transform="translate(897.06559,54.749727)" style="font-style:normal;font-variant:normal;font-weight:normal;font-stretch:normal;font-size:20px;line-height:114.99999762%;font-family:'TeX Gyre Schola';-inkscape-font-specification:'TeX Gyre Schola';text-align:start;letter-spacing:1px;word-spacing:0px;text-anchor:start;fill:#000000;fill-opacity:1;stroke:none;stroke-width:1px;stroke-linecap:butt;stroke-linejoin:miter;stroke-opacity:1" id="flowRoot4603">
      <path inkscape:connector-curvature="0" d="m -40.937578,263.04482 0,-0.72 -0.28,0 c -0.7,0 -1.08,-0.28 -1.6,-0.98 l -2.52,-3.4 2.28,-2.66 c 0.48,-0.56 0.86,-0.84 1.38,-0.84 l 0.3,0 0,-0.72 -4.14,0 0,0.72 0.38,0 c 0.6,0 0.9,0.16 0.9,0.44 0,0.2 -0.14,0.5 -0.4,0.82 l -1.26,1.5 -1.54,-1.96 c -0.12,-0.14 -0.2,-0.32 -0.2,-0.44 0,-0.26 0.22,-0.36 0.84,-0.36 l 0.32,0 0,-0.72 -4.74,0 0,0.72 c 0.74,0.06 1,0.24 1.66,1.08 l 2.44,3.08 -2.3,2.68 c -0.56,0.66 -1.02,1.04 -1.6,1.04 l -0.32,0 0,0.72 4.22,0 0,-0.72 -0.3,0 c -0.86,0 -0.98,-0.2 -0.98,-0.54 0,-0.14 0.06,-0.32 0.16,-0.42 l 1.68,-2.02 1.52,2.02 c 0.14,0.2 0.26,0.46 0.26,0.6 0,0.26 -0.18,0.36 -0.94,0.36 l -0.26,0 0,0.72 5.04,0 z" style="font-style:normal;font-variant:normal;font-weight:normal;font-stretch:normal;font-size:20px;font-family:'TeX Gyre Schola';-inkscape-font-specification:'TeX Gyre Schola';text-align:start;text-anchor:start" id="path4407"/>
      <path inkscape:connector-curvature="0" d="m -29.515391,259.02482 c 0,-1.74 -0.84,-2.9 -2.78,-3.78 1.5,-0.82 2.2,-1.8 2.2,-3.1 0,-1.84 -1.68,-3.18 -3.98,-3.18 -2.44,0 -4.22,1.62 -4.22,3.82 0,1.46 0.64,2.52 2.26,3.38 -2.06,0.8 -2.92,1.86 -2.92,3.52 0,2.18 1.74,3.66 4.52,3.66 3.08,0 4.92,-1.8 4.92,-4.32 z m -2.06,-6.76 c 0,1.04 -0.4,1.72 -1.54,2.68 l -1.32,-0.48 c -1.62,-0.58 -2.32,-1.36 -2.32,-2.52 0,-1.26 1.04,-2.12 2.62,-2.12 1.54,0 2.56,0.98 2.56,2.44 z m 0.46,7.6 c 0,1.6 -1.26,2.62 -3.22,2.62 -1.86,0 -2.96,-1.04 -2.96,-2.8 0,-1.5 0.62,-2.4 2.18,-3.12 l 1.84,0.66 c 1.52,0.54 2.16,1.32 2.16,2.64 z" style="font-style:normal;font-variant:normal;font-weight:normal;font-stretch:normal;font-size:20px;font-family:'TeX Gyre Schola';-inkscape-font-specification:'TeX Gyre Schola';text-align:start;text-anchor:start" id="path4409"/>
      <path inkscape:connector-curvature="0" d="m -17.322578,258.56482 c 0,-2.36 -1.7,-4.12 -3.96,-4.12 -1.36,0 -2.36,0.54 -3.3,1.8 0.2,-2.5 0.3,-3.14 0.74,-4.18 0.58,-1.42 1.62,-2.24 2.9,-2.24 0.7,0 1.12,0.22 1.12,0.58 0,0.08 -0.02,0.14 -0.1,0.28 -0.2,0.38 -0.3,0.66 -0.3,0.94 0,0.68 0.52,1.18 1.22,1.18 0.76,0 1.32,-0.6 1.32,-1.44 0,-1.38 -1.4,-2.4 -3.28,-2.4 -3.74,0 -5.84,3.82 -5.84,7.92 0,3.9 1.92,6.46 4.88,6.46 2.66,0 4.6,-2.2 4.6,-4.78 z m -2.18,0.14 c 0,2.3 -0.92,3.78 -2.38,3.78 -1.42,0 -2.56,-1.52 -2.56,-3.5 0,-2.06 1,-3.32 2.62,-3.32 1.44,0 2.32,1.14 2.32,3.04 z" style="font-style:normal;font-variant:normal;font-weight:normal;font-stretch:normal;font-size:20px;font-family:'TeX Gyre Schola';-inkscape-font-specification:'TeX Gyre Schola';text-align:start;text-anchor:start" id="path4411"/>
      <path inkscape:connector-curvature="0" d="m -5.5097656,265.72482 0,-1.22 -10.0000004,0 0,1.22 10.0000004,0 z" style="font-style:normal;font-variant:normal;font-weight:normal;font-stretch:normal;font-size:20px;font-family:'TeX Gyre Schola';-inkscape-font-specification:'TeX Gyre Schola';text-align:start;text-anchor:start" id="path4413"/>
      <path inkscape:connector-curvature="0" d="m 5.4502344,259.28482 c 0,-1.88 -0.98,-3.02 -3.04,-3.6 1.68,-0.6 2.66,-1.64 2.66,-3.28 0,-2.08 -1.6,-3.44 -4.08000002,-3.44 -2.33999998,0 -4.11999998,1.38 -4.11999998,3.2 0,0.82 0.56,1.4 1.32,1.4 0.7,0 1.17999997,-0.48 1.17999997,-1.2 0,-0.42 -0.16,-0.7 -0.61999997,-1.02 -0.2,-0.14 -0.26,-0.24 -0.26,-0.36 0,-0.56 1.17999997,-1.16 2.29999998,-1.16 1.44000002,0 2.20000002,0.9 2.20000002,2.6 0,1.86 -0.76,2.84 -2.20000002,2.84 -0.28000001,0 -0.9,-0.06 -1.24,-0.06 -0.42000001,0 -0.63999998,0.18 -0.63999998,0.54 0,0.34 0.21999997,0.5 0.61999997,0.5 1.18000001,0 1.26000001,-0.04 1.42000001,-0.04 1.48000002,0 2.28000002,1.06 2.28000002,3.04 0,2.06 -1.02,3.24 -2.80000003,3.24 -1.26,0 -2.61999997,-0.68 -2.61999997,-1.3 0,-0.18 0.04,-0.2 0.44,-0.44 0.56,-0.32 0.77999998,-0.68 0.77999998,-1.18 0,-0.72 -0.53999998,-1.26 -1.27999998,-1.26 -0.84,0 -1.42,0.72 -1.42,1.76 0,1.94 1.78,3.28 4.33999997,3.28 2.88000003,0 4.78000003,-1.6 4.78000003,-4.06 z" style="font-style:normal;font-variant:normal;font-weight:normal;font-stretch:normal;font-size:20px;font-family:'TeX Gyre Schola';-inkscape-font-specification:'TeX Gyre Schola';text-align:start;text-anchor:start" id="path4415"/>
      <path inkscape:connector-curvature="0" d="m 17.723047,258.72482 -0.88,0 -0.2,1.02 c -0.26,1.28 -0.42,1.42 -1.66,1.42 l -4.48,0 c 1.38,-1.44 1.84,-1.86 3.12,-2.86 1.8,-1.4 2.62,-2.1 3.06,-2.7 0.64,-0.86 0.96,-1.78 0.96,-2.74 0,-2.26 -1.9,-3.9 -4.5,-3.9 -2.54,0 -4.5000001,1.64 -4.5000001,3.76 0,1.26 0.64,2.12 1.6000001,2.12 0.74,0 1.24,-0.5 1.24,-1.22 0,-0.5 -0.28,-0.96 -0.72,-1.14 -0.74,-0.32 -0.7800001,-0.34 -0.7800001,-0.6 0,-1.02 1.2600001,-2.06 2.7600001,-2.06 1.64,0 2.64,1.02 2.64,2.7 0,1.48 -0.7,2.82 -2.36,4.58 l -2.74,2.92 c -0.7200001,0.84 -1.0800001,1.3 -1.9600001,2.46 l 0,0.56 9.0200001,0 0.38,-4.32 z" style="font-style:normal;font-variant:normal;font-weight:normal;font-stretch:normal;font-size:20px;font-family:'TeX Gyre Schola';-inkscape-font-specification:'TeX Gyre Schola';text-align:start;text-anchor:start" id="path4417"/>
    </g>
    <g transform="translate(897.06559,97.316377)" style="font-style:normal;font-variant:normal;font-weight:normal;font-stretch:normal;font-size:20px;line-height:114.99999762%;font-family:'TeX Gyre Schola';-inkscape-font-specification:'TeX Gyre Schola';text-align:start;letter-spacing:1px;word-spacing:0px;text-anchor:start;fill:#000000;fill-opacity:1;stroke:none;stroke-width:1px;stroke-linecap:butt;stroke-linejoin:miter;stroke-opacity:1" id="flowRoot4611">
      <path inkscape:connector-curvature="0" d="m -38.537578,252.56482 c 0,-2.48 -1.74,-3.96 -5.42,-3.96 l -7,0 0,0.94 0.36,0 c 1.62,0 1.8,0.1 1.8,0.94 l 0,10.68 c 0,0.84 -0.18,0.94 -1.8,0.94 l -0.36,0 0,0.94 6.72,0 0,-0.94 -0.52,0 c -1.62,0 -1.8,-0.1 -1.8,-0.94 l 0,-4.54 2.26,0 c 1.8,0 2.74,-0.14 3.54,-0.52 1.42,-0.68 2.22,-1.96 2.22,-3.54 z m -2.46,0.08 c 0,2.06 -1.02,3.04 -3.14,3.04 l -2.42,0 0,-5.12 c 0,-0.92 0.12,-1.02 1.22,-1.02 l 1.28,0 c 2.08,0 3.06,0.98 3.06,3.1 z" style="font-style:normal;font-variant:normal;font-weight:normal;font-stretch:normal;font-size:20px;font-family:'TeX Gyre Schola';-inkscape-font-specification:'TeX Gyre Schola';text-align:start;text-anchor:start" id="path4392"/>
      <path inkscape:connector-curvature="0" d="m -28.346016,258.38482 c 0,-2.74 -1.92,-4.96 -4.28,-4.96 -2.44,0 -4.36,2.18 -4.36,4.98 0,2.74 1.92,4.94 4.32,4.94 2.4,0 4.32,-2.2 4.32,-4.96 z m -2.1,0 c 0,2.66 -0.78,4.1 -2.22,4.1 -1.44,0 -2.22,-1.44 -2.22,-4.08 0,-2.72 0.76,-4.12 2.26,-4.12 1.4,0 2.18,1.46 2.18,4.1 z" style="font-style:normal;font-variant:normal;font-weight:normal;font-stretch:normal;font-size:20px;font-family:'TeX Gyre Schola';-inkscape-font-specification:'TeX Gyre Schola';text-align:start;text-anchor:start" id="path4394"/>
      <path inkscape:connector-curvature="0" d="m -11.913828,254.44482 0,-0.72 -3.78,0 0,0.72 0.34,0 c 0.7,0 0.98,0.22 0.98,0.72 0,0.2 -0.08,0.5 -0.16,0.74 l -1.7,4.56 -1.96,-5.14 c -0.06,-0.14 -0.08,-0.24 -0.08,-0.42 0,-0.36 0.18,-0.46 0.84,-0.46 l 0.48,0 0,-0.72 -4.48,0 0,0.72 0.34,0 c 0.64,0 0.84,0.16 1.04,0.74 l 0.18,0.52 -1.76,4.66 -1.94,-5.02 c -0.04,-0.14 -0.08,-0.32 -0.08,-0.44 0,-0.34 0.22,-0.46 0.82,-0.46 l 0.36,0 0,-0.72 -4.4,0 0,0.72 0.36,0 c 0.56,0 0.76,0.18 1.04,0.98 l 3,7.92 0.7,0 2.38,-6.32 2.44,6.32 0.62,0 2.8,-7.38 c 0.44,-1.18 0.66,-1.52 1.36,-1.52 l 0.26,0 z" style="font-style:normal;font-variant:normal;font-weight:normal;font-stretch:normal;font-size:20px;font-family:'TeX Gyre Schola';-inkscape-font-specification:'TeX Gyre Schola';text-align:start;text-anchor:start" id="path4396"/>
      <path inkscape:connector-curvature="0" d="m -1.9128906,260.50482 -0.7,-0.38 c -0.82,1.54 -1.66,2.14 -3,2.14 -1.66,0 -2.78,-1.2 -2.78,-3.72 l 6.48,0 c 0,-3 -1.66,-5.12 -4.12,-5.12 -2.56,0 -4.4800004,2.22 -4.4800004,5.22 0,2.8 1.8200004,4.7 4.5200004,4.7 1.9,0 3.26,-0.94 4.08,-2.84 z m -2.14,-3.56 c 0,0.58 -0.18,0.74 -0.82,0.74 l -3.5,0 c 0,-2.14 1.08,-3.4 2.3,-3.4 1.22,0 2.02,1.06 2.02,2.66 z" style="font-style:normal;font-variant:normal;font-weight:normal;font-stretch:normal;font-size:20px;font-family:'TeX Gyre Schola';-inkscape-font-specification:'TeX Gyre Schola';text-align:start;text-anchor:start" id="path4398"/>
      <path inkscape:connector-curvature="0" d="m 8.4871094,255.02482 c 0,-0.96 -0.68,-1.6 -1.74,-1.6 -1.26,0 -2.36,1.02 -3,2.78 l 0,-2.48 -3.54000002,0.22 0,0.86 0.82000002,0 c 0.74,0 0.86,0.14 0.86,1 l 0,5.58 c 0,0.8 -0.02,0.94 -1.32000003,0.94 l -0.27999999,0 0,0.72 5.34000002,0 0,-0.72 -0.38,0 c -1.28,0 -1.5,-0.14 -1.5,-0.94 l 0,-1 c 0,-1.5 0.28,-3.02 0.78,-4.16 0.48,-1.12 1.16,-1.74 2,-1.84 -0.28,0.32 -0.36,0.52 -0.36,0.9 0,0.64 0.46,1.1 1.1,1.1 0.72,0 1.22,-0.54 1.22,-1.36 z" style="font-style:normal;font-variant:normal;font-weight:normal;font-stretch:normal;font-size:20px;font-family:'TeX Gyre Schola';-inkscape-font-specification:'TeX Gyre Schola';text-align:start;text-anchor:start" id="path4400"/>
      <path inkscape:connector-curvature="0" d="m 22.634297,252.56482 c 0,-2.48 -1.74,-3.96 -5.42,-3.96 l -7,0 0,0.94 0.36,0 c 1.62,0 1.8,0.1 1.8,0.94 l 0,10.68 c 0,0.84 -0.18,0.94 -1.8,0.94 l -0.36,0 0,0.94 6.72,0 0,-0.94 -0.52,0 c -1.62,0 -1.8,-0.1 -1.8,-0.94 l 0,-4.54 2.26,0 c 1.8,0 2.74,-0.14 3.54,-0.52 1.42,-0.68 2.22,-1.96 2.22,-3.54 z m -2.46,0.08 c 0,2.06 -1.02,3.04 -3.14,3.04 l -2.42,0 0,-5.12 c 0,-0.92 0.12,-1.02 1.22,-1.02 l 1.28,0 c 2.08,0 3.06,0.98 3.06,3.1 z" style="font-style:normal;font-variant:normal;font-weight:normal;font-stretch:normal;font-size:20px;font-family:'TeX Gyre Schola';-inkscape-font-specification:'TeX Gyre Schola';text-align:start;text-anchor:start" id="path4402"/>
      <path inkscape:connector-curvature="0" d="m 37.373672,258.10482 -0.94,-0.16 c -0.58,3.1 -2.16,4.46 -4.52,4.46 -2.96,0 -4.36,-2.06 -4.36,-6.36 0,-4.36 1.34,-6.8 4.12,-6.8 1.4,0 2.64,0.74 3.4,2.02 0.38,0.66 0.68,1.44 1.14,2.98 l 0.88,0 0,-5.78 -1.06,0 -0.8,1.18 c -1.42,-1.04 -2.2,-1.34 -3.54,-1.34 -3.68,0 -6.78,3.48 -6.78,7.66 0,4.3 2.82,7.38 6.76,7.38 3.2,0 5.24,-1.88 5.7,-5.24 z" style="font-style:normal;font-variant:normal;font-weight:normal;font-stretch:normal;font-size:20px;font-family:'TeX Gyre Schola';-inkscape-font-specification:'TeX Gyre Schola';text-align:start;text-anchor:start" id="path4404"/>
    </g>
    <path style="fill:none;fill-rule:evenodd;stroke:#000000;stroke-width:1px;stroke-linecap:butt;stroke-linejoin:miter;stroke-opacity:1;marker-end:url(#marker4935)" d="m -184.54341,231.69961 162.862159,38.07596" id="path4837" inkscape:connector-type="polyline" inkscape:connector-curvature="0"/>
    <path style="fill:none;fill-rule:evenodd;stroke:#000000;stroke-width:1px;stroke-linecap:butt;stroke-linejoin:miter;stroke-opacity:1;marker-end:url(#marker6798)" d="M -184.90055,273.48532 -21.681251,283.8707" id="path4879" inkscape:connector-type="polyline" inkscape:connector-curvature="0"/>
    <path style="fill:none;fill-rule:evenodd;stroke:#000000;stroke-width:1px;stroke-linecap:butt;stroke-linejoin:miter;stroke-opacity:1;marker-end:url(#marker6734)" d="M -184.54341,317.05675 -21.681251,298.55254" id="path4927" inkscape:connector-type="polyline" inkscape:connector-curvature="0"/>
    <path style="fill:none;fill-rule:evenodd;stroke:#000000;stroke-width:1px;stroke-linecap:butt;stroke-linejoin:miter;stroke-opacity:1;marker-end:url(#marker6676)" d="M -183.79758,359.52359 -21.681251,312.94188" id="path5149" inkscape:connector-type="polyline" inkscape:connector-curvature="0"/>
    <path style="fill:none;fill-rule:evenodd;stroke:#000000;stroke-width:1px;stroke-linecap:butt;stroke-linejoin:miter;stroke-opacity:1;marker-end:url(#marker6538)" d="M 682.11958,268.21319 838.47679,228.70884" id="path5179" inkscape:connector-type="polyline" inkscape:connector-curvature="0"/>
    <path style="fill:none;fill-rule:evenodd;stroke:#000000;stroke-width:1px;stroke-linecap:butt;stroke-linejoin:miter;stroke-opacity:1;marker-end:url(#marker6504)" d="M 682.11958,282.29278 841.50729,269.11494" id="path5245" inkscape:connector-type="polyline" inkscape:connector-curvature="0"/>
    <path style="fill:none;fill-rule:evenodd;stroke:#000000;stroke-width:1px;stroke-linecap:butt;stroke-linejoin:miter;stroke-opacity:1;marker-end:url(#marker6476)" d="m 682.11958,296.1251 158.88261,13.39594" id="path5317" inkscape:connector-type="polyline" inkscape:connector-curvature="0"/>
    <path style="fill:none;fill-rule:evenodd;stroke:#000000;stroke-width:1px;stroke-linecap:butt;stroke-linejoin:miter;stroke-opacity:1;marker-end:url(#marker6868)" d="m 682.11958,311.06621 156.35721,41.38631" id="path5395" inkscape:connector-type="polyline" inkscape:connector-curvature="0"/>
    <flowRoot xml:space="preserve" id="flowRoot5661" style="font-style:normal;font-weight:normal;font-size:15px;line-height:114.99999762%;font-family:sans-serif;letter-spacing:1px;word-spacing:0px;fill:#000000;fill-opacity:1;stroke:none;stroke-width:1px;stroke-linecap:butt;stroke-linejoin:miter;stroke-opacity:1" transform="translate(-934.75817,-234.95473)"><flowRegion id="flowRegion5663"><rect id="rect5665" width="155.56349" height="340.42142" x="-45.456863" y="-65.906113"/></flowRegion><flowPara id="flowPara5667"/></flowRoot>    <g transform="translate(-208.55321,199.98272)" style="font-style:normal;font-weight:normal;font-size:15px;line-height:114.99999762%;font-family:sans-serif;letter-spacing:1px;word-spacing:0px;fill:#000000;fill-opacity:1;stroke:none;stroke-width:1px;stroke-linecap:butt;stroke-linejoin:miter;stroke-opacity:1" id="flowRoot4752">
      <path inkscape:connector-curvature="0" d="m 22.645156,27.516928 -0.94,-0.16 c -0.58,3.1 -2.16,4.46 -4.52,4.46 -2.96,0 -4.36,-2.06 -4.36,-6.36 0,-4.36 1.34,-6.8 4.12,-6.8 1.4,0 2.64,0.74 3.4,2.02 0.38,0.66 0.68,1.44 1.14,2.98 l 0.88,0 0,-5.78 -1.06,0 -0.8,1.18 c -1.42,-1.04 -2.2,-1.34 -3.54,-1.34 -3.68,0 -6.78,3.48 -6.78,7.66 0,4.3 2.82,7.38 6.76,7.38 3.2,0 5.24,-1.88 5.7,-5.24 z" style="font-style:normal;font-variant:normal;font-weight:normal;font-stretch:normal;font-size:20px;font-family:'TeX Gyre Schola';-inkscape-font-specification:'TeX Gyre Schola'" id="path5030"/>
    </g>
    <g transform="translate(-235.07571,243.30183)" style="font-style:normal;font-weight:normal;font-size:15px;line-height:114.99999762%;font-family:sans-serif;letter-spacing:1px;word-spacing:0px;fill:#000000;fill-opacity:1;stroke:none;stroke-width:1px;stroke-linecap:butt;stroke-linejoin:miter;stroke-opacity:1" id="flowRoot4814">
      <path inkscape:connector-curvature="0" d="m 22.645156,27.516928 -0.94,-0.16 c -0.58,3.1 -2.16,4.46 -4.52,4.46 -2.96,0 -4.36,-2.06 -4.36,-6.36 0,-4.36 1.34,-6.8 4.12,-6.8 1.4,0 2.64,0.74 3.4,2.02 0.38,0.66 0.68,1.44 1.14,2.98 l 0.88,0 0,-5.78 -1.06,0 -0.8,1.18 c -1.42,-1.04 -2.2,-1.34 -3.54,-1.34 -3.68,0 -6.78,3.48 -6.78,7.66 0,4.3 2.82,7.38 6.76,7.38 3.2,0 5.24,-1.88 5.7,-5.24 z" style="font-style:normal;font-variant:normal;font-weight:normal;font-stretch:normal;font-size:20px;font-family:'TeX Gyre Schola';-inkscape-font-specification:'TeX Gyre Schola'" id="path5023"/>
      <path inkscape:connector-curvature="0" d="m 36.058281,28.256928 0,-1.6 -4.46,0 0,-4.46 -1.6,0 0,4.46 -4.46,0 0,1.6 4.46,0 0,4.46 1.6,0 0,-4.46 4.46,0 z" style="font-style:normal;font-variant:normal;font-weight:normal;font-stretch:normal;font-size:20px;font-family:'TeX Gyre Schola';-inkscape-font-specification:'TeX Gyre Schola'" id="path5025"/>
      <path inkscape:connector-curvature="0" d="m 49.167656,28.256928 0,-1.6 -4.46,0 0,-4.46 -1.6,0 0,4.46 -4.46,0 0,1.6 4.46,0 0,4.46 1.6,0 0,-4.46 4.46,0 z" style="font-style:normal;font-variant:normal;font-weight:normal;font-stretch:normal;font-size:20px;font-family:'TeX Gyre Schola';-inkscape-font-specification:'TeX Gyre Schola'" id="path5027"/>
    </g>
    <g transform="translate(-233.87352,288.31973)" style="font-style:normal;font-weight:normal;font-size:15px;line-height:114.99999762%;font-family:sans-serif;letter-spacing:1px;word-spacing:0px;fill:#000000;fill-opacity:1;stroke:none;stroke-width:1px;stroke-linecap:butt;stroke-linejoin:miter;stroke-opacity:1" id="flowRoot4822">
      <path inkscape:connector-curvature="0" d="m 23.905156,32.456928 0,-0.94 -0.38,0 c -1,0 -1.12,-0.16 -1.58,-1.28 l -5.1,-12.5 -0.84,0 -4.6,11.66 c -0.72,1.82 -1,2.12 -1.9999998,2.12 l -0.2799999,0 0,0.94 5.2999997,0 0,-0.94 -0.4,0 c -1.08,0 -1.62,-0.38 -1.62,-1.14 0,-0.24 0.06,-0.52 0.18,-0.84 l 0.66,-1.76 5.3,0 1.08,2.68 c 0.12,0.3 0.16,0.44 0.16,0.54 0,0.32 -0.5,0.52 -1.24,0.52 l -0.84,0 0,0.94 6.2,0 z m -5.78,-5.76 -4.48,0 2.22,-5.68 2.26,5.68 z" style="font-style:normal;font-variant:normal;font-weight:normal;font-stretch:normal;font-size:20px;font-family:'TeX Gyre Schola';-inkscape-font-specification:'TeX Gyre Schola'" id="path5016"/>
      <path inkscape:connector-curvature="0" d="m 35.701094,32.456928 0,-0.86 -0.36,0 c -1.08,0 -1.24,-0.2 -1.24,-1.46 l 0,-12.42 -3.92,0.22 0,0.86 1.18,0 c 0.72,0 0.86,0.14 0.86,1 l 0,4.52 c -0.74,-1.02 -1.6,-1.48 -2.76,-1.48 -2.26,0 -3.98,2.18 -3.98,5.06 0,2.84 1.66,4.86 3.98,4.86 1.26,0 2.12,-0.54 2.76,-1.74 l 0,1.58 3.48,-0.14 z m -3.5,-4.62 c 0,2.32 -0.92,3.84 -2.36,3.84 -1.4,0 -2.26,-1.32 -2.26,-3.54 0,-1.18 0.12,-2.08 0.38,-2.76 0.34,-0.88 1.08,-1.46 1.9,-1.46 0.82,0 1.6,0.6 1.96,1.52 0.24,0.6 0.38,1.44 0.38,2.4 z" style="font-style:normal;font-variant:normal;font-weight:normal;font-stretch:normal;font-size:20px;font-family:'TeX Gyre Schola';-inkscape-font-specification:'TeX Gyre Schola'" id="path5018"/>
      <path inkscape:connector-curvature="0" d="m 47.965469,31.436928 c 0,-0.14 -0.1,-0.24 -0.2,-0.24 -0.28,0 -0.74,0.22 -0.86,0.22 -0.56,0 -0.76,-0.38 -0.76,-1.38 l 0,-4.02 c 0,-2.56 -1.42,-3.18 -3.72,-3.18 -2.24,0 -3.9,1.06 -3.9,2.5 0,0.76 0.46,1.24 1.16,1.24 0.62,0 1.08,-0.42 1.08,-1.02 0,-0.36 -0.44,-0.98 -0.44,-1.08 0,-0.42 0.82,-0.78 1.78,-0.78 1.34,0 2.16,0.44 2.16,2.2 l 0,0.78 c -4.66,0.8 -6.28,1.78 -6.28,3.74 0,1.42 1.14,2.34 2.9,2.34 1.38,0 2.62,-0.56 3.48,-1.58 0.32,1.02 0.82,1.42 1.76,1.42 0.9,0 1.84,-0.58 1.84,-1.16 z m -3.7,-2.98 c 0,1.2 -0.06,1.48 -0.4,2 -0.5,0.74 -1.42,1.24 -2.28,1.24 -0.9,0 -1.58,-0.66 -1.58,-1.56 0,-1.42 0.8,-2.02 4.26,-2.6 l 0,0.92 z" style="font-style:normal;font-variant:normal;font-weight:normal;font-stretch:normal;font-size:20px;font-family:'TeX Gyre Schola';-inkscape-font-specification:'TeX Gyre Schola'" id="path5020"/>
    </g>
    <g transform="translate(-240.96727,328.612)" style="font-style:normal;font-weight:normal;font-size:15px;line-height:114.99999762%;font-family:sans-serif;letter-spacing:1px;word-spacing:0px;fill:#000000;fill-opacity:1;stroke:none;stroke-width:1px;stroke-linecap:butt;stroke-linejoin:miter;stroke-opacity:1" id="flowRoot4830">
      <path inkscape:connector-curvature="0" d="m 20.025156,18.956928 0,-0.94 -6.56,0 0,0.94 0.38,0 c 1.6,0 1.78,0.1 1.78,0.94 l 0,7.02 c 0,1.76 -0.06,2.56 -0.26,3.16 -0.38,1.14 -1.2,1.74 -2.36,1.74 -1.32,0 -2.42,-0.88 -2.42,-1.8 0,-0.18 0.1,-0.32 0.24,-0.32 l 0.06,0 c 0.34,0.08 0.52,0.1 0.74,0.1 0.72,0 1.26,-0.62 1.26,-1.44 0,-0.84 -0.62,-1.44 -1.5,-1.44 -1.16,0 -1.9999997,1.02 -1.9999997,2.44 0,1.92 1.3999997,3.4 3.9799997,3.4 3.02,0 4.48,-1.26 4.48,-5.66 l 0,-7.2 c 0,-0.84 0.18,-0.94 1.8,-0.94 l 0.38,0 z" style="font-style:normal;font-variant:normal;font-weight:normal;font-stretch:normal;font-size:20px;font-family:'TeX Gyre Schola';-inkscape-font-specification:'TeX Gyre Schola'" id="path5007"/>
      <path inkscape:connector-curvature="0" d="m 32.277969,31.436928 c 0,-0.14 -0.1,-0.24 -0.2,-0.24 -0.28,0 -0.74,0.22 -0.86,0.22 -0.56,0 -0.76,-0.38 -0.76,-1.38 l 0,-4.02 c 0,-2.56 -1.42,-3.18 -3.72,-3.18 -2.24,0 -3.9,1.06 -3.9,2.5 0,0.76 0.46,1.24 1.16,1.24 0.62,0 1.08,-0.42 1.08,-1.02 0,-0.36 -0.44,-0.98 -0.44,-1.08 0,-0.42 0.82,-0.78 1.78,-0.78 1.34,0 2.16,0.44 2.16,2.2 l 0,0.78 c -4.66,0.8 -6.28,1.78 -6.28,3.74 0,1.42 1.14,2.34 2.9,2.34 1.38,0 2.62,-0.56 3.48,-1.58 0.32,1.02 0.82,1.42 1.76,1.42 0.9,0 1.84,-0.58 1.84,-1.16 z m -3.7,-2.98 c 0,1.2 -0.06,1.48 -0.4,2 -0.5,0.74 -1.42,1.24 -2.28,1.24 -0.9,0 -1.58,-0.66 -1.58,-1.56 0,-1.42 0.8,-2.02 4.26,-2.6 l 0,0.92 z" style="font-style:normal;font-variant:normal;font-weight:normal;font-stretch:normal;font-size:20px;font-family:'TeX Gyre Schola';-inkscape-font-specification:'TeX Gyre Schola'" id="path5009"/>
      <path inkscape:connector-curvature="0" d="m 43.407656,23.856928 0,-0.72 -4,0 0,0.72 0.28,0 c 0.7,0 1.08,0.24 1.08,0.7 -0.02,0.22 -0.06,0.54 -0.18,0.84 l -1.84,4.64 -2.28,-5.3 c -0.06,-0.12 -0.1,-0.3 -0.1,-0.42 0,-0.34 0.26,-0.46 1.08,-0.46 l 0.28,0 0,-0.72 -4.72,0 0,0.72 0.28,0 c 0.76,0 0.9,0.18 1.2,0.86 l 3.44,8.04 0.7,0 2.84,-7.02 c 0.54,-1.32 0.9,-1.88 1.66,-1.88 l 0.28,0 z" style="font-style:normal;font-variant:normal;font-weight:normal;font-stretch:normal;font-size:20px;font-family:'TeX Gyre Schola';-inkscape-font-specification:'TeX Gyre Schola'" id="path5011"/>
      <path inkscape:connector-curvature="0" d="m 55.059219,31.436928 c 0,-0.14 -0.1,-0.24 -0.2,-0.24 -0.28,0 -0.74,0.22 -0.86,0.22 -0.56,0 -0.76,-0.38 -0.76,-1.38 l 0,-4.02 c 0,-2.56 -1.42,-3.18 -3.72,-3.18 -2.24,0 -3.9,1.06 -3.9,2.5 0,0.76 0.46,1.24 1.16,1.24 0.62,0 1.08,-0.42 1.08,-1.02 0,-0.36 -0.44,-0.98 -0.44,-1.08 0,-0.42 0.82,-0.78 1.78,-0.78 1.34,0 2.16,0.44 2.16,2.2 l 0,0.78 c -4.66,0.8 -6.28,1.78 -6.28,3.74 0,1.42 1.14,2.34 2.9,2.34 1.38,0 2.62,-0.56 3.48,-1.58 0.32,1.02 0.82,1.42 1.76,1.42 0.9,0 1.84,-0.58 1.84,-1.16 z m -3.7,-2.98 c 0,1.2 -0.06,1.48 -0.4,2 -0.5,0.74 -1.42,1.24 -2.28,1.24 -0.9,0 -1.58,-0.66 -1.58,-1.56 0,-1.42 0.8,-2.02 4.26,-2.6 l 0,0.92 z" style="font-style:normal;font-variant:normal;font-weight:normal;font-stretch:normal;font-size:20px;font-family:'TeX Gyre Schola';-inkscape-font-specification:'TeX Gyre Schola'" id="path5013"/>
    </g>
  </g>
<style xmlns="" type="text/css" id="igtranslator-color"/></svg>