<?xml version="1.0" encoding="UTF-8" standalone="no"?>
<!-- Created with Inkscape (http://www.inkscape.org/) -->

<svg
   xmlns:dc="http://purl.org/dc/elements/1.1/"
   xmlns:cc="http://creativecommons.org/ns#"
   xmlns:rdf="http://www.w3.org/1999/02/22-rdf-syntax-ns#"
   xmlns:svg="http://www.w3.org/2000/svg"
   xmlns="http://www.w3.org/2000/svg"
   xmlns:sodipodi="http://sodipodi.sourceforge.net/DTD/sodipodi-0.dtd"
   xmlns:inkscape="http://www.inkscape.org/namespaces/inkscape"
   id="svg2"
   version="1.1"
   inkscape:version="0.48.3.1 r9886"
   width="272.75"
   height="505.50876"
   xml:space="preserve"
   sodipodi:docname="Compiladores49-otimizacao2.pdf"><metadata
     id="metadata8"><rdf:RDF><cc:Work
         rdf:about=""><dc:format>image/svg+xml</dc:format><dc:type
           rdf:resource="http://purl.org/dc/dcmitype/StillImage" /><dc:title></dc:title></cc:Work></rdf:RDF></metadata><defs
     id="defs6"><clipPath
       clipPathUnits="userSpaceOnUse"
       id="clipPath16"><path
         d="m 0,1.8311e-4 720,0 0,539.99999689 -720,0 L 0,1.8311e-4 z"
         clip-rule="evenodd"
         id="path18"
         inkscape:connector-curvature="0" /></clipPath></defs><sodipodi:namedview
     pagecolor="#ffffff"
     bordercolor="#666666"
     borderopacity="1"
     objecttolerance="10"
     gridtolerance="10"
     guidetolerance="10"
     inkscape:pageopacity="0"
     inkscape:pageshadow="2"
     inkscape:window-width="958"
     inkscape:window-height="1061"
     id="namedview4"
     showgrid="false"
     fit-margin-top="0"
     fit-margin-left="0"
     fit-margin-right="0"
     fit-margin-bottom="0"
     inkscape:zoom="0.69925926"
     inkscape:cx="361.86325"
     inkscape:cy="195.17032"
     inkscape:window-x="0"
     inkscape:window-y="17"
     inkscape:window-maximized="0"
     inkscape:current-layer="g10" /><g
     id="g10"
     inkscape:groupmode="layer"
     inkscape:label="Compiladores49-otimizacao2"
     transform="matrix(1.25,0,0,-1.25,-277.525,568.90625)"><path
       d="m 318.38,433.69 c 0,11.56 9.54,20.93 21.31,20.93 0,0 0,0 0,0 l 0,0 c 11.77,0 21.31,-9.37 21.31,-20.93 0,0 0,0 0,0 l 0,0 c 0,-11.57 -9.54,-20.94 -21.31,-20.94 0,0 0,0 0,0 l 0,0 c -11.77,0 -21.31,9.37 -21.31,20.94 0,0 0,0 0,0 z"
       style="fill:none;stroke:#000000;stroke-width:1;stroke-linecap:butt;stroke-linejoin:round;stroke-miterlimit:10;stroke-opacity:1;stroke-dasharray:none"
       id="path30"
       inkscape:connector-curvature="0" /><text
       transform="matrix(1,0,0,-1,335.14,425.98)"
       id="text34"
       style="fill:#000000;fill-opacity:1"><tspan
         style="font-size:18px;font-variant:normal;font-weight:normal;writing-mode:lr-tb;fill:#000000;fill-opacity:1;fill-rule:nonzero;stroke:none;font-family:Arial;-inkscape-font-specification:Arial"
         x="0"
         y="0"
         id="tspan36">1</tspan></text>
<path
       d="m 250.25,387.81 c 0,11.57 9.54,20.94 21.31,20.94 0,0 0,0 0,0 l 0,0 c 11.77,0 21.32,-9.37 21.32,-20.94 0,0 0,0 0,0 l 0,0 c 0,-11.56 -9.55,-20.94 -21.32,-20.94 0,0 0,0 0,0 l 0,0 c -11.77,0 -21.31,9.38 -21.31,20.94 0,0 0,0 0,0 z"
       style="fill:none;stroke:#000000;stroke-width:1;stroke-linecap:butt;stroke-linejoin:round;stroke-miterlimit:8;stroke-opacity:1;stroke-dasharray:none"
       id="path40"
       inkscape:connector-curvature="0" /><text
       transform="matrix(1,0,0,-1,267,380.09)"
       id="text44"
       style="fill:#000000;fill-opacity:1"><tspan
         style="font-size:18px;font-variant:normal;font-weight:normal;writing-mode:lr-tb;fill:#000000;fill-opacity:1;fill-rule:nonzero;stroke:none;font-family:Arial;-inkscape-font-specification:Arial"
         x="0"
         y="0"
         id="tspan46">2</tspan></text>
<path
       d="m 322,353.69 c 0,11.56 9.54,20.93 21.31,20.93 0,0 0,0 0,0 l 0,0 c 11.77,0 21.32,-9.37 21.32,-20.93 0,0 0,0 0,0 l 0,0 c 0,-11.57 -9.55,-20.94 -21.32,-20.94 0,0 0,0 0,0 l 0,0 c -11.77,0 -21.31,9.37 -21.31,20.94 0,0 0,0 0,0 z"
       style="fill:none;stroke:#000000;stroke-width:1;stroke-linecap:butt;stroke-linejoin:round;stroke-miterlimit:8;stroke-opacity:1;stroke-dasharray:none"
       id="path50"
       inkscape:connector-curvature="0" /><text
       transform="matrix(1,0,0,-1,338.76,345.96)"
       id="text54"
       style="fill:#000000;fill-opacity:1"><tspan
         style="font-size:18px;font-variant:normal;font-weight:normal;writing-mode:lr-tb;fill:#000000;fill-opacity:1;fill-rule:nonzero;stroke:none;font-family:Arial;-inkscape-font-specification:Arial"
         x="0"
         y="0"
         id="tspan56">3</tspan></text>
<path
       d="m 322.38,293.56 c 0,11.57 9.54,20.94 21.31,20.94 0,0 0,0 0,0 l 0,0 c 11.77,0 21.31,-9.37 21.31,-20.94 0,0 0,0 0,0 l 0,0 c 0,-11.56 -9.54,-20.94 -21.31,-20.94 0,0 0,0 0,0 l 0,0 c -11.77,0 -21.31,9.38 -21.31,20.94 0,0 0,0 0,0 z"
       style="fill:none;stroke:#000000;stroke-width:1;stroke-linecap:butt;stroke-linejoin:round;stroke-miterlimit:8;stroke-opacity:1;stroke-dasharray:none"
       id="path60"
       inkscape:connector-curvature="0" /><text
       transform="matrix(1,0,0,-1,339.12,285.82)"
       id="text64"
       style="fill:#000000;fill-opacity:1"><tspan
         style="font-size:18px;font-variant:normal;font-weight:normal;writing-mode:lr-tb;fill:#000000;fill-opacity:1;fill-rule:nonzero;stroke:none;font-family:Arial;-inkscape-font-specification:Arial"
         x="0"
         y="0"
         id="tspan66">4</tspan></text>
<path
       d="m 276.63,238.81 c 0,11.57 9.54,20.94 21.31,20.94 0,0 0,0 0,0 l 0,0 c 11.77,0 21.31,-9.37 21.31,-20.94 0,0 0,0 0,0 l 0,0 c 0,-11.56 -9.54,-20.94 -21.31,-20.94 0,0 0,0 0,0 l 0,0 c -11.77,0 -21.31,9.38 -21.31,20.94 0,0 0,0 0,0 z"
       style="fill:none;stroke:#000000;stroke-width:1;stroke-linecap:butt;stroke-linejoin:round;stroke-miterlimit:8;stroke-opacity:1;stroke-dasharray:none"
       id="path70"
       inkscape:connector-curvature="0" /><text
       transform="matrix(1,0,0,-1,293.38,231.05)"
       id="text74"
       style="fill:#000000;fill-opacity:1"><tspan
         style="font-size:18px;font-variant:normal;font-weight:normal;writing-mode:lr-tb;fill:#000000;fill-opacity:1;fill-rule:nonzero;stroke:none;font-family:Arial;-inkscape-font-specification:Arial"
         x="0"
         y="0"
         id="tspan76">5</tspan></text>
<path
       d="m 367.63,240.94 c 0,11.56 9.54,20.93 21.31,20.93 0,0 0,0 0,0 l 0,0 c 11.77,0 21.31,-9.37 21.31,-20.93 0,0 0,0 0,0 l 0,0 c 0,-11.57 -9.54,-20.94 -21.31,-20.94 0,0 0,0 0,0 l 0,0 c -11.77,0 -21.31,9.37 -21.31,20.94 0,0 0,0 0,0 z"
       style="fill:none;stroke:#000000;stroke-width:1;stroke-linecap:butt;stroke-linejoin:round;stroke-miterlimit:8;stroke-opacity:1;stroke-dasharray:none"
       id="path80"
       inkscape:connector-curvature="0" /><text
       transform="matrix(1,0,0,-1,384.38,233.18)"
       id="text84"
       style="fill:#000000;fill-opacity:1"><tspan
         style="font-size:18px;font-variant:normal;font-weight:normal;writing-mode:lr-tb;fill:#000000;fill-opacity:1;fill-rule:nonzero;stroke:none;font-family:Arial;-inkscape-font-specification:Arial"
         x="0"
         y="0"
         id="tspan86">6</tspan></text>
<path
       d="m 324.5,190.69 c 0,11.56 9.54,20.93 21.31,20.93 0,0 0,0 0,0 l 0,0 c 11.77,0 21.32,-9.37 21.32,-20.93 0,0 0,0 0,0 l 0,0 c 0,-11.57 -9.55,-20.94 -21.32,-20.94 0,0 0,0 0,0 l 0,0 c -11.77,0 -21.31,9.37 -21.31,20.94 0,0 0,0 0,0 z"
       style="fill:none;stroke:#000000;stroke-width:1;stroke-linecap:butt;stroke-linejoin:round;stroke-miterlimit:8;stroke-opacity:1;stroke-dasharray:none"
       id="path90"
       inkscape:connector-curvature="0" /><text
       transform="matrix(1,0,0,-1,341.26,182.93)"
       id="text94"
       style="fill:#000000;fill-opacity:1"><tspan
         style="font-size:18px;font-variant:normal;font-weight:normal;writing-mode:lr-tb;fill:#000000;fill-opacity:1;fill-rule:nonzero;stroke:none;font-family:Arial;-inkscape-font-specification:Arial"
         x="0"
         y="0"
         id="tspan96">7</tspan></text>
<path
       d="m 324.88,133.56 c 0,11.57 9.54,20.94 21.31,20.94 0,0 0,0 0,0 l 0,0 c 11.77,0 21.31,-9.37 21.31,-20.94 0,0 0,0 0,0 l 0,0 c 0,-11.56 -9.54,-20.94 -21.31,-20.94 0,0 0,0 0,0 l 0,0 c -11.77,0 -21.31,9.38 -21.31,20.94 0,0 0,0 0,0 z"
       style="fill:none;stroke:#000000;stroke-width:1;stroke-linecap:butt;stroke-linejoin:round;stroke-miterlimit:8;stroke-opacity:1;stroke-dasharray:none"
       id="path100"
       inkscape:connector-curvature="0" /><text
       transform="matrix(1,0,0,-1,341.64,125.66)"
       id="text104"
       style="fill:#000000;fill-opacity:1"><tspan
         style="font-size:18px;font-variant:normal;font-weight:normal;writing-mode:lr-tb;fill:#000000;fill-opacity:1;fill-rule:nonzero;stroke:none;font-family:Arial;-inkscape-font-specification:Arial"
         x="0"
         y="0"
         id="tspan106">8</tspan></text>
<path
       d="m 269.25,90.438 c 0,11.562 9.54,20.932 21.31,20.932 0,0 0,0 0,0 l 0,0 c 11.77,0 21.32,-9.37 21.32,-20.932 0,-0.001 0,-0.001 0,-0.001 l 0,0 c 0,-11.563 -9.55,-20.937 -21.32,-20.937 0,0 0,0 0,0 l 0,0 c -11.77,0 -21.31,9.374 -21.31,20.937 0,0 0,0 0,0 l 0,0.001 z"
       style="fill:none;stroke:#000000;stroke-width:1;stroke-linecap:butt;stroke-linejoin:round;stroke-miterlimit:8;stroke-opacity:1;stroke-dasharray:none"
       id="path110"
       inkscape:connector-curvature="0" /><text
       transform="matrix(1,0,0,-1,286.01,82.512)"
       id="text114"
       style="fill:#000000;fill-opacity:1"><tspan
         style="font-size:18px;font-variant:normal;font-weight:normal;writing-mode:lr-tb;fill:#000000;fill-opacity:1;fill-rule:nonzero;stroke:none;font-family:Arial;-inkscape-font-specification:Arial"
         x="0"
         y="0"
         id="tspan116">9</tspan></text>
<path
       d="m 380.88,90.938 c 0,11.562 9.54,20.932 21.31,20.932 0,0 0,0 0,0 l 0,0 c 11.77,0 21.31,-9.37 21.31,-20.932 0,-0.001 0,-0.001 0,-0.001 l 0,0 C 423.5,79.374 413.96,70 402.19,70 c 0,0 0,0 0,0 l 0,0 c -11.77,0 -21.31,9.374 -21.31,20.937 0,0 0,0 0,0 l 0,0.001 z"
       style="fill:none;stroke:#000000;stroke-width:1;stroke-linecap:butt;stroke-linejoin:round;stroke-miterlimit:8;stroke-opacity:1;stroke-dasharray:none"
       id="path120"
       inkscape:connector-curvature="0" /><text
       transform="matrix(1,0,0,-1,391.39,83.904)"
       id="text124"
       style="fill:#000000;fill-opacity:1"><tspan
         style="font-size:18px;font-variant:normal;font-weight:normal;writing-mode:lr-tb;fill:#000000;fill-opacity:1;fill-rule:nonzero;stroke:none;font-family:Arial;-inkscape-font-specification:Arial"
         x="0 9.96"
         y="0"
         sodipodi:role="line"
         id="tspan126">10</tspan></text>
<path
       d="m 319.55,426.6 -28.89,-21.86 -0.6,0.8 28.89,21.86 0.6,-0.8 z m -26.58,-23.25 -6.6,-1.22 2.98,6.01 3.62,-4.79 z"
       style="fill:#000000;fill-opacity:1;fill-rule:nonzero;stroke:none"
       id="path128"
       inkscape:connector-curvature="0" /><path
       d="m 343.75,411.88 0,-31.5 -1,0 0,31.5 1,0 z m 2.5,-30.5 -3,-6 -3,6 6,0 z"
       style="fill:#000000;fill-opacity:1;fill-rule:nonzero;stroke:none"
       id="path130"
       inkscape:connector-curvature="0" /><path
       d="m 342.87,332.75 0,-14.5 -1,0 0,14.5 1,0 z m 2.5,-13.5 -3,-6 -3,6 6,0 z"
       style="fill:#000000;fill-opacity:1;fill-rule:nonzero;stroke:none"
       id="path132"
       inkscape:connector-curvature="0" /><path
       d="m 332.98,273.77 -15.1,-15.2 -0.71,0.7 15.1,15.21 0.71,-0.71 z m -12.62,-16.25 -6.36,-2.14 2.1,6.37 4.26,-4.23 z"
       style="fill:#000000;fill-opacity:1;fill-rule:nonzero;stroke:none"
       id="path134"
       inkscape:connector-curvature="0" /><path
       d="m 312.48,222.85 11.59,-11.59 -0.71,-0.7 -11.59,11.59 0.71,0.7 z m 12.65,-9.11 2.12,-6.36 -6.36,2.12 4.24,4.24 z"
       style="fill:#000000;fill-opacity:1;fill-rule:nonzero;stroke:none"
       id="path136"
       inkscape:connector-curvature="0" /><path
       d="m 360.48,277.98 12.46,-12.47 -0.7,-0.7 -12.47,12.46 0.71,0.71 z m 13.52,-9.99 2.12,-6.36 -6.36,2.12 4.24,4.24 z"
       style="fill:#000000;fill-opacity:1;fill-rule:nonzero;stroke:none"
       id="path138"
       inkscape:connector-curvature="0" /><path
       d="m 377.35,220.4 -10.6,-10.7 -0.71,0.7 10.6,10.7 0.71,-0.7 z m -8.12,-11.75 -6.36,-2.15 2.1,6.37 4.26,-4.22 z"
       style="fill:#000000;fill-opacity:1;fill-rule:nonzero;stroke:none"
       id="path140"
       inkscape:connector-curvature="0" /><path
       d="m 345.5,169.22 -0.62,-11.88 -1,0.05 0.62,11.89 1,-0.06 z m 1.93,-11.01 -3.31,-5.83 -2.68,6.14 5.99,-0.31 z"
       style="fill:#000000;fill-opacity:1;fill-rule:nonzero;stroke:none"
       id="path142"
       inkscape:connector-curvature="0" /><path
       d="m 324.98,124.4 -14.22,-14.22 -0.7,0.71 14.21,14.21 0.71,-0.7 z m -11.74,-15.28 -6.37,-2.12 2.13,6.36 4.24,-4.24 z"
       style="fill:#000000;fill-opacity:1;fill-rule:nonzero;stroke:none"
       id="path144"
       inkscape:connector-curvature="0" /><path
       d="m 365.81,122.52 15.55,-12.06 -0.62,-0.79 -15.55,12.06 0.62,0.79 z m 16.29,-9.47 2.9,-6.05 -6.58,1.31 3.68,4.74 z"
       style="fill:#000000;fill-opacity:1;fill-rule:nonzero;stroke:none"
       id="path146"
       inkscape:connector-curvature="0" /><path
       d="m 405.95,112.99 -38.23,61.5 0.84,0.53 38.24,-61.51 -0.85,-0.52 z m -39.83,59.33 -0.62,6.68 5.72,-3.51 -5.1,-3.17 z"
       style="fill:#000000;fill-opacity:1;fill-rule:nonzero;stroke:none"
       id="path148"
       inkscape:connector-curvature="0" /><path
       d="m 271.22,78.874 -0.64,0.045 -0.71,0.021 -0.8,0 -0.89,-0.015 -0.97,-0.03 -1.05,-0.037 -1.1,-0.052 -1.17,-0.06 -1.23,-0.053 -1.27,-0.06 -2.66,-0.105 -2.78,-0.068 -2.85,-0.007 -2.88,0.075 -2.85,0.181 -2.78,0.317 -2.67,0.469 -1.29,0.306 -1.23,0.351 -1.18,0.405 -1.13,0.461 -1.05,0.524 -1,0.579 -0.91,0.655 -0.83,0.719 -1.45,1.467 -1.27,1.471 -1.13,1.514 -1,1.585 -0.86,1.689 -0.75,1.829 -0.34,0.979 -0.31,1.017 -0.29,1.063 -0.26,1.118 -0.24,1.177 -0.23,1.233 -0.21,1.293 -0.2,1.37 -0.18,1.45 -0.17,1.51 -0.16,1.6 -0.16,1.68 -0.14,1.77 -0.15,1.87 -0.13,1.97 -0.13,2.07 -0.13,2.17 -0.14,2.29 -0.13,2.4 -0.14,2.52 -0.14,2.64 -0.14,2.76 -0.23,5.88 -0.19,6.31 -0.13,6.72 -0.09,7.07 -0.06,7.42 0,7.7 0.03,7.98 0.07,8.2 0.11,8.4 0.15,8.56 0.19,8.69 0.46,17.62 0.6,17.71 0.14,4.52 0.09,4.68 0.04,4.85 0.01,5.01 -0.03,5.13 -0.06,5.27 -0.15,10.82 -0.18,11.11 -0.18,11.3 -0.1,11.36 0.01,11.3 0.17,11.11 0.38,10.82 0.29,5.26 0.35,5.13 0.43,5.01 0.51,4.85 0.6,4.69 0.7,4.51 0.8,4.32 0.9,4.1 1.02,3.88 1.14,3.65 1.26,3.38 1.4,3.13 0.75,1.48 0.79,1.42 0.8,1.37 0.83,1.33 1.74,2.52 1.84,2.36 1.94,2.18 2.03,2.03 2.12,1.88 2.21,1.73 2.29,1.58 2.36,1.44 2.44,1.32 2.51,1.19 2.58,1.07 2.63,0.96 2.71,0.84 2.76,0.75 2.8,0.66 2.86,0.56 2.91,0.48 2.94,0.4 2.99,0.34 3.03,0.26 3.05,0.21 3.09,0.15 3.1,0.12 3.14,0.06 6.31,0.04 6.38,-0.07 1.39,-0.03 -0.02,-1 -1.38,0.03 -6.36,0.07 -6.3,-0.04 -3.12,-0.06 -3.09,-0.11 -3.07,-0.15 -3.03,-0.21 -3.01,-0.26 -2.96,-0.34 -2.92,-0.4 -2.87,-0.47 -2.83,-0.55 -2.77,-0.65 -2.72,-0.74 -2.66,-0.83 -2.6,-0.95 -2.53,-1.04 -2.46,-1.17 -2.4,-1.29 -2.31,-1.41 -2.24,-1.55 -2.16,-1.69 -2.08,-1.83 -1.99,-1.99 -1.9,-2.14 -1.81,-2.31 -1.71,-2.48 -0.82,-1.3 -0.79,-1.36 -0.77,-1.38 -0.73,-1.44 -1.37,-3.06 -1.25,-3.34 -1.12,-3.6 -1.01,-3.84 -0.9,-4.07 -0.79,-4.29 -0.7,-4.48 -0.6,-4.67 -0.5,-4.84 -0.43,-4.98 -0.35,-5.13 -0.29,-5.24 -0.38,-10.79 -0.17,-11.11 -0.01,-11.29 0.1,-11.35 0.18,-11.29 0.18,-11.12 0.15,-10.82 0.06,-5.27 0.03,-5.14 -0.01,-5.01 -0.05,-4.87 -0.09,-4.69 -0.13,-4.52 -0.6,-17.71 -0.47,-17.62 -0.18,-8.68 -0.15,-8.55 -0.11,-8.39 -0.07,-8.21 -0.03,-7.97 0,-7.7 0.06,-7.4 0.09,-7.07 0.13,-6.71 0.19,-6.3 0.23,-5.87 0.14,-2.76 0.14,-2.64 0.13,-2.52 0.14,-2.39 0.13,-2.28 0.14,-2.18 0.13,-2.06 0.13,-1.96 0.14,-1.86 0.15,-1.77 0.15,-1.68 0.16,-1.58 0.17,-1.5 0.18,-1.43 0.19,-1.35 0.21,-1.272 0.22,-1.212 0.24,-1.148 0.26,-1.087 0.28,-1.037 0.29,-0.978 0.33,-0.926 0.71,-1.756 0.82,-1.61 0.95,-1.521 1.08,-1.456 1.23,-1.424 1.39,-1.413 0.76,-0.661 0.84,-0.605 0.93,-0.546 0.99,-0.495 1.07,-0.44 1.13,-0.39 1.19,-0.339 1.23,-0.294 2.61,-0.461 2.73,-0.312 2.82,-0.18 2.84,-0.074 2.84,0.007 2.76,0.067 2.65,0.105 1.28,0.06 1.22,0.052 1.17,0.061 1.12,0.052 1.05,0.038 0.98,0.03 0.91,0.015 0.83,0 0.75,-0.024 0.64,-0.045 -0.07,-0.997 z m 40.31,362.726 5.95,-3.1 -6.05,-2.9 0.1,6 z"
       style="fill:#000000;fill-opacity:1;fill-rule:nonzero;stroke:none"
       id="path150"
       inkscape:connector-curvature="0" /><path
       d="m 344.76,111.33 -0.79,-8 -0.37,-3.95 -0.34,-3.896 -0.32,-3.83 -0.28,-3.746 -0.21,-3.63 -0.17,-3.519 -0.1,-3.382 -0.03,-3.213 0.03,-1.542 0.03,-1.502 0.07,-1.452 0.08,-1.404 0.12,-1.345 0.14,-1.292 0.16,-1.234 0.19,-1.177 0.22,-1.119 0.25,-1.043 0.28,-0.985 0.31,-0.915 0.33,-0.839 0.33,-0.764 0.34,-0.689 0.35,-0.6 0.36,-0.547 0.36,-0.474 0.38,-0.408 0.39,-0.351 0.4,-0.301 0.41,-0.238 0.44,-0.213 0.45,-0.159 1.03,-0.231 1.11,-0.094 1.27,0.009 1.42,0.082 1.57,0.148 1.76,0.173 0.93,0.09 1,0.09 1.03,0.083 1.09,0.075 1.14,0.061 1.18,0.045 1.24,0.023 1.3,0 1.39,-0.03 1.51,-0.075 1.62,-0.106 1.73,-0.128 1.82,-0.158 1.91,-0.18 1.98,-0.188 2.05,-0.195 2.12,-0.202 2.16,-0.195 4.45,-0.375 4.56,-0.306 4.61,-0.21 2.28,-0.052 2.27,-0.007 2.24,0.037 2.22,0.082 2.16,0.142 2.11,0.201 2.06,0.268 1.98,0.335 1.9,0.408 1.82,0.49 1.71,0.569 1.61,0.656 1.5,0.749 1.37,0.848 1.24,0.941 1.11,1.045 0.99,1.091 0.92,1.075 0.83,1.056 0.73,1.038 0.65,1.035 0.58,1.048 0.51,1.054 0.43,1.088 0.38,1.119 0.31,1.172 0.26,1.228 0.22,1.296 0.16,1.365 0.12,1.466 0.09,1.556 0.04,1.665 0.02,1.778 -0.01,1.904 -0.03,2.042 -0.05,2.178 -0.06,2.339 -0.06,2.497 -0.08,2.67 -0.04,1.4 -0.04,1.443 -0.04,1.501 -0.03,1.54 -0.04,1.597 -0.03,1.64 -0.03,1.7 -0.02,1.75 -0.02,1.8 -0.02,1.86 -0.01,1.92 0,1.97 0,2.03 0.01,2.1 0.02,2.16 0.02,2.21 0.03,2.28 0.04,2.35 0.06,2.45 0.07,2.59 0.08,2.71 0.09,2.84 0.1,2.95 0.12,3.08 0.27,6.47 0.3,6.88 0.32,7.25 0.34,7.59 0.37,7.88 0.37,8.15 0.37,8.36 0.38,8.56 0.36,8.72 0.66,17.72 0.55,17.91 0.37,17.78 0.11,8.75 0.05,8.62 -0.03,8.43 -0.09,8.22 -0.17,7.98 -0.27,7.69 -0.35,7.36 -0.46,7.02 -0.56,6.6 -0.68,6.18 -0.38,2.91 -0.41,2.79 -0.44,2.66 -0.48,2.53 -0.51,2.4 -0.54,2.26 -0.57,2.11 -0.61,1.95 -0.64,1.85 -0.67,1.75 -0.7,1.68 -0.72,1.59 -0.75,1.53 -0.77,1.43 -0.8,1.36 -0.83,1.29 -0.85,1.21 -0.86,1.14 -0.9,1.06 -0.92,1.01 -0.93,0.93 -0.96,0.86 -0.99,0.8 -1,0.72 -1.02,0.68 -1.04,0.61 -1.06,0.55 -1.09,0.49 -1.1,0.43 -1.12,0.38 -1.13,0.33 -1.16,0.28 -1.18,0.22 -1.19,0.17 -1.22,0.12 -1.22,0.07 -1.25,0.03 -1.26,-0.02 -2.59,-0.16 -2.63,-0.34 -2.7,-0.49 -2.74,-0.64 -2.79,-0.77 -2.84,-0.91 -2.89,-1.02 -2.92,-1.12 -2.96,-1.22 -2.98,-1.31 -3.02,-1.37 -3.03,-1.45 -3.05,-1.49 -6.15,-3.11 -1.75,-0.9 -0.46,0.88 1.75,0.91 6.17,3.11 3.06,1.51 3.05,1.45 3.03,1.38 3,1.31 2.98,1.23 2.95,1.13 2.91,1.04 2.88,0.91 2.83,0.78 2.79,0.65 2.75,0.5 2.7,0.34 2.63,0.17 1.3,0.02 1.29,-0.03 1.26,-0.08 1.26,-0.12 1.24,-0.18 1.22,-0.23 1.2,-0.29 1.19,-0.34 1.16,-0.4 1.15,-0.45 1.13,-0.51 1.1,-0.58 1.09,-0.64 1.06,-0.7 1.04,-0.76 1.03,-0.83 0.99,-0.89 0.97,-0.97 0.95,-1.03 0.92,-1.1 0.89,-1.17 0.88,-1.25 0.84,-1.32 0.82,-1.4 0.79,-1.46 0.76,-1.55 0.73,-1.62 0.71,-1.71 0.68,-1.79 0.65,-1.87 0.62,-1.99 0.59,-2.14 0.54,-2.28 0.51,-2.42 0.48,-2.56 0.45,-2.67 0.41,-2.81 0.38,-2.94 0.69,-6.2 0.56,-6.62 0.46,-7.03 0.35,-7.38 0.26,-7.7 0.18,-7.98 0.09,-8.24 0.03,-8.44 -0.05,-8.62 -0.11,-8.76 -0.38,-17.79 -0.54,-17.91 -0.66,-17.74 -0.36,-8.71 -0.38,-8.56 -0.37,-8.37 -0.37,-8.15 -0.37,-7.88 -0.34,-7.59 -0.33,-7.24 -0.3,-6.89 -0.26,-6.46 -0.12,-3.07 -0.1,-2.96 -0.09,-2.83 -0.09,-2.71 -0.06,-2.58 -0.06,-2.44 -0.04,-2.35 -0.03,-2.28 -0.02,-2.21 -0.02,-2.16 -0.01,-2.09 0,-2.03 0,-1.97 0.01,-1.91 0.02,-1.86 0.02,-1.8 0.02,-1.74 0.03,-1.7 0.03,-1.64 0.04,-1.598 0.03,-1.534 0.04,-1.5 0.03,-1.437 0.05,-1.404 0.07,-2.671 0.07,-2.498 0.06,-2.341 0.05,-2.187 0.03,-2.053 0.01,-1.921 -0.02,-1.792 -0.05,-1.695 -0.09,-1.579 -0.12,-1.504 -0.17,-1.41 -0.22,-1.344 -0.27,-1.277 -0.34,-1.228 -0.39,-1.176 -0.46,-1.147 -0.53,-1.106 -0.61,-1.097 -0.68,-1.08 -0.77,-1.077 -0.85,-1.089 -0.94,-1.099 -1.05,-1.145 -1.19,-1.115 -1.32,-0.994 -1.45,-0.892 -1.56,-0.781 -1.68,-0.678 -1.76,-0.586 -1.87,-0.501 -1.94,-0.417 -2.03,-0.34 -2.08,-0.272 -2.15,-0.204 -2.19,-0.143 -2.23,-0.083 -2.26,-0.037 -2.29,0.007 -2.31,0.053 -4.62,0.211 -4.58,0.308 -4.46,0.375 -2.17,0.195 -2.11,0.203 -2.06,0.195 -1.98,0.187 -1.9,0.18 -1.81,0.157 -1.71,0.127 -1.61,0.105 -1.48,0.074 -1.37,0.03 -1.28,0 -1.22,-0.022 -1.17,-0.045 -1.13,-0.059 -1.07,-0.075 -1.02,-0.082 -0.99,-0.09 -0.94,-0.089 -1.75,-0.173 -1.61,-0.152 -1.47,-0.083 -1.36,-0.005 -1.26,0.115 -1.13,0.264 -0.56,0.201 -0.51,0.252 -0.51,0.302 -0.47,0.359 -0.45,0.415 -0.43,0.477 -0.41,0.53 -0.38,0.593 -0.39,0.66 -0.36,0.736 -0.35,0.796 -0.34,0.886 -0.32,0.96 -0.29,1.025 -0.26,1.087 -0.22,1.146 -0.2,1.208 -0.17,1.256 -0.14,1.318 -0.11,1.37 -0.09,1.416 -0.06,1.473 -0.04,1.513 -0.03,1.563 0.03,3.237 0.1,3.398 0.17,3.532 0.22,3.644 0.27,3.754 0.32,3.836 0.34,3.903 0.38,3.955 0.79,7.99 0.99,-0.09 z m 15.57,258 -6.71,-0.08 3.96,5.41 2.75,-5.33 z"
       style="fill:#000000;fill-opacity:1;fill-rule:nonzero;stroke:none"
       id="path152"
       inkscape:connector-curvature="0" /><path
       d="m 366.49,196.36 4.4,-1.01 4.38,-0.96 4.34,-0.92 4.27,-0.81 4.19,-0.71 2.06,-0.3 2.03,-0.25 1.99,-0.21 1.97,-0.15 1.93,-0.12 1.89,-0.05 1.85,0.01 1.8,0.07 1.75,0.14 1.71,0.21 1.66,0.28 1.6,0.36 1.54,0.44 1.49,0.52 1.42,0.61 1.37,0.7 1.29,0.8 1.22,0.9 1.16,0.99 1.09,1.1 1.01,1.21 0.95,1.33 0.44,0.71 0.44,0.78 0.42,0.83 0.42,0.89 0.41,0.94 0.4,0.99 0.38,1.04 0.38,1.08 0.73,2.31 0.68,2.47 0.63,2.62 0.59,2.76 0.53,2.87 0.49,2.98 0.43,3.07 0.38,3.15 0.33,3.2 0.27,3.25 0.22,3.29 0.16,3.3 0.1,3.31 0.04,3.29 -0.02,3.26 -0.07,3.22 -0.14,3.17 -0.21,3.09 -0.27,3.02 -0.34,2.92 -0.4,2.79 -0.47,2.67 -0.54,2.52 -0.6,2.37 -0.33,1.11 -0.35,1.08 -0.36,1.02 -0.38,0.97 -0.4,0.92 -0.42,0.88 -0.43,0.81 -0.44,0.76 -0.95,1.42 -1.05,1.3 -1.15,1.2 -1.23,1.1 -1.32,1.01 -1.39,0.91 -1.48,0.82 -1.55,0.75 -1.63,0.66 -1.7,0.58 -1.76,0.51 -1.83,0.44 -1.9,0.37 -1.96,0.3 -2,0.24 -2.07,0.19 -2.11,0.12 -2.16,0.08 -2.21,0.03 -2.24,-0.02 -4.6,-0.16 -4.71,-0.31 -4.82,-0.41 -4.89,-0.49 -4.94,-0.56 -0.11,1 4.95,0.55 4.9,0.5 4.84,0.41 4.75,0.31 4.62,0.16 2.27,0.02 2.23,-0.03 2.18,-0.08 2.14,-0.13 2.09,-0.19 2.05,-0.24 2,-0.31 1.93,-0.38 1.87,-0.45 1.82,-0.52 1.75,-0.6 1.68,-0.69 1.61,-0.77 1.54,-0.86 1.45,-0.96 1.38,-1.06 1.28,-1.15 1.21,-1.26 1.1,-1.38 0.98,-1.46 0.47,-0.8 0.45,-0.85 0.43,-0.91 0.41,-0.95 0.39,-1.01 0.38,-1.05 0.35,-1.1 0.34,-1.15 0.61,-2.4 0.55,-2.56 0.47,-2.69 0.4,-2.83 0.34,-2.94 0.27,-3.04 0.21,-3.12 0.15,-3.19 0.07,-3.24 0.02,-3.28 -0.04,-3.31 -0.11,-3.32 -0.15,-3.32 -0.22,-3.3 -0.27,-3.27 -0.33,-3.23 -0.39,-3.16 -0.43,-3.09 -0.49,-3 -0.55,-2.9 -0.58,-2.78 -0.65,-2.65 -0.68,-2.51 -0.74,-2.34 -0.39,-1.1 -0.39,-1.06 -0.41,-1.02 -0.42,-0.97 -0.44,-0.91 -0.44,-0.88 -0.46,-0.81 -0.48,-0.76 -0.99,-1.39 -1.07,-1.27 -1.15,-1.16 -1.22,-1.04 -1.29,-0.95 -1.36,-0.82 -1.42,-0.74 -1.49,-0.63 -1.54,-0.55 -1.6,-0.45 -1.65,-0.37 -1.7,-0.29 -1.76,-0.21 -1.79,-0.13 -1.84,-0.08 -1.88,-0.01 -1.91,0.06 -1.96,0.11 -1.99,0.16 -2.01,0.21 -2.05,0.26 -2.08,0.3 -4.21,0.7 -4.3,0.82 -4.34,0.92 -4.39,0.97 -4.41,1 0.23,0.98 z m 2.7,97.61 -6.31,2.28 5.61,3.68 0.7,-5.96 z"
       style="fill:#000000;fill-opacity:1;fill-rule:nonzero;stroke:none"
       id="path154"
       inkscape:connector-curvature="0" /></g></svg>