<?xml version="1.0" encoding="UTF-8" standalone="no"?>
<!-- Created with Inkscape (http://www.inkscape.org/) -->

<svg
   xmlns:dc="http://purl.org/dc/elements/1.1/"
   xmlns:cc="http://creativecommons.org/ns#"
   xmlns:rdf="http://www.w3.org/1999/02/22-rdf-syntax-ns#"
   xmlns:svg="http://www.w3.org/2000/svg"
   xmlns="http://www.w3.org/2000/svg"
   xmlns:sodipodi="http://sodipodi.sourceforge.net/DTD/sodipodi-0.dtd"
   xmlns:inkscape="http://www.inkscape.org/namespaces/inkscape"
   id="svg2"
   version="1.1"
   inkscape:version="0.48.3.1 r9886"
   width="651.8399"
   height="306.09375"
   xml:space="preserve"
   sodipodi:docname="Compiladores07-tabelas-ll1.pdf"><metadata
     id="metadata8"><rdf:RDF><cc:Work
         rdf:about=""><dc:format>image/svg+xml</dc:format><dc:type
           rdf:resource="http://purl.org/dc/dcmitype/StillImage" /><dc:title></dc:title></cc:Work></rdf:RDF></metadata><defs
     id="defs6"><clipPath
       clipPathUnits="userSpaceOnUse"
       id="clipPath16"><path
         d="m 0,1.2207e-4 720,0 0,539.99999793 -720,0 L 0,1.2207e-4 z"
         clip-rule="evenodd"
         id="path18"
         inkscape:connector-curvature="0" /></clipPath></defs><sodipodi:namedview
     pagecolor="#ffffff"
     bordercolor="#666666"
     borderopacity="1"
     objecttolerance="10"
     gridtolerance="10"
     guidetolerance="10"
     inkscape:pageopacity="0"
     inkscape:pageshadow="2"
     inkscape:window-width="1918"
     inkscape:window-height="1061"
     id="namedview4"
     showgrid="false"
     fit-margin-top="0"
     fit-margin-left="0"
     fit-margin-right="0"
     fit-margin-bottom="0"
     inkscape:zoom="1.3985185"
     inkscape:cx="372.15905"
     inkscape:cy="152.89298"
     inkscape:window-x="0"
     inkscape:window-y="17"
     inkscape:window-maximized="0"
     inkscape:current-layer="g10" /><g
     id="g10"
     inkscape:groupmode="layer"
     inkscape:label="Compiladores07-tabelas-ll1"
     transform="matrix(1.25,0,0,-1.25,-136.63013,309.84375)"><path
       d="m 232.75,111.12 215.38,0 0,85.125 -215.38,0 0,-85.125 z"
       style="fill:#bbe0e3;fill-opacity:1;fill-rule:evenodd;stroke:none"
       id="path82"
       inkscape:connector-curvature="0" /><path
       d="m 232.75,111.12 215.38,0 0,85.125 -215.38,0 0,-85.125 z"
       style="fill:none;stroke:#000000;stroke-width:1;stroke-linecap:butt;stroke-linejoin:miter;stroke-miterlimit:10;stroke-opacity:1;stroke-dasharray:none"
       id="path84"
       inkscape:connector-curvature="0" /><text
       transform="matrix(1,0,0,-1,238.34,146.88)"
       id="text86"><tspan
         style="font-size:18px;font-variant:normal;font-weight:normal;writing-mode:lr-tb;fill:#000000;fill-opacity:1;fill-rule:nonzero;stroke:none;font-family:Arial;-inkscape-font-specification:Arial"
         x="0 12.006 21.959999 27.954 36.953999 46.962002 52.956001 57.834 67.842003 73.835999 83.753998 93.762001 97.667999 102.672 106.668 115.668 125.676 130.896 135.89999 145.908"
         y="0"
         sodipodi:role="line"
         id="tspan88">Parser preditivo top</tspan></text>
<text
       transform="matrix(1,0,0,-1,394.25,146.88)"
       id="text90"><tspan
         style="font-size:18px;font-variant:normal;font-weight:normal;writing-mode:lr-tb;fill:#000000;fill-opacity:1;fill-rule:nonzero;stroke:none;font-family:Arial;-inkscape-font-specification:Arial"
         x="0"
         y="0"
         id="tspan92">-</tspan></text>
<text
       transform="matrix(1,0,0,-1,400.25,146.88)"
       id="text94"><tspan
         style="font-size:18px;font-variant:normal;font-weight:normal;writing-mode:lr-tb;fill:#000000;fill-opacity:1;fill-rule:nonzero;stroke:none;font-family:Arial;-inkscape-font-specification:Arial"
         x="0 10.008 19.926001 32.526001"
         y="0"
         sodipodi:role="line"
         id="tspan96">down</tspan></text>
<path
       d="m 235.25,219.13 34,0 0,28.25 -34,0 0,-28.25 z"
       style="fill:none;stroke:#000000;stroke-width:1;stroke-linecap:butt;stroke-linejoin:miter;stroke-miterlimit:10;stroke-opacity:1;stroke-dasharray:none"
       id="path98"
       inkscape:connector-curvature="0" /><path
       d="m 269.25,219.13 34,0 0,28.25 -34,0 0,-28.25 z"
       style="fill:none;stroke:#000000;stroke-width:1;stroke-linecap:butt;stroke-linejoin:miter;stroke-miterlimit:10;stroke-opacity:1;stroke-dasharray:none"
       id="path100"
       inkscape:connector-curvature="0" /><text
       transform="matrix(1,0,0,-1,280.75,226.46)"
       id="text102"><tspan
         style="font-size:18px;font-variant:normal;font-weight:bold;writing-mode:lr-tb;fill:#000000;fill-opacity:1;fill-rule:nonzero;stroke:none;font-family:Arial;-inkscape-font-specification:Arial Bold"
         x="0 5.04"
         y="0"
         sodipodi:role="line"
         id="tspan104">if</tspan></text>
<path
       d="m 303.25,219.13 34,0 0,28.25 -34,0 0,-28.25 z"
       style="fill:none;stroke:#000000;stroke-width:1;stroke-linecap:butt;stroke-linejoin:miter;stroke-miterlimit:10;stroke-opacity:1;stroke-dasharray:none"
       id="path106"
       inkscape:connector-curvature="0" /><text
       transform="matrix(1,0,0,-1,317.28,226.46)"
       id="text108"><tspan
         style="font-size:18px;font-variant:normal;font-weight:normal;writing-mode:lr-tb;fill:#000000;fill-opacity:1;fill-rule:nonzero;stroke:none;font-family:Arial;-inkscape-font-specification:Arial"
         x="0"
         y="0"
         id="tspan110">(</tspan></text>
<path
       d="m 337.25,219.13 34,0 0,28.25 -34,0 0,-28.25 z"
       style="fill:none;stroke:#000000;stroke-width:1;stroke-linecap:butt;stroke-linejoin:miter;stroke-miterlimit:10;stroke-opacity:1;stroke-dasharray:none"
       id="path112"
       inkscape:connector-curvature="0" /><text
       transform="matrix(1,0,0,-1,343.37,226.46)"
       id="text114"><tspan
         style="font-size:18px;font-variant:normal;font-weight:bold;writing-mode:lr-tb;fill:#000000;fill-opacity:1;fill-rule:nonzero;stroke:none;font-family:Arial;-inkscape-font-specification:Arial Bold"
         x="0 5.04 16.073999"
         y="0"
         sodipodi:role="line"
         id="tspan116">idf</tspan></text>
<path
       d="m 371.25,219.13 34,0 0,28.25 -34,0 0,-28.25 z"
       style="fill:none;stroke:#000000;stroke-width:1;stroke-linecap:butt;stroke-linejoin:miter;stroke-miterlimit:10;stroke-opacity:1;stroke-dasharray:none"
       id="path118"
       inkscape:connector-curvature="0" /><text
       transform="matrix(1,0,0,-1,385.27,226.46)"
       id="text120"><tspan
         style="font-size:18px;font-variant:normal;font-weight:bold;writing-mode:lr-tb;fill:#000000;fill-opacity:1;fill-rule:nonzero;stroke:none;font-family:Arial;-inkscape-font-specification:Arial Bold"
         x="0"
         y="0"
         id="tspan122">)</tspan></text>
<path
       d="m 405.25,219.13 34,0 0,28.25 -34,0 0,-28.25 z"
       style="fill:none;stroke:#000000;stroke-width:1;stroke-linecap:butt;stroke-linejoin:miter;stroke-miterlimit:10;stroke-opacity:1;stroke-dasharray:none"
       id="path124"
       inkscape:connector-curvature="0" /><text
       transform="matrix(1,0,0,-1,417.36,226.46)"
       id="text126"><tspan
         style="font-size:18px;font-variant:normal;font-weight:bold;writing-mode:lr-tb;fill:#000000;fill-opacity:1;fill-rule:nonzero;stroke:none;font-family:Arial;-inkscape-font-specification:Arial Bold"
         x="0"
         y="0"
         id="tspan128">$</tspan></text>
<path
       d="m 156.25,168 34,0 0,28.25 -34,0 0,-28.25 z"
       style="fill:#ffcc00;fill-opacity:1;fill-rule:evenodd;stroke:none"
       id="path130"
       inkscape:connector-curvature="0" /><path
       d="m 156.25,168 34,0 0,28.25 -34,0 0,-28.25 z"
       style="fill:none;stroke:#000000;stroke-width:1;stroke-linecap:butt;stroke-linejoin:miter;stroke-miterlimit:10;stroke-opacity:1;stroke-dasharray:none"
       id="path132"
       inkscape:connector-curvature="0" /><path
       d="m 156.25,143.38 34,0 0,28.25 -34,0 0,-28.25 z"
       style="fill:#ffcc00;fill-opacity:1;fill-rule:evenodd;stroke:none"
       id="path134"
       inkscape:connector-curvature="0" /><path
       d="m 156.25,143.38 34,0 0,28.25 -34,0 0,-28.25 z"
       style="fill:none;stroke:#000000;stroke-width:1;stroke-linecap:butt;stroke-linejoin:miter;stroke-miterlimit:10;stroke-opacity:1;stroke-dasharray:none"
       id="path136"
       inkscape:connector-curvature="0" /><text
       transform="matrix(1,0,0,-1,167.26,150.7)"
       id="text138"><tspan
         style="font-size:18px;font-variant:normal;font-weight:bold;writing-mode:lr-tb;fill:#000000;fill-opacity:1;fill-rule:nonzero;stroke:none;font-family:Arial;-inkscape-font-specification:Arial Bold"
         x="0"
         y="0"
         id="tspan140">S</tspan></text>
<path
       d="m 156.25,114.12 34,0 0,28.25 -34,0 0,-28.25 z"
       style="fill:#ffcc00;fill-opacity:1;fill-rule:evenodd;stroke:none"
       id="path142"
       inkscape:connector-curvature="0" /><path
       d="m 156.25,114.12 34,0 0,28.25 -34,0 0,-28.25 z"
       style="fill:none;stroke:#000000;stroke-width:1;stroke-linecap:butt;stroke-linejoin:miter;stroke-miterlimit:10;stroke-opacity:1;stroke-dasharray:none"
       id="path144"
       inkscape:connector-curvature="0" /><text
       transform="matrix(1,0,0,-1,168.34,121.42)"
       id="text146"><tspan
         style="font-size:18.02400017px;font-variant:normal;font-weight:bold;writing-mode:lr-tb;fill:#000000;fill-opacity:1;fill-rule:nonzero;stroke:none;font-family:Arial;-inkscape-font-specification:Arial Bold"
         x="0"
         y="0"
         id="tspan148">$</tspan></text>
<path
       d="m 232.75,3.5001 221.13,0 0,82.875 -221.13,0 0,-82.875 z"
       style="fill:#ffcc00;fill-opacity:1;fill-rule:evenodd;stroke:none"
       id="path150"
       inkscape:connector-curvature="0" /><path
       d="m 232.75,3.5001 221.13,0 0,82.875 -221.13,0 0,-82.875 z"
       style="fill:none;stroke:#000000;stroke-width:1;stroke-linecap:butt;stroke-linejoin:miter;stroke-miterlimit:10;stroke-opacity:1;stroke-dasharray:none"
       id="path152"
       inkscape:connector-curvature="0" /><path
       d="m 232.75,69.375 221.13,0"
       style="fill:none;stroke:#000000;stroke-width:1;stroke-linecap:butt;stroke-linejoin:round;stroke-miterlimit:10;stroke-opacity:1;stroke-dasharray:none"
       id="path154"
       inkscape:connector-curvature="0" /><path
       d="m 249.75,3.7501 0,82.6249"
       style="fill:none;stroke:#000000;stroke-width:1;stroke-linecap:butt;stroke-linejoin:round;stroke-miterlimit:10;stroke-opacity:1;stroke-dasharray:none"
       id="path156"
       inkscape:connector-curvature="0" /><path
       d="m 459.5,158 72.28,0 0,4.25 24.1,-8.5 -24.1,-8.5 0,4.25 -72.28,0 0,8.5 z"
       style="fill:#ff6600;fill-opacity:1;fill-rule:evenodd;stroke:none"
       id="path158"
       inkscape:connector-curvature="0" /><path
       d="m 459.5,158 72.28,0 0,4.25 24.1,-8.5 -24.1,-8.5 0,4.25 -72.28,0 0,8.5 z"
       style="fill:none;stroke:#000000;stroke-width:1;stroke-linecap:butt;stroke-linejoin:miter;stroke-miterlimit:8;stroke-opacity:1;stroke-dasharray:none"
       id="path160"
       inkscape:connector-curvature="0" /><path
       d="m 316.25,202 0,9.5 3,0 0,-9.5 -3,0 z m -3,8 4.5,9 4.5,-9 -9,0 z"
       style="fill:#000000;fill-opacity:1;fill-rule:nonzero;stroke:none"
       id="path162"
       inkscape:connector-curvature="0" /><path
       d="m 336.25,111.25 0,-26.5 -3,0 0,26.5 3,0 z m 3,-25 -4.5,-9 -4.5,9 9,0 z"
       style="fill:#000000;fill-opacity:1;fill-rule:nonzero;stroke:none"
       id="path164"
       inkscape:connector-curvature="0" /><path
       d="m 227.12,155.13 -26.5,0 0,3 26.5,0 0,-3 z m -25,-3 -9,4.5 9,4.5 0,-9 z"
       style="fill:#000000;fill-opacity:1;fill-rule:nonzero;stroke:none"
       id="path166"
       inkscape:connector-curvature="0" /><text
       transform="matrix(1,0,0,-1,566.66,140.9)"
       id="text168"><tspan
         style="font-size:24px;font-variant:normal;font-weight:bold;writing-mode:lr-tb;fill:#000000;fill-opacity:1;fill-rule:nonzero;stroke:none;font-family:Arial;-inkscape-font-specification:Arial Bold"
         x="0 16.007999 29.280001 35.952 50.616001"
         y="0"
         sodipodi:role="line"
         id="tspan170">Saída</tspan></text>
<text
       transform="matrix(1,0,0,-1,307.99,27.624)"
       id="text172"><tspan
         style="font-size:18px;font-variant:normal;font-weight:bold;writing-mode:lr-tb;fill:#000000;fill-opacity:1;fill-rule:nonzero;stroke:none;font-family:Arial;-inkscape-font-specification:Arial Bold"
         x="0 9.7200003 19.728001 30.726 40.68 45.683998"
         y="0"
         sodipodi:role="line"
         id="tspan174">Tabela</tspan></text>
<text
       transform="matrix(1,0,0,-1,108.1,150.53)"
       id="text176"><tspan
         style="font-size:18px;font-variant:normal;font-weight:bold;writing-mode:lr-tb;fill:#000000;fill-opacity:1;fill-rule:nonzero;stroke:none;font-family:Arial;-inkscape-font-specification:Arial Bold"
         x="0 12.006 17.01 22.068001 33.066002"
         y="0"
         sodipodi:role="line"
         id="tspan178">Pilha</tspan></text>
<text
       transform="matrix(1,0,0,-1,447.53,224.3)"
       id="text180"><tspan
         style="font-size:18px;font-variant:normal;font-weight:bold;writing-mode:lr-tb;fill:#000000;fill-opacity:1;fill-rule:nonzero;stroke:none;font-family:Arial;-inkscape-font-specification:Arial Bold"
         x="0 12.996 23.993999 29.988001 35.981998 45.990002 52.919998 57.834 68.832001 78.839996 83.844002 93.851997 104.85 110.844 117.846 127.8 138.798"
         y="0"
         sodipodi:role="line"
         id="tspan182">Buffer de entrada</tspan></text>
</g></svg>