<?xml version="1.0" encoding="UTF-8" standalone="no"?>
<!-- Created with Inkscape (http://www.inkscape.org/) -->

<svg
   xmlns:dc="http://purl.org/dc/elements/1.1/"
   xmlns:cc="http://creativecommons.org/ns#"
   xmlns:rdf="http://www.w3.org/1999/02/22-rdf-syntax-ns#"
   xmlns:svg="http://www.w3.org/2000/svg"
   xmlns="http://www.w3.org/2000/svg"
   xmlns:sodipodi="http://sodipodi.sourceforge.net/DTD/sodipodi-0.dtd"
   xmlns:inkscape="http://www.inkscape.org/namespaces/inkscape"
   id="svg3962"
   version="1.1"
   inkscape:version="0.48.3.1 r9886"
   width="727.02509"
   height="505.51004"
   xml:space="preserve"
   sodipodi:docname="encontrando-lacos.svg"><metadata
     id="metadata3968"><rdf:RDF><cc:Work
         rdf:about=""><dc:format>image/svg+xml</dc:format><dc:type
           rdf:resource="http://purl.org/dc/dcmitype/StillImage" /><dc:title></dc:title></cc:Work></rdf:RDF></metadata><defs
     id="defs3966"><clipPath
       clipPathUnits="userSpaceOnUse"
       id="clipPath3976"><path
         d="m 0,1.8311e-4 720,0 0,539.99999689 -720,0 L 0,1.8311e-4 z"
         clip-rule="evenodd"
         id="path3978"
         inkscape:connector-curvature="0" /></clipPath></defs><sodipodi:namedview
     pagecolor="#ffffff"
     bordercolor="#666666"
     borderopacity="1"
     objecttolerance="10"
     gridtolerance="10"
     guidetolerance="10"
     inkscape:pageopacity="0"
     inkscape:pageshadow="2"
     inkscape:window-width="958"
     inkscape:window-height="1061"
     id="namedview3964"
     showgrid="false"
     fit-margin-top="0"
     fit-margin-left="0"
     fit-margin-right="0"
     fit-margin-bottom="0"
     inkscape:zoom="0.98890193"
     inkscape:cx="369.18681"
     inkscape:cy="115.15499"
     inkscape:window-x="0"
     inkscape:window-y="17"
     inkscape:window-maximized="0"
     inkscape:current-layer="g3970" /><g
     id="g3970"
     inkscape:groupmode="layer"
     inkscape:label="Compiladores49-otimizacao2"
     transform="matrix(1.25,0,0,-1.25,-122.97491,587.09095)"><g
       id="g5238"
       transform="translate(0,-20.13846)"><path
         inkscape:connector-curvature="0"
         id="path4118"
         style="fill:none;stroke:#000000;stroke-width:1;stroke-linecap:butt;stroke-linejoin:round;stroke-miterlimit:8;stroke-opacity:1;stroke-dasharray:none"
         d="m 446.5,448.22666 c 0,11.57 9.54,20.94 21.31,20.94 0,0 0,0 0,0 l 0,0 c 11.77,0 21.32,-9.37 21.32,-20.94 0,0 0,0 0,0 l 0,0 c 0,-11.56 -9.55,-20.94 -21.32,-20.94 0,0 0,0 0,0 l 0,0 c -11.77,0 -21.31,9.38 -21.31,20.94 0,0 0,0 0,0 z" /><text
         y="-440.38666"
         x="463.26999"
         id="text4122"
         transform="scale(1,-1)"><tspan
           id="tspan4124"
           y="-440.38666"
           x="463.26999"
           style="font-size:18px;font-variant:normal;font-weight:normal;writing-mode:lr-tb;fill:#000000;fill-opacity:1;fill-rule:nonzero;stroke:none;font-family:Arial;-inkscape-font-specification:Arial">1</tspan></text>
<path
         inkscape:connector-curvature="0"
         id="path4128"
         style="fill:none;stroke:#000000;stroke-width:1;stroke-linecap:butt;stroke-linejoin:round;stroke-miterlimit:8;stroke-opacity:1;stroke-dasharray:none"
         d="m 390,387.35666 c 0,11.56 9.54,20.93 21.31,20.93 0,0 0,0 0,0 l 0,0 c 11.77,0 21.32,-9.37 21.32,-20.93 0,0 0,0 0,0 l 0,0 c 0,-11.57 -9.55,-20.94 -21.32,-20.94 0,0 0,0 0,0 l 0,0 c -11.77,0 -21.31,9.37 -21.31,20.94 0,0 0,0 0,0 z" /><text
         y="-379.49667"
         x="406.78"
         id="text4132"
         transform="scale(1,-1)"><tspan
           id="tspan4134"
           y="-379.49667"
           x="406.78"
           style="font-size:18px;font-variant:normal;font-weight:normal;writing-mode:lr-tb;fill:#000000;fill-opacity:1;fill-rule:nonzero;stroke:none;font-family:Arial;-inkscape-font-specification:Arial">2</tspan></text>
<path
         inkscape:connector-curvature="0"
         id="path4138"
         style="fill:none;stroke:#000000;stroke-width:1;stroke-linecap:butt;stroke-linejoin:round;stroke-miterlimit:8;stroke-opacity:1;stroke-dasharray:none"
         d="m 500.63,385.97666 c 0,11.57 9.54,20.94 21.31,20.94 0,0 0,0 0,0 l 0,0 c 11.77,0 21.31,-9.37 21.31,-20.94 0,0 0,0 0,0 l 0,0 c 0,-11.56 -9.54,-20.94 -21.31,-20.94 0,0 0,0 0,0 l 0,0 c -11.77,0 -21.31,9.38 -21.31,20.94 0,0 0,0 0,0 z" /><text
         y="-378.13666"
         x="517.41998"
         id="text4142"
         transform="scale(1,-1)"><tspan
           id="tspan4144"
           y="-378.13666"
           x="517.41998"
           style="font-size:18px;font-variant:normal;font-weight:normal;writing-mode:lr-tb;fill:#000000;fill-opacity:1;fill-rule:nonzero;stroke:none;font-family:Arial;-inkscape-font-specification:Arial">3</tspan></text>
<path
         inkscape:connector-curvature="0"
         id="path4148"
         style="fill:none;stroke:#000000;stroke-width:1;stroke-linecap:butt;stroke-linejoin:round;stroke-miterlimit:8;stroke-opacity:1;stroke-dasharray:none"
         d="m 501.88,316.22666 c 0,11.57 9.54,20.94 21.31,20.94 0,0 0,0 0,0 l 0,0 c 11.77,0 21.31,-9.37 21.31,-20.94 0,0 0,0 0,0 l 0,0 c 0,-11.56 -9.54,-20.94 -21.31,-20.94 0,0 0,0 0,0 l 0,0 c -11.77,0 -21.31,9.38 -21.31,20.94 0,0 0,0 0,0 z" /><text
         y="-308.36667"
         x="518.65997"
         id="text4152"
         transform="scale(1,-1)"><tspan
           id="tspan4154"
           y="-308.36667"
           x="518.65997"
           style="font-size:18px;font-variant:normal;font-weight:normal;writing-mode:lr-tb;fill:#000000;fill-opacity:1;fill-rule:nonzero;stroke:none;font-family:Arial;-inkscape-font-specification:Arial">4</tspan></text>
<path
         inkscape:connector-curvature="0"
         id="path4158"
         style="fill:none;stroke:#000000;stroke-width:1;stroke-linecap:butt;stroke-linejoin:round;stroke-miterlimit:8;stroke-opacity:1;stroke-dasharray:none"
         d="m 421.38,256.22666 c 0,11.57 9.54,20.94 21.31,20.94 0,0 0,0 0,0 l 0,0 c 11.77,0 21.31,-9.37 21.31,-20.94 0,0 0,0 0,0 l 0,0 c 0,-11.56 -9.54,-20.94 -21.31,-20.94 0,0 0,0 0,0 l 0,0 c -11.77,0 -21.31,9.38 -21.31,20.94 0,0 0,0 0,0 z" /><text
         y="-248.33665"
         x="438.14001"
         id="text4162"
         transform="scale(1,-1)"><tspan
           id="tspan4164"
           y="-248.33665"
           x="438.14001"
           style="font-size:18px;font-variant:normal;font-weight:normal;writing-mode:lr-tb;fill:#000000;fill-opacity:1;fill-rule:nonzero;stroke:none;font-family:Arial;-inkscape-font-specification:Arial">5</tspan></text>
<path
         inkscape:connector-curvature="0"
         id="path4168"
         style="fill:none;stroke:#000000;stroke-width:1;stroke-linecap:butt;stroke-linejoin:round;stroke-miterlimit:8;stroke-opacity:1;stroke-dasharray:none"
         d="m 503.5,251.35666 c 0,11.56 9.54,20.93 21.31,20.93 0,0 0,0 0,0 l 0,0 c 11.77,0 21.32,-9.37 21.32,-20.93 0,0 0,0 0,0 l 0,0 c 0,-11.57 -9.55,-20.94 -21.32,-20.94 0,0 0,0 0,0 l 0,0 c -11.77,0 -21.31,9.37 -21.31,20.94 0,0 0,0 0,0 z" /><text
         y="-243.46666"
         x="520.29999"
         id="text4172"
         transform="scale(1,-1)"><tspan
           id="tspan4174"
           y="-243.46666"
           x="520.29999"
           style="font-size:18px;font-variant:normal;font-weight:normal;writing-mode:lr-tb;fill:#000000;fill-opacity:1;fill-rule:nonzero;stroke:none;font-family:Arial;-inkscape-font-specification:Arial">6</tspan></text>
<path
         inkscape:connector-curvature="0"
         id="path4178"
         style="fill:none;stroke:#000000;stroke-width:1;stroke-linecap:butt;stroke-linejoin:round;stroke-miterlimit:8;stroke-opacity:1;stroke-dasharray:none"
         d="m 585.75,256.22666 c 0,11.57 9.54,20.94 21.31,20.94 0,0 0,0 0,0 l 0,0 c 11.77,0 21.32,-9.37 21.32,-20.94 0,0 0,0 0,0 l 0,0 c 0,-11.56 -9.55,-20.94 -21.32,-20.94 0,0 0,0 0,0 l 0,0 c -11.77,0 -21.31,9.38 -21.31,20.94 0,0 0,0 0,0 z" /><text
         y="-248.33665"
         x="602.53998"
         id="text4182"
         transform="scale(1,-1)"><tspan
           id="tspan4184"
           y="-248.33665"
           x="602.53998"
           style="font-size:18px;font-variant:normal;font-weight:normal;writing-mode:lr-tb;fill:#000000;fill-opacity:1;fill-rule:nonzero;stroke:none;font-family:Arial;-inkscape-font-specification:Arial">7</tspan></text>
<path
         inkscape:connector-curvature="0"
         id="path4188"
         style="fill:none;stroke:#000000;stroke-width:1;stroke-linecap:butt;stroke-linejoin:round;stroke-miterlimit:8;stroke-opacity:1;stroke-dasharray:none"
         d="m 588.88,179.35666 c 0,11.56 9.54,20.94 21.31,20.93 0,0 0,0 0,0 l 0,0 c 11.77,0 21.31,-9.37 21.31,-20.93 0,0 0,0 0,0 l 0,0 c 0,-11.57 -9.54,-20.94 -21.31,-20.94 0,0 0,0 0,0 l 0,0 c -11.77,0 -21.31,9.37 -21.31,20.94 0,0 0,0 0,0 z" /><text
         y="-171.44666"
         x="605.65997"
         id="text4192"
         transform="scale(1,-1)"><tspan
           id="tspan4194"
           y="-171.44666"
           x="605.65997"
           style="font-size:18px;font-variant:normal;font-weight:normal;writing-mode:lr-tb;fill:#000000;fill-opacity:1;fill-rule:nonzero;stroke:none;font-family:Arial;-inkscape-font-specification:Arial">8</tspan></text>
<path
         inkscape:connector-curvature="0"
         id="path4198"
         style="fill:none;stroke:#000000;stroke-width:1;stroke-linecap:butt;stroke-linejoin:round;stroke-miterlimit:8;stroke-opacity:1;stroke-dasharray:none"
         d="m 536.88,129.22866 c 0,11.564 9.54,20.938 21.31,20.938 0,0 0,0 0,0 l 0,0 c 11.77,0 21.31,-9.374 21.31,-20.938 0,0 0,0 0,0 l 0,0 c 0,-11.563 -9.54,-20.937 -21.31,-20.937 0,0 0,0 0,0 l 0,0 c -11.77,0 -21.31,9.374 -21.31,20.937 0,0 0,0 0,0 z" /><text
         y="-121.30866"
         x="553.65997"
         id="text4202"
         transform="scale(1,-1)"><tspan
           id="tspan4204"
           y="-121.30866"
           x="553.65997"
           style="font-size:18px;font-variant:normal;font-weight:normal;writing-mode:lr-tb;fill:#000000;fill-opacity:1;fill-rule:nonzero;stroke:none;font-family:Arial;-inkscape-font-specification:Arial">9</tspan></text>
<path
         inkscape:connector-curvature="0"
         id="path4208"
         style="fill:none;stroke:#000000;stroke-width:1;stroke-linecap:butt;stroke-linejoin:round;stroke-miterlimit:8;stroke-opacity:1;stroke-dasharray:none"
         d="m 636.88,126.97866 c 0,11.564 9.54,20.938 21.31,20.938 0,0 0,0 0,0 l 0,0 c 11.77,0 21.31,-9.374 21.31,-20.938 0,0 0,0 0,0 l 0,0 c 0,-11.563 -9.54,-20.937 -21.31,-20.937 0,0 0,0 0,0 l 0,0 c -11.77,0 -21.31,9.374 -21.31,20.937 0,0 0,0 0,0 z" /><text
         y="-119.05266"
         x="647.41998"
         id="text4212"
         transform="scale(1,-1)"><tspan
           id="tspan4214"
           sodipodi:role="line"
           y="-119.05266"
           x="647.41998 657.38"
           style="font-size:18px;font-variant:normal;font-weight:normal;writing-mode:lr-tb;fill:#000000;fill-opacity:1;fill-rule:nonzero;stroke:none;font-family:Arial;-inkscape-font-specification:Arial">10</tspan></text>
<path
         inkscape:connector-curvature="0"
         id="path4216"
         style="fill:none;stroke:#000000;stroke-width:1;stroke-linecap:butt;stroke-linejoin:round;stroke-miterlimit:8;stroke-opacity:1;stroke-dasharray:none"
         d="m 450.63,433.41666 -27.5,-30.13" /><path
         inkscape:connector-curvature="0"
         id="path4218"
         style="fill:none;stroke:#000000;stroke-width:1;stroke-linecap:butt;stroke-linejoin:round;stroke-miterlimit:8;stroke-opacity:1;stroke-dasharray:none"
         d="m 483.5,432.53666 26.75,-30.12" /><path
         inkscape:connector-curvature="0"
         id="path4220"
         style="fill:none;stroke:#000000;stroke-width:1;stroke-linecap:butt;stroke-linejoin:round;stroke-miterlimit:8;stroke-opacity:1;stroke-dasharray:none"
         d="m 520.88,364.16666 0,-28.5" /><path
         inkscape:connector-curvature="0"
         id="path4222"
         style="fill:none;stroke:#000000;stroke-width:1;stroke-linecap:butt;stroke-linejoin:round;stroke-miterlimit:8;stroke-opacity:1;stroke-dasharray:none"
         d="m 505.75,303.66666 -48.87,-34.62" /><path
         inkscape:connector-curvature="0"
         id="path4224"
         style="fill:none;stroke:#000000;stroke-width:1;stroke-linecap:butt;stroke-linejoin:round;stroke-miterlimit:8;stroke-opacity:1;stroke-dasharray:none"
         d="m 525.38,295.66666 0,-24" /><path
         inkscape:connector-curvature="0"
         id="path4226"
         style="fill:none;stroke:#000000;stroke-width:1;stroke-linecap:butt;stroke-linejoin:round;stroke-miterlimit:8;stroke-opacity:1;stroke-dasharray:none"
         d="m 541.38,301.91666 56,-30.25" /><path
         inkscape:connector-curvature="0"
         id="path4228"
         style="fill:none;stroke:#000000;stroke-width:1;stroke-linecap:butt;stroke-linejoin:round;stroke-miterlimit:8;stroke-opacity:1;stroke-dasharray:none"
         d="m 608.88,235.29666 0,-34.75" /><path
         inkscape:connector-curvature="0"
         id="path4230"
         style="fill:none;stroke:#000000;stroke-width:1;stroke-linecap:butt;stroke-linejoin:round;stroke-miterlimit:8;stroke-opacity:1;stroke-dasharray:none"
         d="m 593.75,164.16666 -22.25,-17.75" /><path
         inkscape:connector-curvature="0"
         id="path4232"
         style="fill:none;stroke:#000000;stroke-width:1;stroke-linecap:butt;stroke-linejoin:round;stroke-miterlimit:8;stroke-opacity:1;stroke-dasharray:none"
         d="m 626.63,165.91666 20.5,-19.5" /></g><g
       id="g5192"><path
         inkscape:connector-curvature="0"
         id="path30"
         style="fill:none;stroke:#000000;stroke-width:1;stroke-linecap:butt;stroke-linejoin:round;stroke-miterlimit:10;stroke-opacity:1;stroke-dasharray:none"
         d="m 194.73993,448.23666 c 0,11.56 9.54,20.93 21.31,20.93 0,0 0,0 0,0 l 0,0 c 11.77,0 21.31,-9.37 21.31,-20.93 0,0 0,0 0,0 l 0,0 c 0,-11.57 -9.54,-20.94 -21.31,-20.94 0,0 0,0 0,0 l 0,0 c -11.77,0 -21.31,9.37 -21.31,20.94 0,0 0,0 0,0 z" /><text
         transform="scale(1,-1)"
         style="font-size:12px;fill:#000000;fill-opacity:1"
         id="text34"
         x="211.49992"
         y="-440.52664"><tspan
           id="tspan36"
           y="-440.52664"
           x="211.49992"
           style="font-size:18px;font-variant:normal;font-weight:normal;writing-mode:lr-tb;fill:#000000;fill-opacity:1;fill-rule:nonzero;stroke:none;font-family:Arial;-inkscape-font-specification:Arial">1</tspan></text>
<path
         inkscape:connector-curvature="0"
         id="path40"
         style="fill:none;stroke:#000000;stroke-width:1;stroke-linecap:butt;stroke-linejoin:round;stroke-miterlimit:8;stroke-opacity:1;stroke-dasharray:none"
         d="m 126.60993,402.35666 c 0,11.57 9.54,20.94 21.31,20.94 0,0 0,0 0,0 l 0,0 c 11.77,0 21.32,-9.37 21.32,-20.94 0,0 0,0 0,0 l 0,0 c 0,-11.56 -9.55,-20.94 -21.32,-20.94 0,0 0,0 0,0 l 0,0 c -11.77,0 -21.31,9.38 -21.31,20.94 0,0 0,0 0,0 z" /><text
         transform="scale(1,-1)"
         style="font-size:12px;fill:#000000;fill-opacity:1"
         id="text44"
         x="143.35994"
         y="-394.63666"><tspan
           id="tspan46"
           y="-394.63666"
           x="143.35994"
           style="font-size:18px;font-variant:normal;font-weight:normal;writing-mode:lr-tb;fill:#000000;fill-opacity:1;fill-rule:nonzero;stroke:none;font-family:Arial;-inkscape-font-specification:Arial">2</tspan></text>
<path
         inkscape:connector-curvature="0"
         id="path50"
         style="fill:none;stroke:#000000;stroke-width:1;stroke-linecap:butt;stroke-linejoin:round;stroke-miterlimit:8;stroke-opacity:1;stroke-dasharray:none"
         d="m 198.35993,368.23666 c 0,11.56 9.54,20.93 21.31,20.93 0,0 0,0 0,0 l 0,0 c 11.77,0 21.32,-9.37 21.32,-20.93 0,0 0,0 0,0 l 0,0 c 0,-11.57 -9.55,-20.94 -21.32,-20.94 0,0 0,0 0,0 l 0,0 c -11.77,0 -21.31,9.37 -21.31,20.94 0,0 0,0 0,0 z" /><text
         transform="scale(1,-1)"
         style="font-size:12px;fill:#000000;fill-opacity:1"
         id="text54"
         x="215.11992"
         y="-360.50665"><tspan
           id="tspan56"
           y="-360.50665"
           x="215.11992"
           style="font-size:18px;font-variant:normal;font-weight:normal;writing-mode:lr-tb;fill:#000000;fill-opacity:1;fill-rule:nonzero;stroke:none;font-family:Arial;-inkscape-font-specification:Arial">3</tspan></text>
<path
         inkscape:connector-curvature="0"
         id="path60"
         style="fill:none;stroke:#000000;stroke-width:1;stroke-linecap:butt;stroke-linejoin:round;stroke-miterlimit:8;stroke-opacity:1;stroke-dasharray:none"
         d="m 198.73993,308.10666 c 0,11.57 9.54,20.94 21.31,20.94 0,0 0,0 0,0 l 0,0 c 11.77,0 21.31,-9.37 21.31,-20.94 0,0 0,0 0,0 l 0,0 c 0,-11.56 -9.54,-20.94 -21.31,-20.94 0,0 0,0 0,0 l 0,0 c -11.77,0 -21.31,9.38 -21.31,20.94 0,0 0,0 0,0 z" /><text
         transform="scale(1,-1)"
         style="font-size:12px;fill:#000000;fill-opacity:1"
         id="text64"
         x="215.47993"
         y="-300.36667"><tspan
           id="tspan66"
           y="-300.36667"
           x="215.47993"
           style="font-size:18px;font-variant:normal;font-weight:normal;writing-mode:lr-tb;fill:#000000;fill-opacity:1;fill-rule:nonzero;stroke:none;font-family:Arial;-inkscape-font-specification:Arial">4</tspan></text>
<path
         inkscape:connector-curvature="0"
         id="path70"
         style="fill:none;stroke:#000000;stroke-width:1;stroke-linecap:butt;stroke-linejoin:round;stroke-miterlimit:8;stroke-opacity:1;stroke-dasharray:none"
         d="m 152.98993,253.35666 c 0,11.57 9.54,20.94 21.31,20.94 0,0 0,0 0,0 l 0,0 c 11.77,0 21.31,-9.37 21.31,-20.94 0,0 0,0 0,0 l 0,0 c 0,-11.56 -9.54,-20.94 -21.31,-20.94 0,0 0,0 0,0 l 0,0 c -11.77,0 -21.31,9.38 -21.31,20.94 0,0 0,0 0,0 z" /><text
         transform="scale(1,-1)"
         style="font-size:12px;fill:#000000;fill-opacity:1"
         id="text74"
         x="169.73991"
         y="-245.59666"><tspan
           id="tspan76"
           y="-245.59666"
           x="169.73991"
           style="font-size:18px;font-variant:normal;font-weight:normal;writing-mode:lr-tb;fill:#000000;fill-opacity:1;fill-rule:nonzero;stroke:none;font-family:Arial;-inkscape-font-specification:Arial">5</tspan></text>
<path
         inkscape:connector-curvature="0"
         id="path80"
         style="fill:none;stroke:#000000;stroke-width:1;stroke-linecap:butt;stroke-linejoin:round;stroke-miterlimit:8;stroke-opacity:1;stroke-dasharray:none"
         d="m 243.98993,255.48666 c 0,11.56 9.54,20.93 21.31,20.93 0,0 0,0 0,0 l 0,0 c 11.77,0 21.31,-9.37 21.31,-20.93 0,0 0,0 0,0 l 0,0 c 0,-11.57 -9.54,-20.94 -21.31,-20.94 0,0 0,0 0,0 l 0,0 c -11.77,0 -21.31,9.37 -21.31,20.94 0,0 0,0 0,0 z" /><text
         transform="scale(1,-1)"
         style="font-size:12px;fill:#000000;fill-opacity:1"
         id="text84"
         x="260.7399"
         y="-247.72667"><tspan
           id="tspan86"
           y="-247.72667"
           x="260.7399"
           style="font-size:18px;font-variant:normal;font-weight:normal;writing-mode:lr-tb;fill:#000000;fill-opacity:1;fill-rule:nonzero;stroke:none;font-family:Arial;-inkscape-font-specification:Arial">6</tspan></text>
<path
         inkscape:connector-curvature="0"
         id="path90"
         style="fill:none;stroke:#000000;stroke-width:1;stroke-linecap:butt;stroke-linejoin:round;stroke-miterlimit:8;stroke-opacity:1;stroke-dasharray:none"
         d="m 200.85993,205.23666 c 0,11.56 9.54,20.93 21.31,20.93 0,0 0,0 0,0 l 0,0 c 11.77,0 21.32,-9.37 21.32,-20.93 0,0 0,0 0,0 l 0,0 c 0,-11.57 -9.55,-20.94 -21.32,-20.94 0,0 0,0 0,0 l 0,0 c -11.77,0 -21.31,9.37 -21.31,20.94 0,0 0,0 0,0 z" /><text
         transform="scale(1,-1)"
         style="font-size:12px;fill:#000000;fill-opacity:1"
         id="text94"
         x="217.61992"
         y="-197.47667"><tspan
           id="tspan96"
           y="-197.47667"
           x="217.61992"
           style="font-size:18px;font-variant:normal;font-weight:normal;writing-mode:lr-tb;fill:#000000;fill-opacity:1;fill-rule:nonzero;stroke:none;font-family:Arial;-inkscape-font-specification:Arial">7</tspan></text>
<path
         inkscape:connector-curvature="0"
         id="path100"
         style="fill:none;stroke:#000000;stroke-width:1;stroke-linecap:butt;stroke-linejoin:round;stroke-miterlimit:8;stroke-opacity:1;stroke-dasharray:none"
         d="m 201.23993,148.10666 c 0,11.57 9.54,20.94 21.31,20.94 0,0 0,0 0,0 l 0,0 c 11.77,0 21.31,-9.37 21.31,-20.94 0,0 0,0 0,0 l 0,0 c 0,-11.56 -9.54,-20.94 -21.31,-20.94 0,0 0,0 0,0 l 0,0 c -11.77,0 -21.31,9.38 -21.31,20.94 0,0 0,0 0,0 z" /><text
         transform="scale(1,-1)"
         style="font-size:12px;fill:#000000;fill-opacity:1"
         id="text104"
         x="217.99992"
         y="-140.20665"><tspan
           id="tspan106"
           y="-140.20665"
           x="217.99992"
           style="font-size:18px;font-variant:normal;font-weight:normal;writing-mode:lr-tb;fill:#000000;fill-opacity:1;fill-rule:nonzero;stroke:none;font-family:Arial;-inkscape-font-specification:Arial">8</tspan></text>
<path
         inkscape:connector-curvature="0"
         id="path110"
         style="fill:none;stroke:#000000;stroke-width:1;stroke-linecap:butt;stroke-linejoin:round;stroke-miterlimit:8;stroke-opacity:1;stroke-dasharray:none"
         d="m 145.60993,104.98466 c 0,11.562 9.54,20.932 21.31,20.932 0,0 0,0 0,0 l 0,0 c 11.77,0 21.32,-9.37 21.32,-20.932 0,-8e-4 0,-8e-4 0,-8e-4 l 0,0 c 0,-11.563001 -9.55,-20.937002 -21.32,-20.937002 0,0 0,0 0,0 l 0,0 c -11.77,0 -21.31,9.374 -21.31,20.937002 0,0 0,0 0,0 l 0,8e-4 z" /><text
         transform="scale(1,-1)"
         style="font-size:12px;fill:#000000;fill-opacity:1"
         id="text114"
         x="162.36992"
         y="-97.058647"><tspan
           id="tspan116"
           y="-97.058647"
           x="162.36992"
           style="font-size:18px;font-variant:normal;font-weight:normal;writing-mode:lr-tb;fill:#000000;fill-opacity:1;fill-rule:nonzero;stroke:none;font-family:Arial;-inkscape-font-specification:Arial">9</tspan></text>
<path
         inkscape:connector-curvature="0"
         id="path120"
         style="fill:none;stroke:#000000;stroke-width:1;stroke-linecap:butt;stroke-linejoin:round;stroke-miterlimit:8;stroke-opacity:1;stroke-dasharray:none"
         d="m 257.23993,105.48466 c 0,11.562 9.54,20.932 21.31,20.932 0,0 0,0 0,0 l 0,0 c 11.77,0 21.31,-9.37 21.31,-20.932 0,-8e-4 0,-8e-4 0,-8e-4 l 0,0 c 0,-11.563001 -9.54,-20.937002 -21.31,-20.937002 0,0 0,0 0,0 l 0,0 c -11.77,0 -21.31,9.374 -21.31,20.937002 0,0 0,0 0,0 l 0,8e-4 z" /><text
         transform="scale(1,-1)"
         style="font-size:12px;fill:#000000;fill-opacity:1"
         id="text124"
         x="267.74991"
         y="-98.450668"><tspan
           id="tspan126"
           sodipodi:role="line"
           y="-98.450668"
           x="267.74991 277.70993"
           style="font-size:18px;font-variant:normal;font-weight:normal;writing-mode:lr-tb;fill:#000000;fill-opacity:1;fill-rule:nonzero;stroke:none;font-family:Arial;-inkscape-font-specification:Arial">10</tspan></text>
<path
         inkscape:connector-curvature="0"
         id="path128"
         style="fill:#000000;fill-opacity:1;fill-rule:nonzero;stroke:none"
         d="m 195.90993,441.14666 -28.89,-21.86 -0.6,0.8 28.89,21.86 0.6,-0.8 z m -26.58,-23.25 -6.6,-1.22 2.98,6.01 3.62,-4.79 z" /><path
         inkscape:connector-curvature="0"
         id="path130"
         style="fill:#000000;fill-opacity:1;fill-rule:nonzero;stroke:none"
         d="m 220.10993,426.42666 0,-31.5 -1,0 0,31.5 1,0 z m 2.5,-30.5 -3,-6 -3,6 6,0 z" /><path
         inkscape:connector-curvature="0"
         id="path132"
         style="fill:#000000;fill-opacity:1;fill-rule:nonzero;stroke:none"
         d="m 219.22993,347.29666 0,-14.5 -1,0 0,14.5 1,0 z m 2.5,-13.5 -3,-6 -3,6 6,0 z" /><path
         inkscape:connector-curvature="0"
         id="path134"
         style="fill:#000000;fill-opacity:1;fill-rule:nonzero;stroke:none"
         d="m 209.33993,288.31666 -15.1,-15.2 -0.71,0.7 15.1,15.21 0.71,-0.71 z m -12.62,-16.25 -6.36,-2.14 2.1,6.37 4.26,-4.23 z" /><path
         inkscape:connector-curvature="0"
         id="path136"
         style="fill:#000000;fill-opacity:1;fill-rule:nonzero;stroke:none"
         d="m 188.83993,237.39666 11.59,-11.59 -0.71,-0.7 -11.59,11.59 0.71,0.7 z m 12.65,-9.11 2.12,-6.36 -6.36,2.12 4.24,4.24 z" /><path
         inkscape:connector-curvature="0"
         id="path138"
         style="fill:#000000;fill-opacity:1;fill-rule:nonzero;stroke:none"
         d="m 236.83993,292.52666 12.46,-12.47 -0.7,-0.7 -12.47,12.46 0.71,0.71 z m 13.52,-9.99 2.12,-6.36 -6.36,2.12 4.24,4.24 z" /><path
         inkscape:connector-curvature="0"
         id="path140"
         style="fill:#000000;fill-opacity:1;fill-rule:nonzero;stroke:none"
         d="m 253.70993,234.94666 -10.6,-10.7 -0.71,0.7 10.6,10.7 0.71,-0.7 z m -8.12,-11.75 -6.36,-2.15 2.1,6.37 4.26,-4.22 z" /><path
         inkscape:connector-curvature="0"
         id="path142"
         style="fill:#000000;fill-opacity:1;fill-rule:nonzero;stroke:none"
         d="m 221.85993,183.76666 -0.62,-11.88 -1,0.05 0.62,11.89 1,-0.06 z m 1.93,-11.01 -3.31,-5.83 -2.68,6.14 5.99,-0.31 z" /><path
         inkscape:connector-curvature="0"
         id="path144"
         style="fill:#000000;fill-opacity:1;fill-rule:nonzero;stroke:none"
         d="m 201.33993,138.94666 -14.22,-14.22 -0.7,0.71 14.21,14.21 0.71,-0.7 z m -11.74,-15.28 -6.37,-2.12 2.13,6.36 4.24,-4.24 z" /><path
         inkscape:connector-curvature="0"
         id="path146"
         style="fill:#000000;fill-opacity:1;fill-rule:nonzero;stroke:none"
         d="m 242.16993,137.06666 15.55,-12.06 -0.62,-0.79 -15.55,12.06 0.62,0.79 z m 16.29,-9.47 2.9,-6.05 -6.58,1.31 3.68,4.74 z" /><path
         inkscape:connector-curvature="0"
         id="path148"
         style="fill:#000000;fill-opacity:1;fill-rule:nonzero;stroke:none"
         d="m 282.30993,127.53666 -38.23,61.5 0.84,0.53 38.24,-61.51 -0.85,-0.52 z m -39.83,59.33 -0.62,6.68 5.72,-3.51 -5.1,-3.17 z" /><path
         inkscape:connector-curvature="0"
         id="path150"
         style="fill:#000000;fill-opacity:1;fill-rule:nonzero;stroke:none"
         d="m 147.57993,93.420659 -0.64,0.04496 -0.71,0.02104 -0.8,0 -0.89,-0.01496 -0.97,-0.03 -1.05,-0.03696 -1.1,-0.052 -1.17,-0.06 -1.23,-0.05304 -1.27,-0.06 -2.66,-0.105 -2.78,-0.068 -2.85,-0.0072 -2.88,0.07496 -2.85,0.181001 -2.78,0.316999 -2.67,0.469 -1.29,0.306 -1.23,0.3512 -1.18,0.405 -1.13,0.461 -1.05,0.524 -1,0.579 -0.91,0.655 -0.83,0.719 -1.45,1.467003 -1.27,1.470999 -1.13,1.514 -1,1.585 -0.86,1.689 -0.75,1.829 -0.34,0.979 -0.31,1.017 -0.29,1.063 -0.26,1.118 -0.24,1.177 -0.23,1.233 -0.21,1.293 -0.2,1.37 -0.18,1.45 -0.17,1.51 -0.16,1.6 -0.16,1.68 -0.14,1.77 -0.15,1.87 -0.13,1.97 -0.130002,2.07 -0.13,2.17 -0.14,2.29 -0.13,2.4 -0.14,2.52 -0.14,2.64 -0.14,2.76 -0.23,5.88 -0.19,6.31 -0.13,6.72 -0.09,7.07 -0.06,7.42 0,7.7 0.03,7.98 0.07,8.2 0.11,8.4 0.15,8.56 0.19,8.69 0.46,17.62 0.6,17.71 0.140002,4.52 0.09,4.68 0.04,4.85 0.01,5.01 -0.03,5.13 -0.06,5.27 -0.15,10.82 -0.180002,11.11 -0.18,11.3 -0.1,11.36 0.01,11.3 0.17,11.11 0.380002,10.82 0.29,5.26 0.35,5.13 0.43,5.01 0.51,4.85 0.6,4.69 0.7,4.51 0.8,4.32 0.9,4.1 1.02,3.88 1.14,3.65 1.26,3.38 1.4,3.13 0.75,1.48 0.79,1.42 0.8,1.37 0.83,1.33 1.74,2.52 1.84,2.36 1.94,2.18 2.03,2.03 2.12,1.88 2.21,1.73 2.29,1.58 2.36,1.44 2.44,1.32 2.51,1.19 2.58,1.07 2.63,0.96 2.71,0.84 2.76,0.75 2.8,0.66 2.86,0.56 2.91,0.48 2.94,0.4 2.99,0.34 3.03,0.26 3.05,0.21 3.09,0.15 3.1,0.12 3.14,0.06 6.31,0.04 6.38,-0.07 1.39,-0.03 -0.02,-1 -1.38,0.03 -6.36,0.07 -6.3,-0.04 -3.12,-0.06 -3.09,-0.11 -3.07,-0.15 -3.03,-0.21 -3.01,-0.26 -2.96,-0.34 -2.92,-0.4 -2.87,-0.47 -2.83,-0.55 -2.77,-0.65 -2.72,-0.74 -2.66,-0.83 -2.6,-0.95 -2.53,-1.04 -2.46,-1.17 -2.4,-1.29 -2.31,-1.41 -2.24,-1.55 -2.16,-1.69 -2.08,-1.83 -1.99,-1.99 -1.9,-2.14 -1.81,-2.31 -1.71,-2.48 -0.82,-1.3 -0.79,-1.36 -0.77,-1.38 -0.73,-1.44 -1.37,-3.06 -1.25,-3.34 -1.12,-3.6 -1.01,-3.84 -0.9,-4.07 -0.79,-4.29 -0.7,-4.48 -0.6,-4.67 -0.5,-4.84 -0.43,-4.98 -0.35,-5.13 -0.29,-5.24 -0.38,-10.79 -0.17,-11.11 -0.01,-11.29 0.1,-11.35 0.18,-11.29 0.18,-11.12 0.15,-10.82 0.06,-5.27 0.03,-5.14 -0.01,-5.01 -0.05,-4.87 -0.09,-4.69 -0.13,-4.52 -0.6,-17.71 -0.470002,-17.62 -0.18,-8.68 -0.15,-8.55 -0.11,-8.39 -0.07,-8.21 -0.03,-7.97 0,-7.7 0.06,-7.4 0.09,-7.07 0.13,-6.71 0.19,-6.3 0.230002,-5.87 0.14,-2.76 0.14,-2.64 0.13,-2.52 0.14,-2.39 0.13,-2.28 0.14,-2.18 0.13,-2.06 0.13,-1.96 0.14,-1.86 0.15,-1.77 0.15,-1.68 0.16,-1.58 0.17,-1.5 0.18,-1.43 0.19,-1.35 0.21,-1.272 0.22,-1.212 0.24,-1.148 0.26,-1.087 0.28,-1.037 0.29,-0.978 0.33,-0.926 0.71,-1.756 0.82,-1.61 0.95,-1.521 1.08,-1.456 1.23,-1.424 1.39,-1.412999 0.76,-0.661003 0.84,-0.605 0.93,-0.546 0.99,-0.495 1.07,-0.44 1.13,-0.39 1.19,-0.339 1.23,-0.294 2.61,-0.461 2.73,-0.312 2.82,-0.18 2.84,-0.074 2.84,0.0072 2.76,0.06704 2.65,0.105 1.28,0.06 1.22,0.052 1.17,0.06104 1.12,0.052 1.05,0.038 0.98,0.03 0.91,0.01496 0.83,0 0.75,-0.024 0.64,-0.04496 -0.07,-0.99728 z m 40.31,362.726001 5.95,-3.1 -6.05,-2.9 0.1,6 z" /><path
         inkscape:connector-curvature="0"
         id="path152"
         style="fill:#000000;fill-opacity:1;fill-rule:nonzero;stroke:none"
         d="m 221.11993,125.87666 -0.79,-8 -0.37,-3.95 -0.34,-3.896 -0.32,-3.83 -0.28,-3.746 -0.21,-3.629998 -0.17,-3.519003 -0.1,-3.382 -0.03,-3.213 0.03,-1.542 0.03,-1.502 0.07,-1.452 0.08,-1.404 0.12,-1.345 0.14,-1.292 0.16,-1.234 0.19,-1.177 0.22,-1.119 0.25,-1.043 0.28,-0.985 0.31,-0.915 0.33,-0.839 0.33,-0.764 0.34,-0.689 0.35,-0.6 0.36,-0.547 0.36,-0.474 0.38,-0.408 0.39,-0.351 0.4,-0.301 0.41,-0.238 0.44,-0.213 0.45,-0.159 1.03,-0.231 1.11,-0.094 1.27,0.009 1.42,0.082 1.57,0.148 1.76,0.173 0.93,0.09 1,0.09 1.03,0.083 1.09,0.07496 1.14,0.06096 1.18,0.04504 1.24,0.02304 1.3,0 1.39,-0.03 1.51,-0.07496 1.62,-0.106 1.73,-0.128 1.82,-0.158 1.91,-0.18 1.98,-0.188 2.05,-0.195 2.12,-0.202 2.16,-0.195 4.45,-0.375 4.56,-0.306 4.61,-0.21 2.28,-0.052 2.27,-0.0072 2.24,0.03696 2.22,0.082 2.16,0.142 2.11,0.201 2.06,0.268 1.98,0.335 1.9,0.408 1.82,0.49 1.71,0.568999 1.61,0.656001 1.5,0.748999 1.37,0.848001 1.24,0.941 1.11,1.045 0.99,1.091 0.92,1.074999 0.83,1.056001 0.73,1.037999 0.65,1.035 0.58,1.048 0.51,1.054 0.43,1.088 0.38,1.119 0.31,1.172 0.26,1.228 0.22,1.296 0.16,1.365 0.12,1.466 0.09,1.556 0.04,1.665 0.02,1.778 -0.01,1.904 -0.03,2.042 -0.05,2.178002 -0.06,2.339 -0.06,2.497 -0.08,2.67 -0.04,1.4 -0.04,1.443 -0.04,1.501 -0.03,1.54 -0.04,1.597 -0.03,1.64 -0.03,1.7 -0.02,1.75 -0.02,1.8 -0.02,1.86 -0.01,1.92 0,1.97 0,2.03 0.01,2.1 0.02,2.16 0.02,2.21 0.03,2.28 0.04,2.35 0.06,2.45 0.07,2.59 0.08,2.71 0.09,2.84 0.1,2.95 0.12,3.08 0.27,6.47 0.3,6.88 0.32,7.25 0.34,7.59 0.37,7.88 0.37,8.15 0.37,8.36 0.38,8.56 0.36,8.72 0.66,17.72 0.55,17.91 0.37,17.78 0.11,8.75 0.05,8.62 -0.03,8.43 -0.09,8.22 -0.17,7.98 -0.27,7.69 -0.35,7.36 -0.46,7.02 -0.56,6.6 -0.68,6.18 -0.38,2.91 -0.41,2.79 -0.44,2.66 -0.48,2.53 -0.51,2.4 -0.54,2.26 -0.57,2.11 -0.61,1.95 -0.64,1.85 -0.67,1.75 -0.7,1.68 -0.72,1.59 -0.75,1.53 -0.77,1.43024 -0.8,1.36 -0.83,1.29 -0.85,1.21 -0.86,1.14 -0.9,1.06 -0.92,1.01 -0.93,0.93 -0.96,0.86 -0.99,0.8 -1,0.72 -1.02,0.68 -1.04,0.61 -1.06,0.55 -1.09,0.49 -1.1,0.43 -1.12,0.38 -1.13,0.33 -1.16,0.28 -1.18,0.22 -1.19,0.17 -1.22,0.12 -1.22,0.07 -1.25,0.03 -1.26,-0.02 -2.59,-0.16 -2.63,-0.34 -2.7,-0.49 -2.74,-0.64 -2.79,-0.77 -2.84,-0.91 -2.89,-1.02 -2.92,-1.12 -2.96,-1.22 -2.98,-1.31 -3.02,-1.37 -3.03,-1.45 -3.05,-1.49 -6.15,-3.11 -1.75,-0.9 -0.46,0.88 1.75,0.91 6.17,3.11 3.06,1.51 3.05,1.45 3.03,1.38 3,1.31 2.98,1.23 2.95,1.13 2.91,1.04 2.88,0.91 2.83,0.78 2.79,0.65 2.75,0.5 2.7,0.34 2.63,0.17 1.3,0.02 1.29,-0.03 1.26,-0.08 1.26,-0.12 1.24,-0.18 1.22,-0.23 1.2,-0.29 1.19,-0.34 1.16,-0.4 1.15,-0.45 1.13,-0.51 1.1,-0.58 1.09,-0.64 1.06,-0.7 1.04,-0.76 1.03,-0.83 0.99,-0.89 0.97,-0.97 0.95,-1.03 0.92,-1.1 0.89,-1.17 0.88,-1.25 0.84,-1.32 0.82,-1.4 0.79,-1.46 0.76,-1.55 0.73,-1.62 0.71,-1.71 0.68,-1.79 0.65,-1.87 0.62,-1.99 0.59,-2.14 0.54,-2.28 0.51,-2.42 0.48,-2.56 0.45,-2.67 0.41,-2.81 0.38,-2.94 0.69,-6.2 0.56,-6.62 0.46,-7.03 0.35,-7.38 0.26,-7.7 0.18,-7.98 0.09,-8.24 0.03,-8.44 -0.05,-8.62 -0.11,-8.76 -0.38,-17.79 -0.54,-17.91 -0.66,-17.74 -0.36,-8.71 -0.38,-8.56 -0.37,-8.37 -0.37,-8.15 -0.37,-7.88 -0.34,-7.59 -0.33,-7.24 -0.3,-6.89 -0.26,-6.46 -0.12,-3.07 -0.1,-2.96 -0.09,-2.83 -0.09,-2.71 -0.06,-2.58 -0.06,-2.44 -0.04,-2.35 -0.03,-2.28 -0.02,-2.21 -0.02,-2.16 -0.01,-2.09 0,-2.03 0,-1.97 0.01,-1.91 0.02,-1.86 0.02,-1.8 0.02,-1.74 0.03,-1.7 0.03,-1.64 0.04,-1.598 0.03,-1.534 0.04,-1.5 0.03,-1.437 0.05,-1.404 0.07,-2.671 0.07,-2.498 0.06,-2.341 0.05,-2.187001 0.03,-2.053 0.01,-1.921 -0.02,-1.792 -0.05,-1.695 -0.09,-1.579 -0.12,-1.504 -0.17,-1.41 -0.22,-1.344 -0.27,-1.277 -0.34,-1.228 -0.39,-1.176 -0.46,-1.147 -0.53,-1.106 -0.61,-1.097 -0.68,-1.08 -0.77,-1.077 -0.85,-1.089 -0.94,-1.099 -1.05,-1.145 -1.19,-1.115 -1.32,-0.994 -1.45,-0.892 -1.56,-0.781 -1.68,-0.678 -1.76,-0.586 -1.87,-0.501 -1.94,-0.417 -2.03,-0.34 -2.08,-0.272 -2.15,-0.204 -2.19,-0.143 -2.23,-0.083 -2.26,-0.03696 -2.29,0.0072 -2.31,0.05296 -4.62,0.211 -4.58,0.308 -4.46,0.375 -2.17,0.195 -2.11,0.203 -2.06,0.195 -1.98,0.187 -1.9,0.18 -1.81,0.157 -1.71,0.127 -1.61,0.105 -1.48,0.074 -1.37,0.03 -1.28,0 -1.22,-0.022 -1.17,-0.04496 -1.13,-0.05904 -1.07,-0.07496 -1.02,-0.082 -0.99,-0.09 -0.94,-0.089 -1.75,-0.173 -1.61,-0.152 -1.47,-0.083 -1.36,-0.0048 -1.26,0.115 -1.13,0.264 -0.56,0.201 -0.51,0.252 -0.51,0.302 -0.47,0.359 -0.45,0.415 -0.43,0.477 -0.41,0.53 -0.38,0.593 -0.39,0.66 -0.36,0.736 -0.35,0.796 -0.34,0.886 -0.32,0.96 -0.29,1.025 -0.26,1.087 -0.22,1.146 -0.2,1.208 -0.17,1.256 -0.14,1.318 -0.11,1.37 -0.09,1.416 -0.06,1.473 -0.04,1.513 -0.03,1.563 0.03,3.237 0.1,3.398 0.17,3.532003 0.22,3.643998 0.27,3.754 0.32,3.836 0.34,3.903 0.38,3.955 0.79,7.99 0.99,-0.09 z m 15.57,258 -6.71,-0.08 3.96,5.41 2.75,-5.33 z" /><path
         inkscape:connector-curvature="0"
         id="path154"
         style="fill:#000000;fill-opacity:1;fill-rule:nonzero;stroke:none"
         d="m 242.84993,210.90666 4.4,-1.01 4.38,-0.96 4.34,-0.92 4.27,-0.81 4.19,-0.71 2.06,-0.3 2.03,-0.25 1.99,-0.21 1.97,-0.15 1.93,-0.12 1.89,-0.05 1.85,0.01 1.8,0.07 1.75,0.14 1.71,0.21 1.66,0.28 1.6,0.36 1.54,0.44 1.49,0.52 1.42,0.61 1.37,0.7 1.29,0.8 1.22,0.9 1.16,0.99 1.09,1.1 1.01,1.21 0.95,1.33 0.44,0.71 0.44,0.78 0.42,0.83 0.42,0.89 0.41,0.94 0.4,0.99 0.38,1.04 0.38,1.08 0.73,2.31 0.68,2.47 0.63,2.62 0.59,2.76 0.53,2.87 0.49,2.98 0.43,3.07 0.38,3.15 0.33,3.2 0.27,3.25 0.22,3.29 0.16,3.3 0.1,3.31 0.04,3.29 -0.02,3.26 -0.07,3.22 -0.14,3.17 -0.21,3.09 -0.27,3.02 -0.34,2.92 -0.4,2.79 -0.47,2.67 -0.54,2.52 -0.6,2.37 -0.33,1.11 -0.35,1.08 -0.36,1.02 -0.38,0.97 -0.4,0.92 -0.42,0.88 -0.43,0.81 -0.44,0.76 -0.95,1.42 -1.05,1.3 -1.15,1.2 -1.23,1.1 -1.32,1.01 -1.39,0.91 -1.48,0.82 -1.55,0.75 -1.63,0.66 -1.7,0.58 -1.76,0.51 -1.83,0.44 -1.9,0.37 -1.96,0.3 -2,0.24 -2.07,0.19 -2.11,0.12 -2.16,0.08 -2.21,0.03 -2.24,-0.02 -4.6,-0.16 -4.71,-0.31 -4.82,-0.41 -4.89,-0.49 -4.94,-0.56 -0.11,1 4.95,0.55 4.9,0.5 4.84,0.41 4.75,0.31 4.62,0.16 2.27,0.02 2.23,-0.03 2.18,-0.08 2.14,-0.13 2.09,-0.19 2.05,-0.24 2,-0.31 1.93,-0.38 1.87,-0.45 1.82,-0.52 1.75,-0.6 1.68,-0.69 1.61,-0.77 1.54,-0.86 1.45,-0.96 1.38,-1.06 1.28,-1.15 1.21,-1.26 1.1,-1.38 0.98,-1.46 0.47,-0.8 0.45,-0.85 0.43,-0.91 0.41,-0.95 0.39,-1.01 0.38,-1.05 0.35,-1.1 0.34,-1.15 0.61,-2.4 0.55,-2.56 0.47,-2.69 0.4,-2.83 0.34,-2.94 0.27,-3.04 0.21,-3.12 0.15,-3.19 0.07,-3.24 0.02,-3.28 -0.04,-3.31 -0.11,-3.32 -0.15,-3.32 -0.22,-3.3 -0.27,-3.27 -0.33,-3.23 -0.39,-3.16 -0.43,-3.09 -0.49,-3 -0.55,-2.9 -0.58,-2.78 -0.65,-2.65 -0.68,-2.51 -0.74,-2.34 -0.39,-1.1 -0.39,-1.06 -0.41,-1.02 -0.42,-0.97 -0.44,-0.91 -0.44,-0.88 -0.46,-0.81 -0.48,-0.76 -0.99,-1.39 -1.07,-1.27 -1.15,-1.16 -1.22,-1.04 -1.29,-0.95 -1.36,-0.82 -1.42,-0.74 -1.49,-0.63 -1.54,-0.55 -1.6,-0.45 -1.65,-0.37 -1.7,-0.29 -1.76,-0.21 -1.79,-0.13 -1.84,-0.08 -1.88,-0.01 -1.91,0.06 -1.96,0.11 -1.99,0.16 -2.01,0.21 -2.05,0.26 -2.08,0.3 -4.21,0.7 -4.3,0.82 -4.34,0.92 -4.39,0.97 -4.41,1 0.23,0.98 z m 2.7,97.61 -6.31,2.28 5.61,3.68 0.7,-5.96 z" /></g></g></svg>