<?xml version="1.0" encoding="UTF-8" standalone="no"?>
<!-- Created with Inkscape (http://www.inkscape.org/) -->

<svg
   xmlns:dc="http://purl.org/dc/elements/1.1/"
   xmlns:cc="http://creativecommons.org/ns#"
   xmlns:rdf="http://www.w3.org/1999/02/22-rdf-syntax-ns#"
   xmlns:svg="http://www.w3.org/2000/svg"
   xmlns="http://www.w3.org/2000/svg"
   xmlns:sodipodi="http://sodipodi.sourceforge.net/DTD/sodipodi-0.dtd"
   xmlns:inkscape="http://www.inkscape.org/namespaces/inkscape"
   id="svg6171"
   version="1.1"
   inkscape:version="0.48.3.1 r9886"
   width="900"
   height="675"
   xml:space="preserve"
   sodipodi:docname="Compiladores49-otimizacao2.pdf"><metadata
     id="metadata6177"><rdf:RDF><cc:Work
         rdf:about=""><dc:format>image/svg+xml</dc:format><dc:type
           rdf:resource="http://purl.org/dc/dcmitype/StillImage" /><dc:title></dc:title></cc:Work></rdf:RDF></metadata><defs
     id="defs6175"><clipPath
       clipPathUnits="userSpaceOnUse"
       id="clipPath6185"><path
         d="m 0,1.8311e-4 720,0 0,539.99999689 -720,0 L 0,1.8311e-4 z"
         clip-rule="evenodd"
         id="path6187" /></clipPath></defs><sodipodi:namedview
     pagecolor="#ffffff"
     bordercolor="#666666"
     borderopacity="1"
     objecttolerance="10"
     gridtolerance="10"
     guidetolerance="10"
     inkscape:pageopacity="0"
     inkscape:pageshadow="2"
     inkscape:window-width="958"
     inkscape:window-height="1061"
     id="namedview6173"
     showgrid="false"
     inkscape:zoom="0.52"
     inkscape:cx="450"
     inkscape:cy="337.5"
     inkscape:window-x="0"
     inkscape:window-y="17"
     inkscape:window-maximized="0"
     inkscape:current-layer="g6179" /><g
     id="g6179"
     inkscape:groupmode="layer"
     inkscape:label="Compiladores49-otimizacao2"
     transform="matrix(1.25,0,0,-1.25,0,675)"><path
       d="m 187.5,359.12 54.75,0 0,29.625 -54.75,0 0,-29.625 z"
       style="fill:#99ff99;fill-opacity:1;fill-rule:evenodd;stroke:none"
       id="path6197" /><path
       d="m 187.5,359.12 54.75,0 0,29.625 -54.75,0 0,-29.625 z"
       style="fill:none;stroke:#000000;stroke-opacity:1;stroke-width:1;stroke-linecap:butt;stroke-linejoin:miter;stroke-miterlimit:10;stroke-dasharray:none"
       id="path6199" /><text
       transform="matrix(1,0,0,-1,194.74,367.58)"
       id="text6201"><tspan
         style="fill:#000000;fill-opacity:1;fill-rule:nonzero;stroke:none;font-family:Arial;font-variant:normal;font-weight:normal;font-size:18;writing-mode:lr;-inkscape-font-specification:Arial"
         x="0 3.996 8.874 13.878 24.462 29.376"
         y="0"
         sodipodi:role="line"
         id="tspan6203">i := 1</tspan></text>
<path
       d="m 155,290.12 135.75,0 0,29.625 -135.75,0 0,-29.625 z"
       style="fill:#ffff66;fill-opacity:1;fill-rule:evenodd;stroke:none"
       id="path6205" /><path
       d="m 155,290.12 135.75,0 0,29.625 -135.75,0 0,-29.625 z"
       style="fill:none;stroke:#000000;stroke-opacity:1;stroke-width:1;stroke-linecap:butt;stroke-linejoin:miter;stroke-miterlimit:10;stroke-dasharray:none"
       id="path6207" /><text
       transform="matrix(1,0,0,-1,162.22,298.56)"
       id="text6209"><tspan
         style="fill:#000000;fill-opacity:1;fill-rule:nonzero;stroke:none;font-family:Arial;font-variant:normal;font-weight:normal;font-size:18.024;writing-mode:lr;-inkscape-font-specification:Arial"
         x="0 4.001328 9.012 13.914528 23.935872 28.946544 39.47256 44.483232 53.495232 58.361712 68.383056 78.332304 83.342976 93.36432 98.50116 110.523168"
         y="0"
         sodipodi:role="line"
         id="tspan6211">if u &lt; v goto B3</tspan></text>
<path
       d="m 48.625,206.63 91.25,0 0,51.25 -91.25,0 0,-51.25 z"
       style="fill:#66ffff;fill-opacity:1;fill-rule:evenodd;stroke:none"
       id="path6213" /><path
       d="m 48.625,206.63 91.25,0 0,51.25 -91.25,0 0,-51.25 z"
       style="fill:none;stroke:#000000;stroke-opacity:1;stroke-width:1;stroke-linecap:butt;stroke-linejoin:miter;stroke-miterlimit:10;stroke-dasharray:none"
       id="path6215" /><text
       transform="matrix(1,0,0,-1,55.824,236.69)"
       id="text6217"><tspan
         style="fill:#000000;fill-opacity:1;fill-rule:nonzero;stroke:none;font-family:Arial;font-variant:normal;font-weight:normal;font-size:18;writing-mode:lr;-inkscape-font-specification:Arial"
         x="0 3.996 8.874 13.878 24.48 29.394"
         y="0"
         sodipodi:role="line"
         id="tspan6219">i := 2</tspan></text>
<text
       transform="matrix(1,0,0,-1,55.824,215.06)"
       id="text6221"><tspan
         style="fill:#000000;fill-opacity:1;fill-rule:nonzero;stroke:none;font-family:Arial;font-variant:normal;font-weight:normal;font-size:18.024;writing-mode:lr;-inkscape-font-specification:Arial"
         x="0 10.021344 14.905848 19.91652 30.514632 35.435184 45.456528 50.4672 60.993216 66.003888"
         y="0"
         sodipodi:role="line"
         id="tspan6223">u := u + 1</tspan></text>
<path
       d="m 148.63,118.75 159.25,0 0,72.875 -159.25,0 0,-72.875 z"
       style="fill:#99ffcc;fill-opacity:1;fill-rule:evenodd;stroke:none"
       id="path6225" /><path
       d="m 148.63,118.75 159.25,0 0,72.875 -159.25,0 0,-72.875 z"
       style="fill:none;stroke:#000000;stroke-opacity:1;stroke-width:1;stroke-linecap:butt;stroke-linejoin:miter;stroke-miterlimit:10;stroke-dasharray:none"
       id="path6227" /><text
       transform="matrix(1,0,0,-1,155.86,170.42)"
       id="text6229"><tspan
         style="fill:#000000;fill-opacity:1;fill-rule:nonzero;stroke:none;font-family:Arial;font-variant:normal;font-weight:normal;font-size:18;writing-mode:lr;-inkscape-font-specification:Arial"
         x="0 9 13.914 18.918 29.502 34.308"
         y="0"
         sodipodi:role="line"
         id="tspan6231">k := i</tspan></text>
<path
       d="m 155.83,167.26 38.28,0 0,1.32 -38.28,0 0,-1.32 z"
       style="fill:#000000;fill-opacity:1;fill-rule:evenodd;stroke:none"
       id="path6233" /><text
       transform="matrix(1,0,0,-1,155.86,148.8)"
       id="text6235"><tspan
         style="fill:#000000;fill-opacity:1;fill-rule:nonzero;stroke:none;font-family:Arial;font-variant:normal;font-weight:normal;font-size:18.024;writing-mode:lr;-inkscape-font-specification:Arial"
         x="0 9.012 13.914528 18.9252 29.505288 34.299672 43.311672"
         y="0"
         sodipodi:role="line"
         id="tspan6237">v := v </tspan></text>
<text
       transform="matrix(1,0,0,-1,204.22,148.8)"
       id="text6239"><tspan
         style="fill:#000000;fill-opacity:1;fill-rule:nonzero;stroke:none;font-family:Arial;font-variant:normal;font-weight:normal;font-size:18.024;writing-mode:lr;-inkscape-font-specification:Arial"
         x="0"
         y="0"
         id="tspan6241">-</tspan></text>
<text
       transform="matrix(1,0,0,-1,215.26,148.8)"
       id="text6243"><tspan
         style="fill:#000000;fill-opacity:1;fill-rule:nonzero;stroke:none;font-family:Arial;font-variant:normal;font-weight:normal;font-size:18.024;writing-mode:lr;-inkscape-font-specification:Arial"
         x="0"
         y="0"
         id="tspan6245">1</tspan></text>
<path
       d="m 155.83,145.66 69.36,0 0,1.32 -69.36,0 0,-1.32 z"
       style="fill:#000000;fill-opacity:1;fill-rule:evenodd;stroke:none"
       id="path6247" /><text
       transform="matrix(1,0,0,-1,155.86,127.2)"
       id="text6249"><tspan
         style="fill:#000000;fill-opacity:1;fill-rule:nonzero;stroke:none;font-family:Arial;font-variant:normal;font-weight:normal;font-size:18;writing-mode:lr;-inkscape-font-specification:Arial"
         x="0 3.996 9 13.914 25.92 30.834 41.346 51.93 56.844 66.852 76.77 81.774 91.782 101.736 106.74 116.748 121.878 133.884"
         y="0"
         sodipodi:role="line"
         id="tspan6251">if V &lt;= 20 goto B5</tspan></text>
<path
       d="m 155.83,124.06 143.88,0 0,1.32 -143.88,0 0,-1.32 z"
       style="fill:#000000;fill-opacity:1;fill-rule:evenodd;stroke:none"
       id="path6253" /><path
       d="m 214,60.25 48.75,0 0,29.625 -48.75,0 0,-29.625 z"
       style="fill:#ff9966;fill-opacity:1;fill-rule:evenodd;stroke:none"
       id="path6255" /><path
       d="m 214,60.25 48.75,0 0,29.625 -48.75,0 0,-29.625 z"
       style="fill:none;stroke:#000000;stroke-opacity:1;stroke-width:1;stroke-linecap:butt;stroke-linejoin:miter;stroke-miterlimit:10;stroke-dasharray:none"
       id="path6257" /><text
       transform="matrix(1,0,0,-1,221.23,68.64)"
       id="text6259"><tspan
         style="fill:#000000;fill-opacity:1;fill-rule:nonzero;stroke:none;font-family:Arial;font-variant:normal;font-weight:normal;font-size:18;writing-mode:lr;-inkscape-font-specification:Arial"
         x="0 3.996 8.874 13.878 24.462 29.376"
         y="0"
         sodipodi:role="line"
         id="tspan6261">j := i</tspan></text>
<path
       d="m 215.62,362.25 0,-38.62 -1,0 0,38.62 1,0 z m 2.5,-37.62 -3,-6 -3,6 6,0 z"
       style="fill:#000000;fill-opacity:1;fill-rule:nonzero;stroke:none"
       id="path6263" /><path
       d="M 188.8,294.23 133.16,252 l -0.6,0.8 55.64,42.22 0.6,-0.79 z m -53.33,-43.62 -6.59,-1.23 2.96,6.01 3.63,-4.78 z"
       style="fill:#000000;fill-opacity:1;fill-rule:nonzero;stroke:none"
       id="path6265" /><path
       d="m 218.25,295.5 0,-99 -1,0 0,99 1,0 z m 2.5,-98 -3,-6 -3,6 6,0 z"
       style="fill:#000000;fill-opacity:1;fill-rule:nonzero;stroke:none"
       id="path6267" /><path
       d="m 236,142.63 0,-49.13 -1,0 0,49.13 1,0 z m 2.5,-48.13 -3,-6 -3,6 6,0 z"
       style="fill:#000000;fill-opacity:1;fill-rule:nonzero;stroke:none"
       id="path6269" /><path
       d="m 187.79,118.21 -0.34,-0.24 -0.23,-0.22 0.06,0.06 -0.47,-0.62 0.05,0.09 -0.35,-0.72 -0.29,-0.77 -0.31,-0.86 -0.4,-0.94 -0.25,-0.51 -0.29,-0.51 -0.35,-0.52 -0.39,-0.52 -0.47,-0.53 -0.52,-0.52 -0.62,-0.51 -0.69,-0.51 -0.78,-0.5 -0.88,-0.5 -0.98,-0.48 -1.1,-0.46 -1.21,-0.46 -1.34,-0.43 -1.47,-0.41 -1.61,-0.4 -1.75,-0.37 -1.92,-0.35 -2.07,-0.33 -2.25,-0.29 -2.47,-0.37 -2.73,-0.53 -3.03,-0.68 -3.28,-0.81 -3.52,-0.92 -3.73,-1.01 -3.92,-1.096 -4.1,-1.148 -4.25,-1.185 -4.39,-1.208 -9.1,-2.409 -9.39,-2.282 -9.54,-2.006 -4.77,-0.851 -4.751,-0.736 -4.702,-0.588 -4.635,-0.436 -4.556,-0.257 -4.455,-0.053 -4.328,0.15 -4.184,0.385 -4.03,0.641 -3.846,0.9 -3.642,1.197 -3.428,1.51 -3.183,1.831 -2.915,2.178 -2.635,2.538 -2.325,2.925 -1.069,1.64 -1.025,1.75 -0.986,1.87 -0.947,2 -1.795,4.32 -1.667,4.77 -1.531,5.18 -1.407,5.53 -1.286,5.89 -1.158,6.2 -1.038,6.48 -0.924,6.73 -0.811,6.94 -0.699,7.15 -0.593,7.29 -0.48,7.43 -0.661,15.1 -0.263,15.25 0.113,15.14 0.195,7.45 0.277,7.33 0.361,7.18 0.45,6.99 0.518,6.78 0.608,6.54 0.676,6.26 0.743,5.96 0.819,5.62 0.887,5.25 0.955,4.85 1.016,4.43 1.13,4.12 1.281,3.97 1.441,3.82 1.576,3.66 1.712,3.5 1.833,3.37 1.962,3.22 2.075,3.07 2.172,2.95 2.28,2.8 2.361,2.66 2.452,2.54 2.527,2.4 2.594,2.29 2.664,2.16 2.706,2.04 2.761,1.92 2.796,1.81 2.835,1.69 2.857,1.59 2.87,1.48 2.887,1.37 2.885,1.28 2.894,1.18 2.869,1.09 2.856,0.98 2.831,0.91 2.803,0.81 2.756,0.73 2.721,0.65 2.66,0.57 2.6,0.5 1.3,0.2 1.34,0.15 1.35,0.09 1.37,0.04 1.39,-0.01 1.4,-0.07 1.42,-0.12 1.44,-0.16 1.45,-0.21 1.46,-0.25 2.96,-0.62 3.01,-0.8 3.03,-0.93 3.07,-1.07 3.09,-1.19 3.09,-1.3 3.11,-1.39 3.1,-1.48 3.09,-1.56 3.06,-1.61 3.06,-1.67 3,-1.7 2.98,-1.73 2.92,-1.73 2.87,-1.74 2.8,-1.73 2.73,-1.7 2.65,-1.68 2.57,-1.62 2.47,-1.57 2.37,-1.48 2.26,-1.41 2.14,-1.31 2.01,-1.2 1.88,-1.09 1.74,-0.95 1.59,-0.8 1.45,-0.74 1.33,-0.67 1.22,-0.64 1.09,-0.59 0.99,-0.56 0.89,-0.53 0.79,-0.5 c 0.04,-0.02 0.07,-0.05 0.1,-0.08 l 1.19,-1.29 -0.74,-0.68 -1.18,1.29 0.1,-0.08 -0.77,0.48 -0.87,0.52 -0.97,0.55 -1.09,0.59 -1.19,0.63 -1.34,0.67 -1.46,0.73 -1.61,0.82 -1.75,0.97 -1.9,1.09 -2.02,1.21 -2.15,1.31 -2.26,1.41 -2.37,1.49 -2.48,1.57 -2.56,1.62 -2.65,1.67 -2.72,1.7 -2.8,1.72 -2.86,1.74 -2.91,1.73 -2.97,1.72 -2.99,1.69 -3.04,1.66 -3.05,1.61 -3.08,1.54 -3.07,1.48 -3.08,1.38 -3.07,1.29 -3.05,1.18 -3.04,1.05 -3,0.93 -2.96,0.78 -2.92,0.62 -1.43,0.24 -1.42,0.21 -1.41,0.16 -1.38,0.11 -1.37,0.07 -1.36,0.01 -1.33,-0.04 -1.3,-0.08 -1.29,-0.14 -1.28,-0.2 -2.57,-0.5 -2.64,-0.56 -2.694,-0.65 -2.734,-0.72 -2.777,-0.81 -2.809,-0.89 -2.829,-0.98 -2.846,-1.08 -2.866,-1.16 -2.86,-1.27 -2.858,-1.36 -2.845,-1.47 -2.828,-1.56 -2.805,-1.68 -2.769,-1.79 -2.729,-1.9 -2.679,-2.02 -2.632,-2.13 -2.565,-2.26 -2.498,-2.38 -2.423,-2.5 -2.334,-2.63 -2.25,-2.77 -2.148,-2.9 -2.05,-3.04 -1.938,-3.18 -1.812,-3.32 -1.693,-3.47 -1.559,-3.62 -1.424,-3.77 -1.269,-3.92 -1.12,-4.08 -1.009,-4.4 -0.95,-4.82 -0.883,-5.23 -0.816,-5.6 -0.742,-5.94 -0.674,-6.25 -0.607,-6.53 -0.517,-6.76 -0.45,-6.98 -0.359,-7.17 -0.278,-7.31 -0.195,-7.44 -0.112,-15.11 0.262,-15.23 0.659,-15.08 0.48,-7.4 0.592,-7.29 0.696,-7.12 0.809,-6.93 0.921,-6.71 1.032,-6.45 1.152,-6.16 1.279,-5.86 1.397,-5.5 1.515,-5.13 1.648,-4.71 1.775,-4.28 0.928,-1.96 0.964,-1.83 1,-1.71 1.016,-1.56 2.235,-2.835 2.54,-2.457 2.815,-2.112 3.087,-1.783 3.337,-1.475 3.558,-1.174 3.774,-0.885 3.965,-0.633 4.126,-0.381 4.282,-0.15 4.41,0.052 4.519,0.253 4.605,0.434 4.673,0.583 4.729,0.733 4.735,0.844 9.51,1.999 9.38,2.278 9.08,2.406 4.39,1.207 4.25,1.185 4.1,1.151 3.93,1.09 3.74,1.02 3.53,0.92 3.3,0.81 3.05,0.69 2.79,0.54 2.48,0.37 2.22,0.29 2.05,0.32 1.88,0.34 1.73,0.38 1.58,0.38 1.43,0.4 1.3,0.42 1.17,0.44 1.05,0.44 0.93,0.45 0.83,0.47 0.73,0.46 0.64,0.48 0.56,0.46 0.48,0.47 0.41,0.46 0.36,0.47 0.31,0.47 0.26,0.45 0.23,0.45 0.38,0.9 0.32,0.88 0.32,0.84 0.35,0.72 c 0.02,0.03 0.03,0.06 0.05,0.09 l 0.47,0.61 c 0.02,0.02 0.03,0.04 0.05,0.06 l 0.34,0.32 0.34,0.24 0.58,-0.82 z m 15.16,209.85 0.55,-6.68 -5.67,3.56 5.12,3.12 z"
       style="fill:#000000;fill-opacity:1;fill-rule:nonzero;stroke:none"
       id="path6271" /><path
       d="m 562.25,428 54.75,0 0,29.625 -54.75,0 0,-29.625 z"
       style="fill:#99ff99;fill-opacity:1;fill-rule:evenodd;stroke:none"
       id="path6273" /><path
       d="m 562.25,428 54.75,0 0,29.625 -54.75,0 0,-29.625 z"
       style="fill:none;stroke:#000000;stroke-opacity:1;stroke-width:1;stroke-linecap:butt;stroke-linejoin:miter;stroke-miterlimit:10;stroke-dasharray:none"
       id="path6275" /><text
       transform="matrix(1,0,0,-1,569.54,436.49)"
       id="text6277"><tspan
         style="fill:#000000;fill-opacity:1;fill-rule:nonzero;stroke:none;font-family:Arial;font-variant:normal;font-weight:normal;font-size:18;writing-mode:lr;-inkscape-font-specification:Arial"
         x="0 3.996 8.874 13.878 24.462 29.376"
         y="0"
         sodipodi:role="line"
         id="tspan6279">i := 1</tspan></text>
<path
       d="m 528.75,309.25 135.75,0 0,29.625 -135.75,0 0,-29.625 z"
       style="fill:#ffff66;fill-opacity:1;fill-rule:evenodd;stroke:none"
       id="path6281" /><path
       d="m 528.75,309.25 135.75,0 0,29.625 -135.75,0 0,-29.625 z"
       style="fill:none;stroke:#000000;stroke-opacity:1;stroke-width:1;stroke-linecap:butt;stroke-linejoin:miter;stroke-miterlimit:10;stroke-dasharray:none"
       id="path6283" /><text
       transform="matrix(1,0,0,-1,536.04,317.71)"
       id="text6285"><tspan
         style="fill:#000000;fill-opacity:1;fill-rule:nonzero;stroke:none;font-family:Arial;font-variant:normal;font-weight:normal;font-size:18;writing-mode:lr;-inkscape-font-specification:Arial"
         x="0 3.996 9 13.914 23.922 28.926 39.438 44.442 53.442 58.32 68.328 78.246 83.25 93.258 98.388 110.394"
         y="0"
         sodipodi:role="line"
         id="tspan6287">if u &lt; v goto B3</tspan></text>
<path
       d="m 422.38,247.37 91.25,0 0,29.625 -91.25,0 0,-29.625 z"
       style="fill:#66ffff;fill-opacity:1;fill-rule:evenodd;stroke:none"
       id="path6289" /><path
       d="m 422.38,247.37 91.25,0 0,29.625 -91.25,0 0,-29.625 z"
       style="fill:none;stroke:#000000;stroke-opacity:1;stroke-width:1;stroke-linecap:butt;stroke-linejoin:miter;stroke-miterlimit:10;stroke-dasharray:none"
       id="path6291" /><text
       transform="matrix(1,0,0,-1,429.65,255.82)"
       id="text6293"><tspan
         style="fill:#000000;fill-opacity:1;fill-rule:nonzero;stroke:none;font-family:Arial;font-variant:normal;font-weight:normal;font-size:18;writing-mode:lr;-inkscape-font-specification:Arial"
         x="0 10.008 14.886 19.89 30.474 35.388 45.396 50.4 60.912 65.916"
         y="0"
         sodipodi:role="line"
         id="tspan6295">u := u + 1</tspan></text>
<path
       d="m 587.75,79.375 48.75,0 0,29.625 -48.75,0 0,-29.625 z"
       style="fill:#ff9966;fill-opacity:1;fill-rule:evenodd;stroke:none"
       id="path6297" /><path
       d="m 587.75,79.375 48.75,0 0,29.625 -48.75,0 0,-29.625 z"
       style="fill:none;stroke:#000000;stroke-opacity:1;stroke-width:1;stroke-linecap:butt;stroke-linejoin:miter;stroke-miterlimit:10;stroke-dasharray:none"
       id="path6299" /><text
       transform="matrix(1,0,0,-1,595.06,87.768)"
       id="text6301"><tspan
         style="fill:#000000;fill-opacity:1;fill-rule:nonzero;stroke:none;font-family:Arial;font-variant:normal;font-weight:normal;font-size:18;writing-mode:lr;-inkscape-font-specification:Arial"
         x="0 3.996 8.874 13.878 24.462 29.376"
         y="0"
         sodipodi:role="line"
         id="tspan6303">j := i</tspan></text>
<path
       d="m 589.37,381.38 0,-38.63 -1,0 0,38.63 1,0 z m 2.5,-37.63 -3,-6 -3,6 6,0 z"
       style="fill:#000000;fill-opacity:1;fill-rule:nonzero;stroke:none"
       id="path6305" /><path
       d="m 562.55,313.35 -55.64,-42.23 -0.6,0.8 55.64,42.23 0.6,-0.8 z m -53.33,-43.61 -6.6,-1.24 2.97,6.02 3.63,-4.78 z"
       style="fill:#000000;fill-opacity:1;fill-rule:nonzero;stroke:none"
       id="path6307" /><path
       d="m 592,314.63 0,-99.01 -1,0 0,99.01 1,0 z m 2.5,-98 -3,-6 -3,6 6,0 z"
       style="fill:#000000;fill-opacity:1;fill-rule:nonzero;stroke:none"
       id="path6309" /><path
       d="m 609.75,161.75 0,-49.12 -1,0 0,49.12 1,0 z m 2.5,-48.12 -3,-6 -3,6 6,0 z"
       style="fill:#000000;fill-opacity:1;fill-rule:nonzero;stroke:none"
       id="path6311" /><path
       d="m 564.5,160.86 -0.08,-2.77 -0.1,-2.75 -0.18,-2.76 -0.29,-2.71 -0.2,-1.36 -0.24,-1.34 -0.28,-1.32 -0.33,-1.31 -0.39,-1.3 -0.45,-1.27 -0.52,-1.26 -0.58,-1.23 -0.66,-1.22 -0.74,-1.19 -0.82,-1.17 -0.91,-1.13 -1,-1.1 -1.1,-1.07 -1.2,-1.04 -1.3,-1 -1.42,-0.96 -1.52,-0.93 -1.65,-0.88 -1.77,-0.85 -1.9,-0.79 -2.02,-0.76 -2.16,-0.71 -2.3,-0.66 -2.51,-0.7 -2.79,-0.82 -3.05,-0.93 -3.31,-1.02 -3.54,-1.1 -3.75,-1.16 -3.94,-1.2 -4.11,-1.23 -4.27,-1.24 -4.39,-1.24 -9.1,-2.39 -9.38,-2.19 -9.52,-1.85 -4.78,-0.76 -4.73,-0.64 -4.69,-0.48 -4.63,-0.32 -4.54,-0.14 -4.45,0.06 -4.31,0.27 -4.18,0.5 -4.01,0.74 -3.84,1.01 -3.63,1.28 -3.42,1.59 -3.18,1.9 -2.91,2.22 -2.63,2.58 -2.32,2.93 -1.07,1.63 -1.02,1.76 -0.99,1.87 -0.94,2 -1.8,4.32 -1.67,4.77 -1.53,5.17 -1.4,5.54 -1.28,5.89 -1.16,6.19 -1.05,6.48 -0.92,6.73 -0.81,6.95 -0.7,7.14 -0.59,7.3 -0.48,7.42 -0.66,15.11 -0.27,15.25 0.12,15.13 0.19,7.46 0.28,7.32 0.37,7.18 0.44,7 0.52,6.78 0.6,6.54 0.68,6.26 0.75,5.96 0.82,5.61 0.89,5.26 0.95,4.85 1.02,4.42 1.13,4.13 1.28,3.96 1.43,3.82 1.58,3.66 1.71,3.51 1.84,3.37 1.95,3.22 2.08,3.07 2.18,2.94 2.27,2.8 2.37,2.67 2.44,2.53 2.53,2.41 2.6,2.29 2.66,2.15 2.71,2.05 2.76,1.91 2.79,1.81 2.84,1.7 2.86,1.58 2.87,1.49 2.88,1.37 2.89,1.28 2.89,1.18 2.88,1.08 2.85,0.99 2.84,0.9 2.8,0.82 2.75,0.73 2.72,0.64 2.66,0.58 2.6,0.49 1.31,0.21 1.33,0.14 1.35,0.1 1.37,0.03 1.39,-0.01 1.41,-0.07 1.42,-0.11 1.43,-0.16 1.46,-0.21 1.46,-0.25 2.96,-0.63 3,-0.79 3.04,-0.94 3.06,-1.06 3.09,-1.19 3.1,-1.3 3.1,-1.4 3.1,-1.48 3.09,-1.56 3.07,-1.6 3.05,-1.67 3.01,-1.7 2.97,-1.73 2.92,-1.74 2.87,-1.74 2.8,-1.72 2.73,-1.71 2.66,-1.67 2.56,-1.62 2.47,-1.57 2.37,-1.48 2.26,-1.41 2.14,-1.31 2.02,-1.21 1.88,-1.08 1.74,-0.96 1.58,-0.8 1.46,-0.73 1.33,-0.67 1.22,-0.64 1.09,-0.6 0.99,-0.56 0.89,-0.53 0.78,-0.49 c 0.04,-0.03 0.07,-0.05 0.1,-0.09 l 1.19,-1.29 -0.74,-0.67 -1.19,1.29 0.11,-0.09 -0.77,0.48 -0.86,0.52 -0.98,0.55 -1.08,0.59 -1.2,0.64 -1.34,0.66 -1.45,0.74 -1.61,0.82 -1.76,0.96 -1.9,1.09 -2.02,1.21 -2.15,1.32 -2.26,1.41 -2.38,1.49 -2.46,1.56 -2.57,1.62 -2.65,1.67 -2.73,1.7 -2.79,1.73 -2.86,1.74 -2.92,1.73 -2.95,1.72 -3.01,1.69 -3.02,1.66 -3.07,1.6 -3.06,1.55 -3.08,1.47 -3.08,1.38 -3.07,1.3 -3.06,1.18 -3.02,1.05 -3.01,0.92 -2.95,0.78 -2.92,0.62 -1.44,0.25 -1.42,0.21 -1.4,0.15 -1.39,0.11 -1.37,0.07 -1.35,0.02 -1.33,-0.04 -1.32,-0.09 -1.28,-0.14 -1.27,-0.2 -2.58,-0.49 -2.64,-0.57 -2.69,-0.64 -2.73,-0.73 -2.78,-0.8 -2.81,-0.9 -2.83,-0.98 -2.85,-1.07 -2.86,-1.16 -2.87,-1.27 -2.86,-1.36 -2.84,-1.47 -2.83,-1.57 -2.8,-1.68 -2.77,-1.79 -2.73,-1.89 -2.68,-2.02 -2.63,-2.14 -2.57,-2.25 -2.5,-2.38 -2.41,-2.51 -2.34,-2.63 -2.25,-2.76 -2.15,-2.91 -2.05,-3.03 -1.93,-3.18 -1.82,-3.33 -1.69,-3.47 -1.56,-3.61 -1.42,-3.77 -1.27,-3.93 -1.12,-4.08 -1.01,-4.39 -0.95,-4.83 -0.88,-5.23 -0.82,-5.6 -0.75,-5.94 -0.67,-6.25 -0.6,-6.52 -0.52,-6.77 -0.45,-6.98 -0.36,-7.16 -0.28,-7.32 -0.19,-7.44 -0.12,-15.1 0.27,-15.23 0.65,-15.08 0.49,-7.41 0.58,-7.28 0.7,-7.12 0.81,-6.93 0.92,-6.71 1.04,-6.45 1.15,-6.17 1.27,-5.85 1.4,-5.51 1.52,-5.12 1.64,-4.72 1.78,-4.27 0.93,-1.96 0.96,-1.84 1,-1.71 1.02,-1.56 2.24,-2.84 2.53,-2.5 2.82,-2.15 3.08,-1.85 3.33,-1.55 3.55,-1.26 3.77,-1 3.95,-0.73 4.12,-0.49 4.26,-0.27 4.41,-0.06 4.5,0.14 4.6,0.32 4.65,0.48 4.72,0.62 4.73,0.76 9.49,1.85 9.36,2.18 9.08,2.39 4.39,1.23 4.25,1.24 4.11,1.23 3.94,1.2 3.74,1.15 3.55,1.11 3.3,1.02 3.07,0.93 2.8,0.82 2.5,0.7 2.27,0.66 2.12,0.69 1.99,0.74 1.85,0.78 1.73,0.82 1.6,0.85 1.48,0.91 1.37,0.92 1.26,0.97 1.16,1 1.05,1.02 0.96,1.06 0.87,1.08 0.79,1.12 0.71,1.13 0.63,1.17 0.57,1.19 0.5,1.21 0.43,1.23 0.38,1.25 0.32,1.28 0.28,1.29 0.24,1.3 0.19,1.32 0.28,2.68 0.18,2.72 0.1,2.75 0.08,2.77 1,-0.03 z m 12.2,186.33 0.55,-6.69 -5.67,3.57 5.12,3.12 z"
       style="fill:#000000;fill-opacity:1;fill-rule:nonzero;stroke:none"
       id="path6313" /><path
       d="m 241.63,357.25 37.25,0 0,29.625 -37.25,0 0,-29.625 z"
       style="fill:none;stroke:#000000;stroke-opacity:1;stroke-width:1;stroke-linecap:butt;stroke-linejoin:miter;stroke-miterlimit:10;stroke-dasharray:none"
       id="path6315" /><text
       transform="matrix(1,0,0,-1,248.86,365.71)"
       id="text6317"><tspan
         style="fill:#000000;fill-opacity:1;fill-rule:nonzero;stroke:none;font-family:Arial;font-variant:normal;font-weight:normal;font-size:18;writing-mode:lr;-inkscape-font-specification:Arial"
         x="0 12.024"
         y="0"
         sodipodi:role="line"
         id="tspan6319">B1</tspan></text>
<path
       d="m 296.25,287.5 37.25,0 0,29.625 -37.25,0 0,-29.625 z"
       style="fill:none;stroke:#000000;stroke-opacity:1;stroke-width:1;stroke-linecap:butt;stroke-linejoin:miter;stroke-miterlimit:10;stroke-dasharray:none"
       id="path6321" /><text
       transform="matrix(1,0,0,-1,303.5,295.94)"
       id="text6323"><tspan
         style="fill:#000000;fill-opacity:1;fill-rule:nonzero;stroke:none;font-family:Arial;font-variant:normal;font-weight:normal;font-size:18;writing-mode:lr;-inkscape-font-specification:Arial"
         x="0 12"
         y="0"
         sodipodi:role="line"
         id="tspan6325">B2</tspan></text>
<path
       d="m 131,215.38 37.25,0 0,29.625 -37.25,0 0,-29.625 z"
       style="fill:none;stroke:#000000;stroke-opacity:1;stroke-width:1;stroke-linecap:butt;stroke-linejoin:miter;stroke-miterlimit:10;stroke-dasharray:none"
       id="path6327" /><text
       transform="matrix(1,0,0,-1,138.22,223.8)"
       id="text6329"><tspan
         style="fill:#000000;fill-opacity:1;fill-rule:nonzero;stroke:none;font-family:Arial;font-variant:normal;font-weight:normal;font-size:18;writing-mode:lr;-inkscape-font-specification:Arial"
         x="0 12"
         y="0"
         sodipodi:role="line"
         id="tspan6331">B3</tspan></text>
<path
       d="m 305.63,151 37.25,0 0,29.625 -37.25,0 0,-29.625 z"
       style="fill:none;stroke:#000000;stroke-opacity:1;stroke-width:1;stroke-linecap:butt;stroke-linejoin:miter;stroke-miterlimit:10;stroke-dasharray:none"
       id="path6333" /><text
       transform="matrix(1,0,0,-1,312.89,159.41)"
       id="text6335"><tspan
         style="fill:#000000;fill-opacity:1;fill-rule:nonzero;stroke:none;font-family:Arial;font-variant:normal;font-weight:normal;font-size:18;writing-mode:lr;-inkscape-font-specification:Arial"
         x="0 12"
         y="0"
         sodipodi:role="line"
         id="tspan6337">B4</tspan></text>
<path
       d="m 264,62 37.25,0 0,29.625 -37.25,0 L 264,62 z"
       style="fill:none;stroke:#000000;stroke-opacity:1;stroke-width:1;stroke-linecap:butt;stroke-linejoin:miter;stroke-miterlimit:10;stroke-dasharray:none"
       id="path6339" /><text
       transform="matrix(1,0,0,-1,271.25,70.392)"
       id="text6341"><tspan
         style="fill:#000000;fill-opacity:1;fill-rule:nonzero;stroke:none;font-family:Arial;font-variant:normal;font-weight:normal;font-size:18;writing-mode:lr;-inkscape-font-specification:Arial"
         x="0 12"
         y="0"
         sodipodi:role="line"
         id="tspan6343">B5</tspan></text>
<path
       d="m 616.38,383.5 37.25,0 0,29.625 -37.25,0 0,-29.625 z"
       style="fill:none;stroke:#000000;stroke-opacity:1;stroke-width:1;stroke-linecap:butt;stroke-linejoin:miter;stroke-miterlimit:10;stroke-dasharray:none"
       id="path6345" /><text
       transform="matrix(1,0,0,-1,623.69,391.97)"
       id="text6347"><tspan
         style="fill:#000000;fill-opacity:1;fill-rule:nonzero;stroke:none;font-family:Arial;font-variant:normal;font-weight:normal;font-size:18;writing-mode:lr;-inkscape-font-specification:Arial"
         x="0 12"
         y="0"
         sodipodi:role="line"
         id="tspan6349">B1</tspan></text>
<path
       d="m 668.75,311.5 37.25,0 0,29.625 -37.25,0 0,-29.625 z"
       style="fill:none;stroke:#000000;stroke-opacity:1;stroke-width:1;stroke-linecap:butt;stroke-linejoin:miter;stroke-miterlimit:10;stroke-dasharray:none"
       id="path6351" /><text
       transform="matrix(1,0,0,-1,676.06,319.94)"
       id="text6353"><tspan
         style="fill:#000000;fill-opacity:1;fill-rule:nonzero;stroke:none;font-family:Arial;font-variant:normal;font-weight:normal;font-size:18;writing-mode:lr;-inkscape-font-specification:Arial"
         x="0 12"
         y="0"
         sodipodi:role="line"
         id="tspan6355">B2</tspan></text>
<path
       d="m 514.88,246.62 37.25,0 0,29.625 -37.25,0 0,-29.625 z"
       style="fill:none;stroke:#000000;stroke-opacity:1;stroke-width:1;stroke-linecap:butt;stroke-linejoin:miter;stroke-miterlimit:10;stroke-dasharray:none"
       id="path6357" /><text
       transform="matrix(1,0,0,-1,522.17,255.07)"
       id="text6359"><tspan
         style="fill:#000000;fill-opacity:1;fill-rule:nonzero;stroke:none;font-family:Arial;font-variant:normal;font-weight:normal;font-size:18;writing-mode:lr;-inkscape-font-specification:Arial"
         x="0 12"
         y="0"
         sodipodi:role="line"
         id="tspan6361">B3</tspan></text>
<text
       transform="matrix(1,0,0,-1,684.55,179.04)"
       id="text6363"><tspan
         style="fill:#ffffff;fill-opacity:1;fill-rule:nonzero;stroke:none;font-family:Arial;font-variant:normal;font-weight:normal;font-size:18;writing-mode:lr;-inkscape-font-specification:Arial"
         x="0 12.024"
         y="0"
         sodipodi:role="line"
         id="tspan6365">B4</tspan></text>
<path
       d="m 634.5,79 37.25,0 0,29.625 -37.25,0 0,-29.625 z"
       style="fill:none;stroke:#000000;stroke-opacity:1;stroke-width:1;stroke-linecap:butt;stroke-linejoin:miter;stroke-miterlimit:10;stroke-dasharray:none"
       id="path6367" /><text
       transform="matrix(1,0,0,-1,641.81,87.384)"
       id="text6369"><tspan
         style="fill:#000000;fill-opacity:1;fill-rule:nonzero;stroke:none;font-family:Arial;font-variant:normal;font-weight:normal;font-size:18.024;writing-mode:lr;-inkscape-font-specification:Arial"
         x="0 12.000008"
         y="0"
         sodipodi:role="line"
         id="tspan6371">B5</tspan></text>
<path
       d="m 135.44,214.14 28.1,-22.62 -0.62,-0.77 -28.11,22.61 0.63,0.78 z m 28.89,-20.04 2.79,-6.1 -6.55,1.42 3.76,4.68 z"
       style="fill:#000000;fill-opacity:1;fill-rule:nonzero;stroke:none"
       id="path6373" /><path
       d="m 509.73,260.36 47.93,-47.12 -0.7,-0.72 -47.94,47.12 0.71,0.72 z m 48.97,-44.64 2.17,-6.34 -6.38,2.06 4.21,4.28 z"
       style="fill:#000000;fill-opacity:1;fill-rule:nonzero;stroke:none"
       id="path6375" /><path
       d="m 264.42,176.71 26.39,56.72 0.91,-0.42 -26.39,-56.72 -0.91,0.42 z m 23.7,56.87 5.25,4.17 0.19,-6.71 -5.44,2.54 z"
       style="fill:#000000;fill-opacity:1;fill-rule:nonzero;stroke:none"
       id="path6387" /><path
       d="m 292.25,203.25 79.75,0 0,51.25 -79.75,0 0,-51.25 z"
       style="fill:none;stroke:#000000;stroke-opacity:1;stroke-width:1;stroke-linecap:butt;stroke-linejoin:miter;stroke-miterlimit:10;stroke-dasharray:none"
       id="path6389" /><text
       transform="matrix(1,0,0,-1,299.5,233.3)"
       id="text6391"><tspan
         style="fill:#000000;fill-opacity:1;fill-rule:nonzero;stroke:none;font-family:Arial;font-variant:normal;font-weight:normal;font-size:18;writing-mode:lr;-inkscape-font-specification:Arial"
         x="0 3.996 8.874 13.878 24.462 29.376 39.384 44.388 54.342"
         y="0"
         sodipodi:role="line"
         id="tspan6393">i := 1 ou</tspan></text>
<text
       transform="matrix(1,0,0,-1,299.5,211.7)"
       id="text6395"><tspan
         style="fill:#000000;fill-opacity:1;fill-rule:nonzero;stroke:none;font-family:Arial;font-variant:normal;font-weight:normal;font-size:18;writing-mode:lr;-inkscape-font-specification:Arial"
         x="0 3.996 8.874 13.878 24.462 29.376"
         y="0"
         sodipodi:role="line"
         id="tspan6397">i := 2</tspan></text>
<path
       d="m 562.38,377.75 54.75,0 0,29.625 -54.75,0 0,-29.625 z"
       style="fill:#ff3300;fill-opacity:1;fill-rule:evenodd;stroke:none"
       id="path6399" /><path
       d="m 562.38,377.75 54.75,0 0,29.625 -54.75,0 0,-29.625 z"
       style="fill:none;stroke:#000000;stroke-opacity:1;stroke-width:1;stroke-linecap:butt;stroke-linejoin:miter;stroke-miterlimit:10;stroke-dasharray:none"
       id="path6401" /><text
       transform="matrix(1,0,0,-1,569.66,386.21)"
       id="text6403"><tspan
         style="fill:#000000;fill-opacity:1;fill-rule:nonzero;stroke:none;font-family:Arial;font-variant:normal;font-weight:normal;font-size:18.024;writing-mode:lr;-inkscape-font-specification:Arial"
         x="0 4.001328 8.885832 13.896504 24.476592 29.397144"
         y="0"
         sodipodi:role="line"
         id="tspan6405">i := 2</tspan></text>
<path
       d="m 589.87,435.25 0,-26.25 -1,0 0,26.25 1,0 z m 2.5,-25.25 -3,-6 -3,6 6,0 z"
       style="fill:#000000;fill-opacity:1;fill-rule:nonzero;stroke:none"
       id="path6407" /><path
       d="m 512.63,137.88 159.25,0 0,72.875 -159.25,0 0,-72.875 z"
       style="fill:#99ffcc;fill-opacity:1;fill-rule:evenodd;stroke:none"
       id="path6409" /><path
       d="m 512.63,137.88 159.25,0 0,72.875 -159.25,0 0,-72.875 z"
       style="fill:none;stroke:#000000;stroke-opacity:1;stroke-width:1;stroke-linecap:butt;stroke-linejoin:miter;stroke-miterlimit:10;stroke-dasharray:none"
       id="path6411" /><text
       transform="matrix(1,0,0,-1,519.91,189.55)"
       id="text6413"><tspan
         style="fill:#000000;fill-opacity:1;fill-rule:nonzero;stroke:none;font-family:Arial;font-variant:normal;font-weight:normal;font-size:18;writing-mode:lr;-inkscape-font-specification:Arial"
         x="0 9 13.914 18.918 29.502 34.308"
         y="0"
         sodipodi:role="line"
         id="tspan6415">k := i</tspan></text>
<path
       d="m 519.83,186.39 38.28,0 0,1.32 -38.28,0 0,-1.32 z"
       style="fill:#000000;fill-opacity:1;fill-rule:evenodd;stroke:none"
       id="path6417" /><text
       transform="matrix(1,0,0,-1,519.91,167.93)"
       id="text6419"><tspan
         style="fill:#000000;fill-opacity:1;fill-rule:nonzero;stroke:none;font-family:Arial;font-variant:normal;font-weight:normal;font-size:18.024;writing-mode:lr;-inkscape-font-specification:Arial"
         x="0 9.012 13.914528 18.9252 29.505288 34.299672 43.311672"
         y="0"
         sodipodi:role="line"
         id="tspan6421">v := v </tspan></text>
<text
       transform="matrix(1,0,0,-1,568.27,167.93)"
       id="text6423"><tspan
         style="fill:#000000;fill-opacity:1;fill-rule:nonzero;stroke:none;font-family:Arial;font-variant:normal;font-weight:normal;font-size:18.024;writing-mode:lr;-inkscape-font-specification:Arial"
         x="0"
         y="0"
         id="tspan6425">-</tspan></text>
<text
       transform="matrix(1,0,0,-1,579.31,167.93)"
       id="text6427"><tspan
         style="fill:#000000;fill-opacity:1;fill-rule:nonzero;stroke:none;font-family:Arial;font-variant:normal;font-weight:normal;font-size:18.024;writing-mode:lr;-inkscape-font-specification:Arial"
         x="0"
         y="0"
         id="tspan6429">1</tspan></text>
<path
       d="m 519.83,164.79 69.36,0 0,1.32 -69.36,0 0,-1.32 z"
       style="fill:#000000;fill-opacity:1;fill-rule:evenodd;stroke:none"
       id="path6431" /><text
       transform="matrix(1,0,0,-1,519.91,146.33)"
       id="text6433"><tspan
         style="fill:#000000;fill-opacity:1;fill-rule:nonzero;stroke:none;font-family:Arial;font-variant:normal;font-weight:normal;font-size:18;writing-mode:lr;-inkscape-font-specification:Arial"
         x="0 3.996 9 13.914 25.92 30.834 41.346 51.93 56.844 66.852 76.77 81.774 91.782 101.736 106.74 116.748 121.878 133.884"
         y="0"
         sodipodi:role="line"
         id="tspan6435">if V &lt;= 20 goto B5</tspan></text>
<path
       d="m 519.83,143.19 143.88,0 0,1.32 -143.88,0 0,-1.32 z"
       style="fill:#000000;fill-opacity:1;fill-rule:evenodd;stroke:none"
       id="path6437" /></g></svg>