<?xml version="1.0" encoding="UTF-8" standalone="no"?>
<!-- Created with Inkscape (http://www.inkscape.org/) -->

<svg
   xmlns:dc="http://purl.org/dc/elements/1.1/"
   xmlns:cc="http://creativecommons.org/ns#"
   xmlns:rdf="http://www.w3.org/1999/02/22-rdf-syntax-ns#"
   xmlns:svg="http://www.w3.org/2000/svg"
   xmlns="http://www.w3.org/2000/svg"
   xmlns:sodipodi="http://sodipodi.sourceforge.net/DTD/sodipodi-0.dtd"
   xmlns:inkscape="http://www.inkscape.org/namespaces/inkscape"
   id="svg3308"
   version="1.1"
   inkscape:version="0.48.3.1 r9886"
   width="179.70837"
   height="99.853249"
   xml:space="preserve"
   sodipodi:docname="miv_ufrgs.pdf"><metadata
     id="metadata3314"><rdf:RDF><cc:Work
         rdf:about=""><dc:format>image/svg+xml</dc:format><dc:type
           rdf:resource="http://purl.org/dc/dcmitype/StillImage" /><dc:title></dc:title></cc:Work></rdf:RDF></metadata><defs
     id="defs3312"><clipPath
       clipPathUnits="userSpaceOnUse"
       id="clipPath3324"><path
         d="m -3e-4,595.2759 841.8903,0 0,-87.6002 -841.8903,0 0,87.6002 z"
         clip-rule="evenodd"
         id="path3326"
         inkscape:connector-curvature="0" /></clipPath></defs><sodipodi:namedview
     pagecolor="#ffffff"
     bordercolor="#666666"
     borderopacity="1"
     objecttolerance="10"
     gridtolerance="10"
     guidetolerance="10"
     inkscape:pageopacity="0"
     inkscape:pageshadow="2"
     inkscape:window-width="890"
     inkscape:window-height="881"
     id="namedview3310"
     showgrid="false"
     fit-margin-top="0"
     fit-margin-left="0"
     fit-margin-right="0"
     fit-margin-bottom="0"
     inkscape:zoom="2.5373122"
     inkscape:cx="143.50185"
     inkscape:cy="-3.4075848"
     inkscape:window-x="0"
     inkscape:window-y="17"
     inkscape:window-maximized="0"
     inkscape:current-layer="g3316" /><g
     id="g3316"
     inkscape:groupmode="layer"
     inkscape:label="miv_ufrgs"
     transform="matrix(1.25,0,0,-1.25,-69.687851,868.35666)"><g
       id="g3320"><g
         id="g3322"
         clip-path="url(#clipPath3324)"><text
           transform="matrix(1,0,0,-1,34.1827,501.3853)"
           id="text3328"><tspan
             style="font-size:158.97799683px;font-variant:normal;font-weight:900;writing-mode:lr-tb;fill:#666666;fill-opacity:1;fill-rule:nonzero;stroke:none;font-family:HelveticaNeue;-inkscape-font-specification:HelveticaNeue-Heavy"
             x="0"
             y="0"
             id="tspan3330"></tspan></text>
<text
           transform="matrix(1,0,0,-1,140.8411,521.1643)"
           id="text3332"><tspan
             style="font-size:16px;font-variant:normal;font-weight:300;writing-mode:lr-tb;fill:#ffffff;fill-opacity:1;fill-rule:nonzero;stroke:none;font-family:HelveticaNeue;-inkscape-font-specification:HelveticaNeue-Light"
             x="0 10.08 14.528 27.856001 37.936001 48.608002 59.872002"
             y="0"
             sodipodi:role="line"
             id="tspan3334"></tspan></text>
</g></g><g
       id="g3480"
       transform="translate(-87.021219,367.00253)"><path
         id="path3406"
         style="fill:#808080;fill-opacity:1;fill-rule:evenodd;stroke:none"
         d="m 194.0031,283.3716 -1.7109,0 0,-7.7814 1.7109,0 0,7.7814 z"
         inkscape:connector-curvature="0" /><path
         id="path3408"
         style="fill:#808080;fill-opacity:1;fill-rule:evenodd;stroke:none"
         d="m 197.2616,283.3716 -1.7002,0 0,-7.7814 1.6021,0 0,5.2095 0.0218,0 3.2366,-5.2095 1.711,0 0,7.7814 -1.6018,0 0,-5.2203 -0.0219,0 -3.2476,5.2203 z"
         inkscape:connector-curvature="0" /><path
         id="path3410"
         style="fill:#808080;fill-opacity:1;fill-rule:evenodd;stroke:none"
         d="m 204.6285,278.1731 -1.6562,0 c -0.008,-0.4796 0.0788,-0.8934 0.2613,-1.2424 0.1826,-0.3487 0.4278,-0.6347 0.7356,-0.8609 0.3078,-0.2262 0.6647,-0.3895 1.0681,-0.4958 0.4034,-0.1063 0.8201,-0.1581 1.2478,-0.1581 0.5312,0 0.9972,0.0626 1.4003,0.1854 0.4034,0.1224 0.7413,0.297 1.0137,0.5176 0.2724,0.2208 0.4768,0.485 0.6157,0.79 0.1389,0.3053 0.2072,0.6349 0.2072,0.9918 0,0.436 -0.0927,0.7929 -0.2781,1.0735 -0.1854,0.2806 -0.4059,0.504 -0.6593,0.6701 -0.2535,0.1664 -0.5094,0.2889 -0.7682,0.3651 -0.2588,0.0763 -0.4607,0.1281 -0.6049,0.1582 -0.4879,0.1224 -0.8802,0.2259 -1.1824,0.305 -0.3024,0.0791 -0.5368,0.1607 -0.7083,0.2398 -0.1718,0.0791 -0.2863,0.1661 -0.3433,0.2616 -0.0573,0.0953 -0.0873,0.2177 -0.0873,0.3705 0,0.1661 0.0354,0.305 0.1091,0.4142 0.0734,0.1088 0.1661,0.199 0.2778,0.2724 0.1117,0.0737 0.237,0.1227 0.3759,0.1525 0.1389,0.03 0.2752,0.0436 0.4141,0.0436 0.2098,0 0.4059,-0.0189 0.5831,-0.0544 0.1772,-0.0354 0.3351,-0.0981 0.474,-0.1854 0.1391,-0.087 0.248,-0.2072 0.3325,-0.3597 0.0844,-0.1525 0.1335,-0.3458 0.1471,-0.5774 l 1.6565,0 c 0,0.4496 -0.0844,0.8337 -0.2562,1.1497 -0.1715,0.3161 -0.4005,0.5749 -0.6919,0.7793 -0.2914,0.2044 -0.6239,0.3515 -0.9973,0.4413 -0.373,0.0899 -0.7653,0.1361 -1.1715,0.1361 -0.3487,0 -0.6974,-0.0462 -1.046,-0.1417 -0.349,-0.0953 -0.6622,-0.2396 -0.9374,-0.4357 -0.2753,-0.1962 -0.4986,-0.4414 -0.6701,-0.7356 -0.1718,-0.2943 -0.2563,-0.6404 -0.2563,-1.0409 0,-0.3569 0.0683,-0.6593 0.2015,-0.9099 0.1338,-0.2509 0.3107,-0.4606 0.5287,-0.6268 0.218,-0.1661 0.466,-0.3024 0.7413,-0.4087 0.2749,-0.1063 0.5584,-0.1933 0.8498,-0.267 0.2835,-0.0788 0.5641,-0.1525 0.8393,-0.2177 0.275,-0.0655 0.523,-0.1418 0.741,-0.2291 0.218,-0.087 0.3952,-0.1961 0.5284,-0.3268 0.1338,-0.1307 0.2018,-0.3025 0.2018,-0.5122 0,-0.1962 -0.0519,-0.3569 -0.1528,-0.485 -0.1006,-0.1282 -0.2287,-0.2262 -0.3812,-0.2997 -0.1525,-0.0737 -0.3161,-0.1227 -0.4904,-0.1471 -0.1744,-0.0246 -0.3379,-0.0382 -0.4904,-0.0382 -0.2262,0 -0.4442,0.0272 -0.654,0.0816 -0.2097,0.0547 -0.3951,0.1392 -0.5502,0.2509 -0.1553,0.1116 -0.2806,0.2588 -0.3761,0.4413 -0.0953,0.1826 -0.1418,0.4031 -0.1418,0.6647"
         inkscape:connector-curvature="0" /><path
         id="path3412"
         style="fill:#808080;fill-opacity:1;fill-rule:evenodd;stroke:none"
         d="m 209.9361,281.933 2.3321,0 0,-6.3428 1.711,0 0,6.3428 2.332,0 0,1.4386 -6.3751,0 0,-1.4386 z"
         inkscape:connector-curvature="0" /><path
         id="path3414"
         style="fill:#808080;fill-opacity:1;fill-rule:evenodd;stroke:none"
         d="m 219.0685,283.3716 -1.711,0 0,-7.7814 1.711,0 0,7.7814 z"
         inkscape:connector-curvature="0" /><path
         id="path3416"
         style="fill:#808080;fill-opacity:1;fill-rule:evenodd;stroke:none"
         d="m 220.0167,281.933 2.3321,0 0,-6.3428 1.7109,0 0,6.3428 2.3324,0 0,1.4386 -6.3754,0 0,-1.4386 z"
         inkscape:connector-curvature="0" /><path
         id="path3418"
         style="fill:#808080;fill-opacity:1;fill-rule:evenodd;stroke:none"
         d="m 233.7698,278.5329 0,4.8387 -1.711,0 0,-4.8387 c 0,-0.5806 -0.117,-1.008 -0.3486,-1.2807 -0.2316,-0.2725 -0.654,-0.4085 -1.2643,-0.4085 -0.3486,0 -0.6264,0.049 -0.8336,0.1471 -0.207,0.0981 -0.3677,0.2259 -0.4848,0.3813 -0.1173,0.1553 -0.1936,0.335 -0.229,0.5394 -0.0354,0.2044 -0.0544,0.4116 -0.0544,0.6214 l 0,4.8387 -1.711,0 0,-4.8387 c 0,-1.0599 0.2888,-1.8446 0.8662,-2.3542 0.5777,-0.5094 1.3924,-0.7628 2.4466,-0.7628 1.0381,0 1.8527,0.2562 2.4412,0.7684 0.5885,0.5123 0.8827,1.2941 0.8827,2.3486"
         inkscape:connector-curvature="0" /><path
         id="path3420"
         style="fill:#808080;fill-opacity:1;fill-rule:evenodd;stroke:none"
         d="m 234.7291,281.933 2.332,0 0,-6.3428 1.711,0 0,6.3428 2.3321,0 0,1.4386 -6.3751,0 0,-1.4386 z"
         inkscape:connector-curvature="0" /><path
         id="path3422"
         style="fill:#808080;fill-opacity:1;fill-rule:evenodd;stroke:none"
         d="m 241.5402,279.4482 c 0,-0.5667 0.0873,-1.0953 0.2616,-1.5857 0.1743,-0.4904 0.4249,-0.9182 0.752,-1.2805 0.3269,-0.3622 0.7274,-0.6485 1.2042,-0.8554 0.4768,-0.2073 1.0108,-0.3107 1.6075,-0.3107 0.6021,0 1.1415,0.1034 1.6129,0.3107 0.4714,0.2069 0.872,0.4932 1.1988,0.8554 0.3268,0.3623 0.5774,0.7901 0.7517,1.2805 0.1747,0.4904 0.2617,1.019 0.2617,1.5857 0,0.5802 -0.087,1.1199 -0.2617,1.6185 -0.1743,0.4984 -0.4249,0.9318 -0.7517,1.3023 -0.3268,0.3705 -0.7274,0.6619 -1.1988,0.8716 -0.4714,0.2101 -1.0108,0.3161 -1.6129,0.3161 -0.5967,0 -1.1307,-0.106 -1.6075,-0.3161 -0.4768,-0.2097 -0.8773,-0.5011 -1.2042,-0.8716 -0.3271,-0.3705 -0.5777,-0.8039 -0.752,-1.3023 -0.1743,-0.4986 -0.2616,-1.0383 -0.2616,-1.6185 z m 1.7109,0 c 0,0.3407 0.0383,0.6729 0.1146,0.9918 0.0762,0.3186 0.199,0.6046 0.3651,0.8555 0.1661,0.2506 0.3841,0.4496 0.6539,0.5992 0.2696,0.15 0.5967,0.2234 0.9808,0.2234 0.3841,0 0.7109,-0.0734 0.9808,-0.2234 0.2696,-0.1496 0.4876,-0.3486 0.654,-0.5992 0.1661,-0.2509 0.2885,-0.5369 0.3651,-0.8555 0.0762,-0.3189 0.1142,-0.6511 0.1142,-0.9918 0,-0.3269 -0.038,-0.6458 -0.1142,-0.9536 -0.0766,-0.3079 -0.199,-0.5857 -0.3651,-0.8337 -0.1664,-0.248 -0.3844,-0.4442 -0.654,-0.5938 -0.2699,-0.15 -0.5967,-0.2234 -0.9808,-0.2234 -0.3841,0 -0.7112,0.0734 -0.9808,0.2234 -0.2698,0.1496 -0.4878,0.3458 -0.6539,0.5938 -0.1661,0.248 -0.2889,0.5258 -0.3651,0.8337 -0.0763,0.3078 -0.1146,0.6267 -0.1146,0.9536"
         inkscape:connector-curvature="0" /><path
         id="path3424"
         style="fill:#000000;fill-opacity:1;fill-rule:evenodd;stroke:none"
         d="m 217.5591,303.8162 0,-14.0584 11.6064,0 0,14.0584 8.555,0 0,7.7649 -8.555,0 0,2.5336 c 0,1.7439 0.3405,2.9835 1.0216,3.7191 0.6812,0.7356 1.8119,1.1035 3.3922,1.1035 1.4712,0 2.888,-0.0819 4.25,-0.2452 l 0,8.6638 c -0.9808,0.0545 -1.9888,0.1228 -3.024,0.2044 -1.0355,0.0817 -2.0707,0.1225 -3.1059,0.1225 -4.7407,0 -8.2825,-1.1988 -10.6257,-3.5963 -2.3431,-2.3976 -3.5146,-5.4763 -3.5146,-9.2362 l 0,-3.2692 0,-7.7649 z m -33.1844,7.8247 -0.1117,0.0655 c -1.3459,3.6046 -4.4274,6.1138 -8.5252,6.1138 -0.5556,0 -1.1032,-0.0465 -1.6344,-0.1335 l 0,-20.4367 0.0544,-0.0108 0,-21.9214 10.7889,0 0,22.1502 c 0,4.3047 0.7084,7.397 2.1252,9.2769 1.4167,1.88 3.7054,2.82 6.8658,2.82 2.7791,0 4.7134,-0.8581 5.8031,-2.5748 1.0899,-1.7163 1.6347,-4.3183 1.6347,-7.8057 l 0,-9.4266 11.6065,0 0,11.5517 c 0,2.6155 -0.2316,4.9995 -0.6948,7.1521 -0.4632,2.1521 -1.2668,3.9776 -2.4112,5.476 -1.1443,1.4987 -2.7107,2.6702 -4.6998,3.5147 -1.9888,0.8447 -4.5363,1.267 -7.6422,1.267 -2.452,0 -4.8495,-0.5587 -7.1926,-1.6755 -2.3432,-1.1172 -4.2503,-2.9018 -5.7215,-5.3538 l -0.2452,0 0,-0.0491 z"
         inkscape:connector-curvature="0" /><path
         id="path3426"
         style="fill:#000000;fill-opacity:1;fill-rule:evenodd;stroke:none"
         d="m 169.4716,317.575 -10.2442,0 0,-42.2572 10.2442,0 0,42.2572 z"
         inkscape:connector-curvature="0" /><path
         id="path3428"
         style="fill:#808080;fill-opacity:1;fill-rule:evenodd;stroke:none"
         d="m 142.7715,281.1756 c 0,3.3865 2.7433,6.1302 6.1299,6.1302 3.3865,0 6.1302,-2.7437 6.1302,-6.1302 0,-3.3866 -2.7437,-6.1302 -6.1302,-6.1302 -3.3866,0 -6.1299,2.7436 -6.1299,6.1302"
         inkscape:connector-curvature="0" /><path
         id="path3430"
         style="fill:#808080;fill-opacity:1;fill-rule:evenodd;stroke:none"
         d="m 192.3574,250.5249 36.7809,0 0,-2.7247 -36.7809,0 0,2.7247 z"
         inkscape:connector-curvature="0" /><path
         id="path3432"
         style="fill:#808080;fill-opacity:1;fill-rule:evenodd;stroke:none"
         d="m 195.6487,272.4735 -3.3565,0 0,-7.7814 3.3565,0 c 0.5967,0 1.1143,0.1009 1.5531,0.2999 0.4385,0.1987 0.8064,0.474 1.1007,0.8229 0.2942,0.3487 0.5147,0.7628 0.659,1.2422 0.1446,0.4796 0.218,1.0026 0.218,1.5692 0,0.6458 -0.0899,1.2099 -0.267,1.6895 -0.1769,0.4793 -0.4249,0.8799 -0.741,1.1988 -0.3161,0.3186 -0.6894,0.5584 -1.1225,0.7191 -0.4332,0.1607 -0.8992,0.2398 -1.4003,0.2398 z m -0.1199,-6.3428 -1.5257,0 0,4.9042 1.2206,0 c 0.4221,0 0.7765,-0.0598 1.0625,-0.1797 0.286,-0.1199 0.5176,-0.2917 0.6919,-0.5176 0.1746,-0.2262 0.2999,-0.4961 0.3762,-0.8121 0.0762,-0.3161 0.1142,-0.6701 0.1142,-1.0624 0,-0.4278 -0.0544,-0.7929 -0.1633,-1.09 -0.1091,-0.297 -0.2534,-0.5394 -0.4359,-0.7245 -0.1826,-0.1854 -0.3898,-0.3189 -0.6214,-0.398 -0.2313,-0.0788 -0.4711,-0.1199 -0.7191,-0.1199"
         inkscape:connector-curvature="0" /><path
         id="path3434"
         style="fill:#808080;fill-opacity:1;fill-rule:evenodd;stroke:none"
         d="m 206.2851,272.4735 -5.8195,0 0,-7.7814 5.9068,0 0,1.4386 -4.1958,0 0,1.9072 3.7706,0 0,1.3297 -3.7706,0 0,1.6673 4.1085,0 0,1.4386 z"
         inkscape:connector-curvature="0" /><path
         id="path3436"
         style="fill:#808080;fill-opacity:1;fill-rule:evenodd;stroke:none"
         d="m 212.2574,272.4735 -1.7113,0 0,-7.7814 1.7113,0 0,7.7814 z"
         inkscape:connector-curvature="0" /><path
         id="path3438"
         style="fill:#808080;fill-opacity:1;fill-rule:evenodd;stroke:none"
         d="m 215.2431,272.4735 -1.6999,0 0,-7.7814 1.6019,0 0,5.2095 0.0218,0 3.2369,-5.2095 1.711,0 0,7.7814 -1.6022,0 0,-5.2203 -0.0218,0 -3.2477,5.2203 z"
         inkscape:connector-curvature="0" /><path
         id="path3440"
         style="fill:#808080;fill-opacity:1;fill-rule:evenodd;stroke:none"
         d="m 227.1875,272.4735 -5.4709,0 0,-7.7814 1.711,0 0,3.2151 3.2587,0 0,1.3297 -3.2587,0 0,1.798 3.7599,0 0,1.4386 z"
         inkscape:connector-curvature="0" /><path
         id="path3442"
         style="fill:#808080;fill-opacity:1;fill-rule:evenodd;stroke:none"
         d="m 227.9177,268.5501 c 0,-0.5667 0.087,-1.095 0.2616,-1.5857 0.1744,-0.4904 0.425,-0.9182 0.7518,-1.2804 0.3271,-0.3623 0.7276,-0.6486 1.2044,-0.8555 0.4768,-0.207 1.0106,-0.3107 1.6073,-0.3107 0.6023,0 1.1418,0.1037 1.6129,0.3107 0.4714,0.2069 0.8719,0.4932 1.1988,0.8555 0.3271,0.3622 0.5777,0.79 0.752,1.2804 0.1743,0.4907 0.2616,1.019 0.2616,1.5857 0,0.5805 -0.0873,1.1199 -0.2616,1.6186 -0.1743,0.4983 -0.4249,0.9317 -0.752,1.3022 -0.3269,0.3705 -0.7274,0.6619 -1.1988,0.8717 -0.4711,0.21 -1.0106,0.316 -1.6129,0.316 -0.5967,0 -1.1305,-0.106 -1.6073,-0.316 -0.4768,-0.2098 -0.8773,-0.5012 -1.2044,-0.8717 -0.3268,-0.3705 -0.5774,-0.8039 -0.7518,-1.3022 -0.1746,-0.4987 -0.2616,-1.0381 -0.2616,-1.6186 z m 1.711,0 c 0,0.3407 0.0383,0.6729 0.1142,0.9918 0.0766,0.3186 0.199,0.6049 0.3654,0.8555 0.1661,0.2506 0.3841,0.4496 0.6537,0.5993 0.2698,0.1499 0.5967,0.2236 0.9808,0.2236 0.3843,0 0.7112,-0.0737 0.9808,-0.2236 0.2698,-0.1497 0.4878,-0.3487 0.6539,-0.5993 0.1664,-0.2506 0.2889,-0.5369 0.3651,-0.8555 0.0763,-0.3189 0.1145,-0.6511 0.1145,-0.9918 0,-0.3269 -0.0382,-0.6458 -0.1145,-0.9536 -0.0762,-0.3078 -0.1987,-0.5856 -0.3651,-0.8337 -0.1661,-0.2477 -0.3841,-0.4439 -0.6539,-0.5938 -0.2696,-0.15 -0.5965,-0.2234 -0.9808,-0.2234 -0.3841,0 -0.711,0.0734 -0.9808,0.2234 -0.2696,0.1499 -0.4876,0.3461 -0.6537,0.5938 -0.1664,0.2481 -0.2888,0.5259 -0.3654,0.8337 -0.0759,0.3078 -0.1142,0.6267 -0.1142,0.9536"
         inkscape:connector-curvature="0" /><path
         id="path3444"
         style="fill:#808080;fill-opacity:1;fill-rule:evenodd;stroke:none"
         d="m 240.8973,272.4735 -4.1959,0 0,-7.7814 1.711,0 0,3.0408 1.711,0 c 0.4277,0 0.7384,-0.0953 0.9264,-0.2835 0.1879,-0.188 0.3132,-0.4876 0.3705,-0.8935 0.0436,-0.3135 0.0765,-0.6403 0.098,-0.9808 0.0219,-0.3407 0.0791,-0.6349 0.1746,-0.883 l 1.7108,0 c -0.0788,0.1092 -0.1389,0.2427 -0.1798,0.398 -0.0408,0.1553 -0.068,0.3215 -0.087,0.4958 -0.0193,0.1743 -0.03,0.3461 -0.0383,0.5122 l -0.0218,0.436 c -0.0136,0.1961 -0.0408,0.3923 -0.0816,0.5885 -0.0408,0.1961 -0.1035,0.3758 -0.1908,0.5394 -0.0873,0.1635 -0.199,0.305 -0.3379,0.4249 -0.1389,0.1199 -0.3132,0.21 -0.523,0.267 l 0,0.0218 c 0.436,0.1744 0.7492,0.4278 0.9425,0.7631 0.1937,0.3351 0.2889,0.73 0.2889,1.1878 0,0.297 -0.0516,0.5748 -0.1579,0.8336 -0.1063,0.2588 -0.2591,0.485 -0.4578,0.6812 -0.199,0.1961 -0.4388,0.3515 -0.7191,0.4632 -0.281,0.1117 -0.5942,0.1689 -0.9428,0.1689 z m -0.6103,-3.5201 -1.8746,0 0,2.1904 1.8746,0 c 0.3923,0 0.6865,-0.0845 0.8827,-0.256 0.1961,-0.1718 0.2942,-0.4442 0.2942,-0.8229 0,-0.3923 -0.0981,-0.6755 -0.2942,-0.8501 -0.1962,-0.174 -0.4904,-0.2614 -0.8827,-0.2614"
         inkscape:connector-curvature="0" /><path
         id="path3446"
         style="fill:#808080;fill-opacity:1;fill-rule:evenodd;stroke:none"
         d="m 247.011,272.4735 -2.4086,0 0,-7.7814 1.6022,0 0,5.4601 0.0218,0 1.9071,-5.4601 1.3187,0 1.9072,5.5145 0.0218,0 0,-5.5145 1.6019,0 0,7.7814 -2.4084,0 -1.722,-5.3509 -0.0218,0 -1.8199,5.3509 z"
         inkscape:connector-curvature="0" /><path
         id="path3448"
         style="fill:#808080;fill-opacity:1;fill-rule:evenodd;stroke:none"
         d="m 258.2906,272.4735 -1.7546,0 -2.9426,-7.7814 1.722,0 0.6103,1.7328 2.9098,0 0.5884,-1.7328 1.7765,0 -2.9098,7.7814 z m 0.0981,-4.7732 -2.0163,0 1.0137,2.855 0.0216,0 0.981,-2.855 z m -1.8201,5.4705 1.0789,0 1.6784,1.5478 -1.711,0 -1.0463,-1.5478 z"
         inkscape:connector-curvature="0" /><path
         id="path3450"
         style="fill:#808080;fill-opacity:1;fill-rule:evenodd;stroke:none"
         d="m 261.4292,271.0349 2.332,0 0,-6.3428 1.711,0 0,6.3428 2.3324,0 0,1.4386 -6.3754,0 0,-1.4386 z"
         inkscape:connector-curvature="0" /><path
         id="path3452"
         style="fill:#808080;fill-opacity:1;fill-rule:evenodd;stroke:none"
         d="m 270.2891,272.4735 -1.711,0 0,-7.7814 1.711,0 0,7.7814 z"
         inkscape:connector-curvature="0" /><path
         id="path3454"
         style="fill:#808080;fill-opacity:1;fill-rule:evenodd;stroke:none"
         d="m 277.035,269.858 1.6566,0 c -0.0516,0.4496 -0.1743,0.8501 -0.3705,1.1988 -0.1962,0.3486 -0.4442,0.64 -0.7466,0.8773 -0.3022,0.237 -0.6429,0.4167 -1.0242,0.5394 -0.3815,0.1225 -0.7875,0.1851 -1.2152,0.1851 -0.5967,0 -1.1308,-0.106 -1.6075,-0.316 -0.4768,-0.2098 -0.8774,-0.5012 -1.2042,-0.8717 -0.3268,-0.3705 -0.5777,-0.8039 -0.752,-1.3022 -0.1744,-0.4987 -0.2617,-1.0381 -0.2617,-1.6186 0,-0.5667 0.0873,-1.095 0.2617,-1.5857 0.1743,-0.4904 0.4252,-0.9182 0.752,-1.2804 0.3268,-0.3623 0.7274,-0.6486 1.2042,-0.8555 0.4767,-0.207 1.0108,-0.3107 1.6075,-0.3107 0.4796,0 0.9181,0.0737 1.3187,0.218 0.4005,0.1445 0.7492,0.3569 1.0462,0.6321 0.2968,0.2752 0.5366,0.6103 0.7192,1.0026 0.1825,0.3923 0.2942,0.8311 0.3379,1.3187 l -1.6566,0 c -0.0655,-0.523 -0.2452,-0.9454 -0.5394,-1.2643 -0.2943,-0.3186 -0.703,-0.4793 -1.226,-0.4793 -0.3841,0 -0.7112,0.0734 -0.9808,0.2234 -0.2699,0.1499 -0.4878,0.3461 -0.654,0.5938 -0.1661,0.2481 -0.2888,0.5259 -0.3651,0.8337 -0.0762,0.3078 -0.1145,0.6267 -0.1145,0.9536 0,0.3407 0.0383,0.6729 0.1145,0.9918 0.0763,0.3186 0.199,0.6049 0.3651,0.8555 0.1662,0.2506 0.3841,0.4496 0.654,0.5993 0.2696,0.1499 0.5967,0.2236 0.9808,0.2236 0.2098,0 0.4113,-0.0354 0.6049,-0.1037 0.1933,-0.0681 0.3651,-0.1661 0.5176,-0.2886 0.1525,-0.1227 0.2806,-0.267 0.3813,-0.4306 0.1009,-0.1635 0.1664,-0.3433 0.1961,-0.5394"
         inkscape:connector-curvature="0" /><path
         id="path3456"
         style="fill:#808080;fill-opacity:1;fill-rule:evenodd;stroke:none"
         d="m 283.6284,272.4735 -1.7546,0 -2.9424,-7.7814 1.7218,0 0.6103,1.7328 2.91,0 0.5885,-1.7328 1.7762,0 -2.9098,7.7814 z m 0.0981,-4.7732 -2.016,0 1.0134,2.855 0.0218,0 0.9808,-2.855 z"
         inkscape:connector-curvature="0" /><path
         id="path3458"
         style="fill:#000000;fill-opacity:1;fill-rule:evenodd;stroke:none"
         d="m 198.8963,256.7367 0,4.8387 -1.711,0 0,-4.8387 c 0,-0.5803 -0.117,-1.008 -0.3489,-1.2804 -0.2313,-0.2724 -0.6537,-0.4088 -1.264,-0.4088 -0.3487,0 -0.6267,0.0491 -0.8337,0.1471 -0.2072,0.0981 -0.3679,0.2263 -0.485,0.3816 -0.117,0.155 -0.1936,0.335 -0.2287,0.5394 -0.0355,0.2044 -0.0547,0.4113 -0.0547,0.6211 l 0,4.8387 -1.711,0 0,-4.8387 c 0,-1.0599 0.2888,-1.8445 0.8665,-2.3539 0.5774,-0.5097 1.3921,-0.7631 2.4466,-0.7631 1.0381,0 1.8527,0.2563 2.4412,0.7685 0.5885,0.5122 0.8827,1.294 0.8827,2.3485"
         inkscape:connector-curvature="0" /><path
         id="path3460"
         style="fill:#000000;fill-opacity:1;fill-rule:evenodd;stroke:none"
         d="m 205.9364,261.5754 -5.4708,0 0,-7.7811 1.711,0 0,3.2148 3.2584,0 0,1.3297 -3.2584,0 0,1.7981 3.7598,0 0,1.4385 z"
         inkscape:connector-curvature="0" /><path
         id="path3462"
         style="fill:#000000;fill-opacity:1;fill-rule:evenodd;stroke:none"
         d="m 210.9277,261.5754 -4.1959,0 0,-7.7811 1.711,0 0,3.0405 1.711,0 c 0.4278,0 0.7385,-0.0953 0.9264,-0.2835 0.1882,-0.1879 0.3135,-0.4876 0.3705,-0.8935 0.0436,-0.3132 0.0765,-0.6403 0.0981,-0.9808 0.0218,-0.3407 0.079,-0.6349 0.1746,-0.8827 l 1.711,0 c -0.0791,0.1089 -0.1392,0.2424 -0.18,0.3977 -0.0409,0.1554 -0.0681,0.3215 -0.0871,0.4958 -0.0192,0.1743 -0.03,0.3461 -0.0382,0.5122 l -0.0219,0.436 c -0.0136,0.1962 -0.0408,0.3923 -0.0816,0.5885 -0.0408,0.1961 -0.1035,0.3758 -0.1908,0.5394 -0.087,0.1636 -0.199,0.3053 -0.3379,0.4249 -0.1389,0.1202 -0.3132,0.2101 -0.5229,0.2673 l 0,0.0216 c 0.4359,0.1746 0.7491,0.4277 0.9425,0.7631 0.1936,0.335 0.2888,0.7299 0.2888,1.1877 0,0.297 -0.0516,0.5748 -0.1579,0.8336 -0.1063,0.2588 -0.2588,0.485 -0.4578,0.6812 -0.199,0.1962 -0.4385,0.3515 -0.7191,0.4632 -0.2806,0.1117 -0.5942,0.1689 -0.9428,0.1689 z m -0.6103,-3.52 -1.8746,0 0,2.1906 1.8746,0 c 0.3923,0 0.6865,-0.0845 0.8827,-0.2563 0.1962,-0.1715 0.2942,-0.4439 0.2942,-0.8229 0,-0.3923 -0.098,-0.6755 -0.2942,-0.8498 -0.1962,-0.1743 -0.4904,-0.2616 -0.8827,-0.2616"
         inkscape:connector-curvature="0" /><path
         id="path3464"
         style="fill:#000000;fill-opacity:1;fill-rule:evenodd;stroke:none"
         d="m 220.2562,254.677 0.1746,-0.8827 1.0897,0 0,4.2066 -3.2695,0 0,-1.275 1.722,0 c -0.0518,-0.5451 -0.2316,-0.9618 -0.5394,-1.2478 -0.3078,-0.2863 -0.7466,-0.4306 -1.3133,-0.4306 -0.3841,0 -0.7109,0.0734 -0.9808,0.2234 -0.2698,0.15 -0.4875,0.3461 -0.6539,0.5939 -0.1661,0.248 -0.2889,0.5258 -0.3651,0.8336 -0.0763,0.3082 -0.1143,0.6268 -0.1143,0.9539 0,0.3404 0.038,0.6726 0.1143,0.9915 0.0762,0.3189 0.199,0.605 0.3651,0.8555 0.1664,0.2506 0.3841,0.4496 0.6539,0.5996 0.2699,0.1496 0.5967,0.2233 0.9808,0.2233 0.4142,0 0.7657,-0.1091 1.0571,-0.3271 0.2916,-0.218 0.4878,-0.5448 0.5884,-0.9808 l 1.6348,0 c -0.0437,0.4442 -0.1633,0.8365 -0.3595,1.177 -0.1964,0.3407 -0.4442,0.6296 -0.7466,0.8611 -0.3025,0.2316 -0.6404,0.4085 -1.0134,0.5284 -0.3733,0.1199 -0.7602,0.1797 -1.1608,0.1797 -0.5967,0 -1.1307,-0.106 -1.6075,-0.3157 -0.4768,-0.2098 -0.8773,-0.5015 -1.2042,-0.872 -0.3268,-0.3705 -0.5777,-0.8036 -0.7517,-1.3022 -0.1746,-0.4986 -0.2617,-1.0381 -0.2617,-1.6183 0,-0.5669 0.0871,-1.0953 0.2617,-1.5857 0.174,-0.4904 0.4249,-0.9184 0.7517,-1.2807 0.3269,-0.3623 0.7274,-0.6483 1.2042,-0.8555 0.4768,-0.2069 1.0108,-0.3107 1.6075,-0.3107 0.3787,0 0.752,0.0791 1.1225,0.2344 0.3705,0.1554 0.7084,0.4306 1.0134,0.8229"
         inkscape:connector-curvature="0" /><path
         id="path3466"
         style="fill:#000000;fill-opacity:1;fill-rule:evenodd;stroke:none"
         d="m 224.2451,256.377 -1.6565,0 c -0.008,-0.4794 0.0791,-0.8935 0.2616,-1.2422 0.1823,-0.3489 0.4278,-0.6349 0.7356,-0.8611 0.3078,-0.226 0.6647,-0.3895 1.0681,-0.4958 0.4031,-0.1063 0.8198,-0.1582 1.2475,-0.1582 0.5315,0 0.9972,0.0629 1.4006,0.1854 0.4031,0.1227 0.741,0.2971 1.0134,0.5176 0.2724,0.2208 0.4768,0.485 0.6157,0.7903 0.1392,0.305 0.2072,0.6347 0.2072,0.9916 0,0.4359 -0.0927,0.7928 -0.2781,1.0734 -0.1851,0.2807 -0.4059,0.504 -0.6593,0.6704 -0.2532,0.1662 -0.5094,0.2886 -0.7682,0.3651 -0.2588,0.0763 -0.4604,0.1279 -0.6049,0.1579 -0.4876,0.1225 -0.8799,0.2262 -1.1824,0.305 -0.3024,0.0791 -0.5365,0.1608 -0.7083,0.2399 -0.1718,0.079 -0.286,0.1661 -0.3433,0.2616 -0.0573,0.0952 -0.0873,0.218 -0.0873,0.3705 0,0.1661 0.0354,0.3053 0.1091,0.4141 0.0734,0.1089 0.1661,0.199 0.2778,0.2724 0.1117,0.0737 0.237,0.1228 0.3759,0.1525 0.1392,0.0301 0.2752,0.0437 0.4144,0.0437 0.2098,0 0.4059,-0.019 0.5828,-0.0544 0.1772,-0.0355 0.3354,-0.0981 0.4743,-0.1854 0.1389,-0.087 0.248,-0.207 0.3322,-0.3595 0.0844,-0.1527 0.1335,-0.3461 0.1471,-0.5777 l 1.6566,0 c 0,0.4496 -0.0845,0.8337 -0.256,1.1498 -0.1718,0.316 -0.4005,0.5748 -0.6922,0.7792 -0.2914,0.2044 -0.6239,0.3515 -0.997,0.4414 -0.3733,0.0898 -0.7656,0.136 -1.1715,0.136 -0.349,0 -0.6976,-0.0462 -1.0463,-0.1414 -0.3487,-0.0955 -0.6622,-0.2398 -0.9374,-0.436 -0.275,-0.1961 -0.4983,-0.4413 -0.6701,-0.7356 -0.1718,-0.2942 -0.256,-0.6403 -0.256,-1.0409 0,-0.3568 0.068,-0.6593 0.2015,-0.9099 0.1336,-0.2506 0.3107,-0.4603 0.5284,-0.6267 0.218,-0.1661 0.466,-0.3022 0.7413,-0.4085 0.2752,-0.1063 0.5584,-0.1936 0.8498,-0.267 0.2835,-0.0791 0.5641,-0.1528 0.8394,-0.218 0.2752,-0.0655 0.5229,-0.1417 0.7409,-0.229 0.218,-0.0871 0.3952,-0.1962 0.5287,-0.3269 0.1335,-0.1306 0.2015,-0.3024 0.2015,-0.5122 0,-0.1961 -0.0516,-0.3569 -0.1525,-0.485 -0.1009,-0.1278 -0.229,-0.2262 -0.3815,-0.2996 -0.1525,-0.0737 -0.3161,-0.1228 -0.4904,-0.1471 -0.1743,-0.0247 -0.3379,-0.038 -0.4904,-0.038 -0.2262,0 -0.4442,0.0272 -0.654,0.0816 -0.2097,0.0544 -0.3948,0.1389 -0.5502,0.2506 -0.1553,0.1117 -0.2806,0.2588 -0.3761,0.4414 -0.0953,0.1825 -0.1415,0.4033 -0.1415,0.6647"
         inkscape:connector-curvature="0" /></g><text
       transform="matrix(1,0,0,-1,386.0935,133.3128)"
       id="text3468"><tspan
         style="font-size:10px;font-variant:normal;font-weight:500;writing-mode:lr-tb;fill:#000000;fill-opacity:1;fill-rule:nonzero;stroke:none;font-family:HelveticaNeue;-inkscape-font-specification:HelveticaNeue-Medium"
         x="0 5.5598998 11.1199 14.6399 19.829901 25.3899 31.319901 32.988201 41.688202 47.618198 53.3582 59.2882 64.848198 68.188499 74.1185 82.818497 88.378502 91.708504 94.1185 99.678497"
         y="0"
         sodipodi:role="line"
         id="tspan3470"></tspan><tspan
         style="font-size:10px;font-variant:normal;font-weight:500;writing-mode:lr-tb;fill:#999999;fill-opacity:1;fill-rule:nonzero;stroke:none;font-family:HelveticaNeue;-inkscape-font-specification:HelveticaNeue-Medium"
         x="-0.00060000003 6.6694002 12.2294 15.7494 21.309401 29.211599 34.771599 40.881599 43.291599 45.701599 51.2616 56.821602 62.381599 68.3116 73.871597 79.0616 86.964699 90.304497 95.864502 101.0545 104.3845 107.9045 110.3145 113.6445 119.2045 124.3945 132.29691 138.40691 144.1469 149.70689 155.4469 158.7769 164.70689 172.6095 178.16949 186.0715 191.81149 195.14149 197.5515 199.9615 202.37151 207.37151 212.9315 218.4915 224.0515 229.98151 237.88429 243.99429 249.55431 257.45639 263.01639 268.94641 272.28671 277.84671 283.03671 285.81671 293.7189 298.90891 304.6489 310.57889 316.13889 319.65891 322.06891 330.76889 336.69891 341.88889 349.7916 355.53159 364.2316 369.7916 377.69421 382.88419 388.44421 391.9642 397.15421 402.7142 408.6442"
         y="23.459801"
         sodipodi:role="line"
         id="tspan3472"></tspan><tspan
         style="font-size:10px;font-variant:normal;font-weight:500;writing-mode:lr-tb;fill:#999999;fill-opacity:1;fill-rule:nonzero;stroke:none;font-family:HelveticaNeue;-inkscape-font-specification:HelveticaNeue-Medium"
         x="-0.0024999999 8.6975002 14.6275 20.3675 26.297501 31.8575 35.1978 41.1278 49.827801 55.387798 58.7178 61.1278 66.687798 72.247803 75.027802 78.335197 84.265198 90.005203 96.115196 101.6752 104.982 110.542 113.8485 122.5485 128.10851 131.44881 137.0088 142.5688 145.8757 151.9857 157.9157 164.0257 169.58569 173.1057 178.6657 181.9726 190.67261 196.2326 201.9726 205.3026 210.86259 214.3826 217.6897 222.8797 228.61971 234.1797 239.36971 242.6763 248.2363 253.7963 257.31631 262.87631 268.43631 271.7663 277.32629 280.84631 283.25629 288.44629 291.77631 294.18631 299.74631 305.3063 310.49631 313.80441 319.36441 322.6709 326.01071 331.57071 337.68069 341.021 346.58099 351.771 357.33099 363.07101 366.401 371.961 375.29099 377.70099 382.89099 385.30099 391.41101 396.97101 403.08099 408.64099"
         y="41.054699"
         sodipodi:role="line"
         id="tspan3474"></tspan><tspan
         style="font-size:10px;font-variant:normal;font-weight:500;writing-mode:lr-tb;fill:#999999;fill-opacity:1;fill-rule:nonzero;stroke:none;font-family:HelveticaNeue;-inkscape-font-specification:HelveticaNeue-Medium"
         x="-0.0044 5.5556002 11.4856 20.1856 22.079201 27.6392 33.749199 39.3092 45.049198 50.6092 55.799198 57.6931 63.433102 72.133102 77.6931 79.5868 85.146797 91.256798 93.666801 96.076797 101.6368 107.1968 112.7568 118.3168 124.2468 126.1413 132.2513 137.81129 139.70509 145.26511 151.1951 153.7953 156.5753 158.46851 164.76849 169.9585 175.1485 180.7085 182.60181 188.1618 194.2718 196.68179 199.0918 204.65179 210.21181 215.7718 221.3318 227.2618 229.15601 234.716 236.60941 239.9492 245.5092 250.6992 254.02921 257.54919 259.9592 263.28922 268.84921 270.7431 276.85309 282.41309 285.93311 291.4931 293.38708 296.7171 302.64709 308.38708 313.57709 315.47101 321.58099 327.14099 329.03479 334.59479 337.00479 342.74481 347.74481 353.30481 355.19861 359.08859 360.98209 366.72211 372.2821 378.2121 380.1058 385.29581 390.8558 396.59579 402.70581 408.6358"
         y="58.649601"
         sodipodi:role="line"
         id="tspan3476"></tspan><tspan
         style="font-size:10px;font-variant:normal;font-weight:500;writing-mode:lr-tb;fill:#999999;fill-opacity:1;fill-rule:nonzero;stroke:none;font-family:HelveticaNeue;-inkscape-font-specification:HelveticaNeue-Medium"
         x="-0.0071 6.1029 11.6629 15.1829 23.8829 26.2929 29.6229 32.032902 38.142899 43.7029 45.3713 50.931301 52.599098 55.9389 61.498901 64.828903 67.238899 72.798897 78.538902 80.948898 86.508904 92.068901 97.628899 103.5589 105.228 110.788 119.488 121.1562 127.0862 132.8262 136.1562 139.67619 145.23621 150.42619 152.09441 157.6544 163.5844 166.9247 172.4847 177.6747"
         y="76.244797"
         sodipodi:role="line"
         id="tspan3478"></tspan></text>
</g></svg>