<?xml version="1.0" encoding="UTF-8" standalone="no"?>
<!-- Generated by graphviz version 2.26.3 (20100126.1600)
 -->

<!-- Title: _anonymous_0 Pages: 1 -->

<svg
   xmlns:dc="http://purl.org/dc/elements/1.1/"
   xmlns:cc="http://creativecommons.org/ns#"
   xmlns:rdf="http://www.w3.org/1999/02/22-rdf-syntax-ns#"
   xmlns:svg="http://www.w3.org/2000/svg"
   xmlns="http://www.w3.org/2000/svg"
   xmlns:sodipodi="http://sodipodi.sourceforge.net/DTD/sodipodi-0.dtd"
   xmlns:inkscape="http://www.inkscape.org/namespaces/inkscape"
   width="660.85938"
   height="359.06458"
   viewBox="0 0 528.6875 286.7281"
   id="svg2"
   version="1.1"
   inkscape:version="0.48.3.1 r9886"
   sodipodi:docname="afd_exemplo_3-36.svg">
  <metadata
     id="metadata152">
    <rdf:RDF>
      <cc:Work
         rdf:about="">
        <dc:format>image/svg+xml</dc:format>
        <dc:type
           rdf:resource="http://purl.org/dc/dcmitype/StillImage" />
      </cc:Work>
    </rdf:RDF>
  </metadata>
  <defs
     id="defs150">
    <marker
       inkscape:stockid="Arrow1Lend"
       orient="auto"
       refY="0"
       refX="0"
       id="Arrow1Lend"
       style="overflow:visible">
      <path
         id="path4029"
         d="M 0,0 5,-5 -12.5,0 5,5 0,0 z"
         style="fill-rule:evenodd;stroke:#000000;stroke-width:1pt"
         transform="matrix(-0.8,0,0,-0.8,-10,0)"
         inkscape:connector-curvature="0" />
    </marker>
  </defs>
  <sodipodi:namedview
     pagecolor="#ffffff"
     bordercolor="#666666"
     borderopacity="1"
     objecttolerance="10"
     gridtolerance="10"
     guidetolerance="10"
     inkscape:pageopacity="0"
     inkscape:pageshadow="2"
     inkscape:window-width="804"
     inkscape:window-height="881"
     id="namedview148"
     showgrid="false"
     fit-margin-top="0"
     fit-margin-left="0"
     fit-margin-right="0"
     fit-margin-bottom="0"
     inkscape:zoom="0.58478664"
     inkscape:cx="476.53872"
     inkscape:cy="472.22318"
     inkscape:window-x="0"
     inkscape:window-y="17"
     inkscape:window-maximized="0"
     inkscape:current-layer="svg2" />
  <ellipse
     cx="3"
     cy="-30.6262"
     rx="1.8"
     ry="1.8"
     id="ellipse12"
     d="m 4.8,-30.6262 c 0,0.994113 -0.8058875,1.8 -1.8,1.8 -0.9941125,0 -1.8,-0.805887 -1.8,-1.8 0,-0.994112 0.8058875,-1.8 1.8,-1.8 0.9941125,0 1.8,0.805888 1.8,1.8 z"
     sodipodi:cx="3"
     sodipodi:cy="-30.6262"
     sodipodi:rx="1.8"
     sodipodi:ry="1.8"
     style="fill:#000000;stroke:#000000"
     transform="translate(-0.6875,250.06652)" />
  <ellipse
     cx="75"
     cy="-30.6262"
     rx="17.887899"
     ry="18.3848"
     id="ellipse17"
     d="m 92.887899,-30.6262 c 0,10.153645 -8.008685,18.3848 -17.887899,18.3848 -9.879214,0 -17.887899,-8.231155 -17.887899,-18.3848 0,-10.153644 8.008685,-18.3848 17.887899,-18.3848 9.879214,0 17.887899,8.231156 17.887899,18.3848 z"
     sodipodi:cx="75"
     sodipodi:cy="-30.6262"
     sodipodi:rx="17.887899"
     sodipodi:ry="18.3848"
     style="fill:none;stroke:#000000"
     transform="translate(-0.6875,250.06652)" />
  <text
     x="74.3125"
     y="223.04033"
     font-size="14.00"
     id="text19"
     style="font-size:14px;text-anchor:middle;font-family:'Times Roman,serif'">A</text>
  <path
     d="m 4.38967,219.44032 c 6.16593,0 24.96623,0 41.52063,0"
     id="path24"
     inkscape:connector-curvature="0"
     style="fill:none;stroke:#000000" />
  <polygon
     points="46.9968,-27.1263 46.9968,-34.1263 46.9968,-34.1263 56.9968,-30.6262 "
     id="polygon26"
     style="fill:#000000;stroke:#000000"
     transform="translate(-0.6875,250.06652)" />
  <ellipse
     cx="219"
     cy="-30.6262"
     rx="17.887899"
     ry="18.3848"
     id="ellipse31"
     d="m 236.8879,-30.6262 c 0,10.153645 -8.00869,18.3848 -17.8879,18.3848 -9.87921,0 -17.8879,-8.231155 -17.8879,-18.3848 0,-10.153644 8.00869,-18.3848 17.8879,-18.3848 9.87921,0 17.8879,8.231156 17.8879,18.3848 z"
     sodipodi:cx="219"
     sodipodi:cy="-30.6262"
     sodipodi:rx="17.887899"
     sodipodi:ry="18.3848"
     style="fill:none;stroke:#000000"
     transform="translate(-0.6875,250.06652)" />
  <text
     x="218.3125"
     y="223.04033"
     font-size="14.00"
     id="text33"
     style="font-size:14px;text-anchor:middle;font-family:'Times Roman,serif'">B</text>
  <path
     d="m 92.5502,219.44032 c 24.5613,0 68.5153,0 97.4083,0"
     id="path38"
     inkscape:connector-curvature="0"
     style="fill:none;stroke:#000000" />
  <polygon
     points="190.91,-27.1263 190.91,-34.1263 190.91,-34.1263 200.91,-30.6262 "
     id="polygon40"
     style="fill:#000000;stroke:#000000"
     transform="translate(-0.6875,250.06652)" />
  <text
     x="141.2545"
     y="237.94032"
     font-size="20.00"
     id="text42"
     style="font-size:20px;text-anchor:middle;font-family:'Times Roman,serif'">a</text>
  <ellipse
     cx="219"
     cy="-174.62601"
     rx="17.887899"
     ry="18.3848"
     id="ellipse47"
     d="m 236.8879,-174.62601 c 0,10.15365 -8.00869,18.3848 -17.8879,18.3848 -9.87921,0 -17.8879,-8.23115 -17.8879,-18.3848 0,-10.15364 8.00869,-18.3848 17.8879,-18.3848 9.87921,0 17.8879,8.23116 17.8879,18.3848 z"
     sodipodi:cx="219"
     sodipodi:cy="-174.62601"
     sodipodi:rx="17.887899"
     sodipodi:ry="18.3848"
     style="fill:none;stroke:#000000"
     transform="translate(-0.6875,250.06652)" />
  <text
     x="218.3125"
     y="79.04052"
     font-size="14.00"
     id="text49"
     style="font-size:14px;text-anchor:middle;font-family:'Times Roman,serif'">C</text>
  <path
     d="m 87.3455,206.40732 c 25.04,-25.0399 80.057,-80.0568 110.204,-110.203799"
     id="path54"
     inkscape:connector-curvature="0"
     style="fill:none;stroke:#000000" />
  <polygon
     points="201.088,-151.764 196.138,-156.714 196.138,-156.714 205.684,-161.31 "
     id="polygon56"
     style="fill:#000000;stroke:#000000"
     transform="translate(-0.6875,250.06652)" />
  <text
     x="152.44749"
     y="166.80542"
     font-size="20.00"
     id="text58"
     style="font-size:20px;text-anchor:middle;font-family:'Times Roman,serif'">b</text>
  <polygon
     points="246.031,-20.7292 246.031,-20.7292 236.037,-24.247 246.044,-27.7292 "
     id="polygon65"
     style="fill:#000000;stroke:#000000"
     transform="matrix(0.8660254,0.5,-0.5,0.8660254,19.491204,126.30017)" />
  <text
     x="218.54727"
     y="286.79456"
     font-size="20.00"
     id="text67"
     style="font-size:20px;text-anchor:middle;font-family:'Times Roman,serif'">a</text>
  <ellipse
     cx="363"
     cy="-30.6262"
     rx="19.799"
     ry="19.799"
     id="ellipse72"
     d="m 382.799,-30.6262 c 0,10.934686 -8.86431,19.799 -19.799,19.799 -10.93469,0 -19.799,-8.864314 -19.799,-19.799 0,-10.934685 8.86431,-19.799 19.799,-19.799 10.93469,0 19.799,8.864315 19.799,19.799 z"
     sodipodi:cx="363"
     sodipodi:cy="-30.6262"
     sodipodi:rx="19.799"
     sodipodi:ry="19.799"
     style="fill:none;stroke:#000000"
     transform="translate(-0.6875,250.06652)" />
  <text
     x="362.3125"
     y="223.04033"
     font-size="14.00"
     id="text74"
     style="font-size:14px;text-anchor:middle;font-family:'Times Roman,serif'">D</text>
  <path
     d="m 235.9695,214.82602 c 17.88749,-19.23289 60.07098,-29.0237 98.38703,-2.33582"
     id="path79"
     inkscape:connector-curvature="0"
     style="fill:none;stroke:#000000"
     sodipodi:nodetypes="cc" />
  <polygon
     points="333.653,-39.6941 333.653,-39.6941 343.355,-35.436 333.115,-32.7148 "
     id="polygon81"
     style="fill:#000000;stroke:#000000"
     transform="matrix(0.8660254,0.5,-0.5,0.8660254,26.525173,76.098544)" />
  <text
     x="284.3075"
     y="192.81992"
     font-size="20.00"
     id="text83"
     style="font-size:20px;text-anchor:middle;font-family:'Times Roman,serif'">b</text>
  <path
     d="m 218.3125,93.970521 c 0,24.382999 0,67.508999 0,96.292599"
     id="path88"
     inkscape:connector-curvature="0"
     style="fill:none;stroke:#000000" />
  <polygon
     points="215.5,-59.5431 222.5,-59.543 222.5,-59.543 219,-49.5431 "
     id="polygon90"
     style="fill:#000000;stroke:#000000"
     transform="translate(-0.6875,250.06652)" />
  <text
     x="211.3125"
     y="147.61752"
     font-size="20.00"
     id="text92"
     style="font-size:20px;text-anchor:middle;font-family:'Times Roman,serif'">a</text>
  <text
     x="219.08788"
     y="14.933533"
     font-size="20.00"
     id="text101"
     style="font-size:20px;text-anchor:middle;font-family:'Times Roman,serif'">b</text>
  <path
     d="m 342.8925,224.22882 c -23.82451,12.99881 -69.27625,28.46091 -100.14805,2.72743"
     id="path106"
     inkscape:connector-curvature="0"
     style="fill:none;stroke:#000000"
     sodipodi:nodetypes="cc" />
  <text
     x="293.5025"
     y="254.0107"
     font-size="20.00"
     id="text110"
     style="font-size:20px;text-anchor:middle;font-family:'Times Roman,serif'">a</text>
  <ellipse
     cx="507"
     cy="-30.6262"
     rx="17.9762"
     ry="18.3848"
     id="ellipse115"
     d="m 524.9762,-30.6262 c 0,10.153645 -8.04822,18.3848 -17.9762,18.3848 -9.92798,0 -17.9762,-8.231155 -17.9762,-18.3848 0,-10.153644 8.04822,-18.3848 17.9762,-18.3848 9.92798,0 17.9762,8.231156 17.9762,18.3848 z"
     sodipodi:cx="507"
     sodipodi:cy="-30.6262"
     sodipodi:rx="17.9762"
     sodipodi:ry="18.3848"
     style="fill:none;stroke:#000000"
     transform="translate(-0.6875,250.06652)" />
  <ellipse
     cx="507"
     cy="-30.6262"
     rx="21.8873"
     ry="22.3848"
     id="ellipse117"
     d="m 528.8873,-30.6262 c 0,12.362784 -9.79928,22.3848002 -21.8873,22.3848002 -12.08802,0 -21.8873,-10.0220162 -21.8873,-22.3848002 0,-12.362783 9.79928,-22.3848 21.8873,-22.3848 12.08802,0 21.8873,10.022017 21.8873,22.3848 z"
     sodipodi:cx="507"
     sodipodi:cy="-30.6262"
     sodipodi:rx="21.8873"
     sodipodi:ry="22.3848"
     style="fill:none;stroke:#000000"
     transform="translate(-0.6875,250.06652)" />
  <text
     x="506.3125"
     y="223.04033"
     font-size="14.00"
     id="text119"
     style="font-size:14px;text-anchor:middle;font-family:'Times Roman,serif'">E</text>
  <path
     d="m 382.3355,219.44032 c 23.709,0 63.521,0 91.624,0"
     id="path124"
     inkscape:connector-curvature="0"
     style="fill:none;stroke:#000000" />
  <polygon
     points="474.786,-27.1263 474.786,-34.1263 474.786,-34.1263 484.786,-30.6262 "
     id="polygon126"
     style="fill:#000000;stroke:#000000"
     transform="translate(-0.6875,250.06652)" />
  <text
     x="424.76181"
     y="215.20792"
     font-size="20.00"
     id="text128"
     style="font-size:20px;text-anchor:middle;font-family:'Times Roman,serif'">b</text>
  <path
     d="m 486.60984,229.59735 c -43.24899,1.73343 -131.07277,91.2505 -247.39436,5.32035"
     id="path133"
     inkscape:connector-curvature="0"
     style="fill:none;stroke:#000000"
     sodipodi:nodetypes="cc" />
  <polygon
     points="247.028,-27.1263 237.028,-30.6262 247.028,-34.1263 247.028,-27.1263 "
     id="polygon135"
     style="fill:#000000;stroke:#000000"
     transform="matrix(0.7490353,0.66253008,-0.66253008,0.7490353,35.316072,96.39378)" />
  <text
     x="369.20087"
     y="265.99307"
     font-size="20.00"
     id="text137"
     style="font-size:20px;text-anchor:middle;font-family:'Times Roman,serif'">a</text>
  <path
     d="m 486.5175,209.54262 c -50.938,-25.4686 -186.489,-93.2441 -242.96,-121.480099"
     id="path142"
     inkscape:connector-curvature="0"
     style="fill:none;stroke:#000000" />
  <polygon
     points="245.78,-165.149 242.649,-158.888 242.649,-158.888 235.27,-166.491 "
     id="polygon144"
     style="fill:#000000;stroke:#000000"
     transform="translate(-0.6875,250.06652)" />
  <text
     x="371.03751"
     y="141.30252"
     font-size="20.00"
     id="text146"
     style="font-size:20px;text-anchor:middle;font-family:'Times Roman,serif'">b</text>
  <path
     style="fill:none;stroke:#000000;stroke-width:0.80000001px;stroke-linecap:butt;stroke-linejoin:miter;stroke-opacity:1;marker-end:url(#Arrow1Lend)"
     d="M 235.40006,67.178744 C 264.58548,11.44635 180.51272,-5.1333635 200.85755,66.494734"
     id="path3252"
     inkscape:connector-curvature="0"
     sodipodi:nodetypes="cc" />
  <path
     style="fill:none;stroke:#000000;stroke-width:0.80000001px;stroke-linecap:butt;stroke-linejoin:miter;stroke-opacity:1;marker-end:url(#Arrow1Lend)"
     d="m 203.28983,229.83027 c 0.59197,58.58221 29.94379,53.11833 27.56909,3.62752"
     id="path4466"
     inkscape:connector-curvature="0"
     sodipodi:nodetypes="cc" />
</svg>
